<?xml version="1.0"?><svg xmlns="http://www.w3.org/2000/svg" xmlns:xlink= "http://www.w3.org/1999/xlink" style="background: white;" width="1500" height="185"> <g style="color: black; font-size: 13px; font-family: sans-serif; transform: translate(18px, 25px);"><g><circle r="3" cx="-6" cy="-5" style="fill: #B6509E" /><text>Borrow APR, variable</text></g><g style="transform: translateX(150px);"><circle r="3" cx="-6" cy="-5" style="fill: rgb(231, 198, 223)" /><text>Borrow APR, stable</text></g><g style="transform: translateX(290px);"><circle r="3" cx="-6" cy="-5" style="fill: rgb(0, 98, 210)" /><text>Utilization Rate</text></g></g><g class="visx-group" transform="translate(40, 50)"><g class="visx-group visx-rows" transform="translate(0, 0)"><line class="visx-line" x1="0" y1="115" x2="1450" y2="115" fill="transparent" shape-rendering="crispEdges" stroke="#000" stroke-width="1" stroke-dasharray="3,3" pointer-events="none"></line><line class="visx-line" x1="0" y1="62.72727272727272" x2="1450" y2="62.72727272727272" fill="transparent" shape-rendering="crispEdges" stroke="#000" stroke-width="1" stroke-dasharray="3,3" pointer-events="none"></line><line class="visx-line" x1="0" y1="10.454545454545459" x2="1450" y2="10.454545454545459" fill="transparent" shape-rendering="crispEdges" stroke="#000" stroke-width="1" stroke-dasharray="3,3" pointer-events="none"></line></g><path class="visx-linepath" d="M0,114.99999999994773C2.4166666666666665,114.99128787875739,4.833333333333334,114.98257575756705,7.25,114.97386363636363C9.666666666666666,114.96515151516022,12.083333333333334,114.95643939393938,14.5,114.94772727272726C16.916666666666668,114.93901515151515,19.333333333333332,114.93030303030302,21.75,114.92159090909091C24.166666666666668,114.9128787878788,26.583333333333332,114.90416666666667,29,114.89545454545456C31.416666666666668,114.88674242424244,33.833333333333336,114.87803030303031,36.25,114.86931818181819C38.666666666666664,114.86060606060606,41.083333333333336,114.85189393939395,43.5,114.84318181818182C45.91666666666667,114.83446969696969,48.333333333333336,114.82575757575758,50.75000000000001,114.81704545454545C53.16666666666667,114.80833333333334,55.583333333333336,114.79962121212121,58,114.7909090909091C60.416666666666664,114.78219696969697,62.833333333333336,114.77348484848486,65.25,114.76477272727273C67.66666666666667,114.7560606060606,70.08333333333333,114.74734848484847,72.5,114.73863636363636C74.91666666666667,114.72992424242425,77.33333333333333,114.72121212121212,79.75,114.7125C82.16666666666667,114.70378787878789,84.58333333333333,114.69507575757576,87,114.68636363636364C89.41666666666667,114.67765151515151,91.83333333333333,114.66893939393938,94.25,114.66022727272727C96.66666666666667,114.65151515151514,99.08333333333334,114.64280303030304,101.50000000000001,114.63409090909092C103.91666666666667,114.6253787878788,106.33333333333334,114.61666666666667,108.75,114.60795454545455C111.16666666666667,114.59924242424242,113.58333333333333,114.5905303030303,116,114.58181818181818C118.41666666666667,114.57310606060605,120.83333333333334,114.56439393939394,123.25000000000001,114.55568181818181C125.66666666666667,114.54696969696968,128.08333333333334,114.53825757575756,130.5,114.52954545454544C132.91666666666666,114.52083333333333,135.33333333333334,114.51212121212122,137.75,114.5034090909091C140.16666666666666,114.49469696969699,142.58333333333334,114.48598484848486,145,114.47727272727273C147.41666666666666,114.4685606060606,149.83333333333334,114.4598484848485,152.25,114.45113636363637C154.66666666666666,114.44242424242424,157.08333333333334,114.43371212121212,159.5,114.425C161.91666666666666,114.41628787878787,164.33333333333334,114.40757575757574,166.75,114.39886363636363C169.16666666666666,114.39015151515152,171.58333333333334,114.38143939393939,174,114.37272727272727C176.41666666666666,114.36401515151516,178.83333333333334,114.35530303030302,181.25,114.3465909090909C183.66666666666666,114.3378787878788,186.08333333333334,114.32916666666667,188.5,114.32045454545455C190.91666666666666,114.31174242424244,193.33333333333334,114.30303030303031,195.75,114.29431818181818C198.16666666666669,114.28560606060606,200.58333333333334,114.27689393939394,203.00000000000003,114.26818181818182C205.41666666666669,114.25946969696969,207.83333333333331,114.25075757575756,210.24999999999997,114.24204545454545C212.66666666666666,114.23333333333332,215.08333333333331,114.22462121212122,217.5,114.2159090909091C219.91666666666666,114.20719696969698,222.33333333333334,114.19848484848485,224.75,114.18977272727273C227.16666666666666,114.1810606060606,229.58333333333334,114.17234848484847,232,114.16363636363636C234.41666666666666,114.15492424242424,236.83333333333334,114.14621212121212,239.25,114.1375C241.66666666666669,114.12878787878788,244.08333333333334,114.12007575757576,246.50000000000003,114.11136363636363C248.91666666666669,114.10265151515152,251.33333333333331,114.0939393939394,253.74999999999997,114.08522727272728C256.16666666666663,114.07651515151515,258.5833333333333,114.06780303030304,261,114.05909090909091C263.4166666666667,114.05037878787878,265.8333333333333,114.04166666666667,268.25,114.03295454545454C270.6666666666667,114.02424242424242,273.0833333333333,114.0155303030303,275.5,114.00681818181818C277.9166666666667,113.99810606060605,280.3333333333333,113.98939393939392,282.75,113.98068181818181C285.1666666666667,113.9719696969697,287.5833333333333,113.96325757575758,290,113.95454545454547C292.4166666666667,113.94583333333335,294.8333333333333,113.93712121212123,297.25,113.9284090909091C299.6666666666667,113.91969696969697,302.0833333333333,113.91098484848486,304.5,113.90227272727273C306.9166666666667,113.8935606060606,309.3333333333333,113.88484848484849,311.75,113.87613636363636C314.1666666666667,113.86742424242424,316.5833333333333,113.85871212121211,319,113.85C321.4166666666667,113.84128787878788,323.8333333333333,113.83257575757575,326.25,113.82386363636364C328.6666666666667,113.81515151515153,331.0833333333333,113.8064393939394,333.5,113.79772727272727C335.9166666666667,113.78901515151514,338.3333333333333,113.78030303030302,340.75,113.7715909090909C343.1666666666667,113.76287878787879,345.5833333333333,113.75416666666666,348,113.74545454545455C350.4166666666667,113.73674242424244,352.8333333333333,113.72803030303031,355.25,113.71931818181818C357.6666666666667,113.71060606060605,360.0833333333333,113.70189393939393,362.5,113.69318181818181C364.9166666666667,113.6844696969697,367.3333333333333,113.67575757575757,369.75,113.66704545454546C372.1666666666667,113.65833333333335,374.5833333333333,113.64962121212122,377,113.64090909090909C379.4166666666667,113.63219696969696,381.8333333333333,113.62348484848485,384.25,113.61477272727272C386.6666666666667,113.6060606060606,389.0833333333333,113.59734848484847,391.5,113.58863636363635C393.9166666666667,113.57992424242423,396.33333333333337,113.57121212121211,398.75000000000006,113.5625C401.16666666666674,113.55378787878789,403.58333333333337,113.54507575757577,406.00000000000006,113.53636363636365C408.4166666666667,113.52765151515153,410.8333333333333,113.5189393939394,413.24999999999994,113.51022727272728C415.66666666666663,113.50151515151515,418.08333333333326,113.49280303030304,420.49999999999994,113.48409090909091C422.91666666666663,113.47537878787878,425.3333333333333,113.46666666666667,427.75,113.45795454545454C430.1666666666667,113.44924242424241,432.5833333333333,113.44053030303029,435,113.43181818181817C437.4166666666667,113.42310606060606,439.8333333333333,113.41439393939393,442.25,113.40568181818182C444.6666666666667,113.3969696969697,447.0833333333333,113.38825757575758,449.5,113.37954545454546C451.9166666666667,113.37083333333335,454.3333333333333,113.36212121212122,456.75,113.3534090909091C459.1666666666667,113.34469696969697,461.5833333333333,113.33598484848486,464,113.32727272727273C466.4166666666667,113.3185606060606,468.8333333333333,113.30984848484849,471.25,113.30113636363636C473.6666666666667,113.29242424242423,476.0833333333333,113.2837121212121,478.5,113.27499999999999C480.9166666666667,113.26628787878786,483.33333333333337,113.25757575757576,485.75000000000006,113.24886363636364C488.16666666666674,113.24015151515152,490.58333333333337,113.2314393939394,493.00000000000006,113.22272727272727C495.4166666666667,113.21401515151516,497.8333333333333,113.20530303030303,500.24999999999994,113.19659090909092C502.66666666666663,113.18787878787879,505.08333333333326,113.17916666666667,507.49999999999994,113.17045454545455C509.91666666666663,113.16174242424242,512.3333333333333,113.1530303030303,514.75,113.14431818181818C517.1666666666666,113.13560606060607,519.5833333333334,113.12689393939394,522,113.11818181818182C524.4166666666666,113.10946969696971,526.8333333333334,113.10075757575758,529.25,113.09204545454546C531.6666666666666,113.08333333333333,534.0833333333334,113.07462121212122,536.5,113.06590909090909C538.9166666666666,113.05719696969696,541.3333333333334,113.04848484848485,543.75,113.03977272727272C546.1666666666666,113.03106060606059,548.5833333333334,113.02234848484846,551,113.01363636363635C553.4166666666666,113.00492424242424,555.8333333333334,112.99621212121212,558.25,112.98750000000001C560.6666666666666,112.9787878787879,563.0833333333334,112.97007575757577,565.5,112.96136363636364C567.9166666666666,112.95265151515152,570.3333333333334,112.9439393939394,572.75,112.93522727272727C575.1666666666666,112.92651515151515,577.5833333333334,112.91780303030303,580,112.9090909090909C582.4166666666666,112.90037878787878,584.8333333333334,112.89166666666665,587.25,112.88295454545454C589.6666666666666,112.87424242424242,592.0833333333334,112.8655303030303,594.5,112.85681818181818C596.9166666666666,112.84810606060607,599.3333333333334,112.83939393939393,601.75,112.83068181818182C604.1666666666666,112.8219696969697,606.5833333333334,112.81325757575758,609,112.80454545454546C611.4166666666666,112.79583333333335,613.8333333333334,112.78712121212122,616.25,112.7784090909091C618.6666666666666,112.76969696969697,621.0833333333334,112.76098484848485,623.5,112.75227272727273C625.9166666666666,112.7435606060606,628.3333333333334,112.73484848484847,630.75,112.72613636363636C633.1666666666666,112.71742424242424,635.5833333333334,112.70871212121212,638,112.7C640.4166666666666,112.69128787878789,642.8333333333334,112.68257575757576,645.25,112.67386363636363C647.6666666666666,112.6651515151515,650.0833333333334,112.65643939393938,652.5,112.64772727272727C654.9166666666666,112.63901515151515,657.3333333333334,112.63030303030303,659.75,112.62159090909091C662.1666666666666,112.6128787878788,664.5833333333334,112.60416666666666,667,112.59545454545454C669.4166666666666,112.58674242424243,671.8333333333334,112.5780303030303,674.25,112.56931818181819C676.6666666666666,112.56060606060608,679.0833333333334,112.55189393939395,681.5,112.54318181818182C683.9166666666666,112.5344696969697,686.3333333333334,112.52575757575758,688.75,112.51704545454545C691.1666666666666,112.50833333333333,693.5833333333334,112.49962121212121,696,112.49090909090908C698.4166666666666,112.48219696969696,700.8333333333334,112.47348484848483,703.25,112.46477272727272C705.6666666666666,112.4560606060606,708.0833333333334,112.44734848484848,710.5,112.43863636363636C712.9166666666666,112.42992424242425,715.3333333333334,112.42121212121212,717.75,112.41250000000001C720.1666666666666,112.4037878787879,722.5833333333334,112.39507575757577,725,112.38636363636364C727.4166666666666,112.37765151515151,729.8333333333334,112.3689393939394,732.25,112.36022727272727C734.6666666666666,112.35151515151514,737.0833333333334,112.34280303030302,739.5,112.3340909090909C741.9166666666666,112.32537878787879,744.3333333333334,112.31666666666666,746.75,112.30795454545455C749.1666666666666,112.29924242424244,751.5833333333334,112.29053030303031,754,112.28181818181818C756.4166666666666,112.27310606060605,758.8333333333334,112.26439393939393,761.25,112.25568181818181C763.6666666666666,112.2469696969697,766.0833333333334,112.23825757575757,768.5,112.22954545454546C770.9166666666666,112.22083333333335,773.3333333333334,112.21212121212122,775.75,112.20340909090909C778.1666666666666,112.19469696969696,780.5833333333334,112.18598484848484,783,112.17727272727272C785.4166666666667,112.1685606060606,787.8333333333334,112.1598484848485,790.2500000000001,112.15113636363637C792.6666666666667,112.14242424242425,795.0833333333335,112.13371212121213,797.5000000000001,112.125C799.9166666666667,112.11628787878787,802.3333333333335,112.10757575757576,804.7500000000001,112.09886363636363C807.1666666666667,112.0901515151515,809.5833333333335,112.08143939393939,812.0000000000001,112.07272727272726C814.4166666666667,112.06401515151515,816.8333333333333,112.05530303030302,819.2499999999999,112.04659090909091C821.6666666666665,112.0378787878788,824.0833333333333,112.02916666666667,826.4999999999999,112.02045454545456C828.9166666666665,112.01174242424244,831.3333333333333,112.00303030303031,833.7499999999999,111.99431818181819C836.1666666666665,111.98560606060606,838.5833333333333,111.97689393939395,840.9999999999999,111.96818181818182C843.4166666666666,111.95946969696969,845.8333333333333,111.95075757575758,848.25,111.94204545454545C850.6666666666666,111.93333333333332,853.0833333333334,111.9246212121212,855.5,111.91590909090908C857.9166666666666,111.90719696969697,860.3333333333334,111.89848484848484,862.75,111.88977272727273C865.1666666666666,111.88106060606061,867.5833333333334,111.87234848484849,870,111.86363636363637C872.4166666666666,111.85492424242426,874.8333333333334,111.84621212121213,877.25,111.8375C879.6666666666666,111.82878787878788,882.0833333333334,111.82007575757576,884.5,111.81136363636364C886.9166666666666,111.80265151515151,889.3333333333334,111.7939393939394,891.75,111.78522727272727C894.1666666666666,111.77651515151514,896.5833333333334,111.76780303030301,899,111.7590909090909C901.4166666666666,111.75037878787879,903.8333333333334,111.74166666666666,906.25,111.73295454545455C908.6666666666666,111.72424242424243,911.0833333333334,111.71553030303029,913.5,111.70681818181818C915.9166666666666,111.69810606060607,918.3333333333334,111.68939393939394,920.75,111.68068181818182C923.1666666666666,111.67196969696971,925.5833333333334,111.66325757575758,928,111.65454545454546C930.4166666666666,111.64583333333333,932.8333333333334,111.6371212121212,935.25,111.62840909090909C937.6666666666666,111.61969696969697,940.0833333333334,111.61098484848485,942.5,111.60227272727273C944.9166666666666,111.59356060606062,947.3333333333334,111.5848484848485,949.75,111.57613636363637C952.1666666666666,111.56742424242424,954.5833333333334,111.55871212121212,957,111.55C959.4166666666666,111.54128787878787,961.8333333333334,111.53257575757576,964.25,111.52386363636363C966.6666666666667,111.5151515151515,969.0833333333334,111.50643939393939,971.5000000000001,111.49772727272726C973.9166666666667,111.48901515151515,976.3333333333335,111.48030303030302,978.7500000000001,111.4715909090909C981.1666666666667,111.4628787878788,983.5833333333335,111.45416666666667,986.0000000000001,111.44545454545455C988.4166666666667,111.43674242424244,990.8333333333335,111.42803030303031,993.2500000000001,111.41931818181818C995.6666666666667,111.41060606060606,998.0833333333333,111.40189393939394,1000.4999999999999,111.39318181818182C1002.9166666666665,111.38446969696969,1005.3333333333333,111.37575757575756,1007.7499999999999,111.36704545454545C1010.1666666666665,111.35833333333333,1012.5833333333333,111.3496212121212,1014.9999999999999,111.3409090909091C1017.4166666666665,111.33219696969698,1019.8333333333333,111.32348484848485,1022.2499999999999,111.31477272727274C1024.6666666666665,111.30606060606061,1027.0833333333333,111.2973484848485,1029.5,111.28863636363637C1031.9166666666667,111.27992424242424,1034.3333333333333,111.27121212121213,1036.75,111.2625C1039.1666666666667,111.25378787878788,1041.5833333333333,111.24507575757576,1044,111.23636363636363C1046.4166666666667,111.2276515151515,1048.8333333333333,111.21893939393938,1051.25,111.21022727272727C1053.6666666666667,111.20151515151515,1056.0833333333333,111.19280303030303,1058.5,111.18409090909091C1060.9166666666667,111.1753787878788,1063.3333333333333,111.16666666666667,1065.75,111.15795454545454C1068.1666666666667,111.14924242424242,1070.5833333333333,111.14053030303029,1073,111.13181818181818C1075.4166666666667,111.12310606060606,1077.8333333333333,111.11439393939393,1080.25,111.10568181818182C1082.6666666666667,111.09696969696971,1085.0833333333333,111.08825757575757,1087.5,111.07954545454545C1089.9166666666667,111.07083333333334,1092.3333333333333,111.06212121212121,1094.75,111.0534090909091C1097.1666666666667,111.04469696969699,1099.5833333333333,111.03598484848486,1102,111.02727272727273C1104.4166666666667,111.0185606060606,1106.8333333333333,111.00984848484849,1109.25,111.00113636363636C1111.6666666666667,110.99242424242424,1114.0833333333333,110.98371212121212,1116.5,110.975C1118.9166666666667,110.96628787878787,1121.3333333333333,110.95757575757574,1123.75,110.94886363636363C1126.1666666666667,110.94015151515151,1128.5833333333333,110.93143939393939,1131,110.92272727272727C1133.4166666666667,110.91401515151516,1135.8333333333333,110.90530303030303,1138.25,110.89659090909092C1140.6666666666667,110.8878787878788,1143.0833333333333,110.87916666666668,1145.5,110.87045454545455C1147.9166666666667,110.86174242424242,1150.3333333333333,110.85303030303031,1152.75,110.84431818181818C1155.1666666666667,110.83560606060605,1157.5833333333333,110.83560606060605,1160,110.81818181818181C1162.4166666666667,110.80075757575757,1164.8333333333333,109.30227272727274,1167.25,108.54431818181818C1169.6666666666667,107.78636363636363,1172.0833333333333,107.0284090909091,1174.5,106.27045454545454C1176.9166666666667,105.51249999999999,1179.3333333333333,104.75454545454545,1181.75,103.99659090909091C1184.1666666666667,103.23863636363637,1186.5833333333333,102.48068181818181,1189,101.72272727272727C1191.4166666666667,100.96477272727273,1193.8333333333333,100.20681818181819,1196.25,99.44886363636364C1198.6666666666667,98.69090909090909,1201.0833333333333,97.93295454545455,1203.5,97.175C1205.9166666666667,96.41704545454544,1208.3333333333333,95.6590909090909,1210.75,94.90113636363635C1213.1666666666667,94.1431818181818,1215.5833333333333,93.38522727272726,1218,92.62727272727273C1220.4166666666667,91.86931818181819,1222.8333333333333,91.11136363636362,1225.25,90.35340909090908C1227.6666666666667,89.59545454545454,1230.0833333333333,88.8375,1232.5,88.07954545454545C1234.9166666666667,87.3215909090909,1237.3333333333333,86.56363636363636,1239.75,85.80568181818181C1242.1666666666667,85.04772727272726,1244.5833333333333,84.28977272727272,1247,83.53181818181818C1249.4166666666667,82.77386363636364,1251.8333333333333,82.01590909090908,1254.25,81.25795454545454C1256.6666666666667,80.5,1259.0833333333333,79.74204545454546,1261.5,78.98409090909092C1263.9166666666667,78.22613636363639,1266.3333333333333,77.46818181818182,1268.75,76.71022727272727C1271.1666666666667,75.95227272727271,1273.5833333333333,75.19431818181818,1276,74.43636363636364C1278.4166666666667,73.6784090909091,1280.8333333333333,72.92045454545455,1283.25,72.1625C1285.6666666666667,71.40454545454544,1288.0833333333333,70.64659090909089,1290.5,69.88863636363635C1292.9166666666667,69.13068181818181,1295.3333333333333,68.37272727272727,1297.75,67.61477272727274C1300.1666666666667,66.8568181818182,1302.5833333333333,66.09886363636363,1305,65.34090909090908C1307.4166666666667,64.58295454545453,1309.8333333333333,63.824999999999996,1312.25,63.06704545454545C1314.6666666666667,62.309090909090905,1317.0833333333333,61.55113636363637,1319.5,60.79318181818182C1321.9166666666667,60.035227272727276,1324.3333333333333,59.27727272727272,1326.75,58.51931818181817C1329.1666666666667,57.761363636363626,1331.5833333333333,57.00340909090908,1334,56.245454545454535C1336.4166666666667,55.48749999999999,1338.8333333333333,54.72954545454546,1341.25,53.971590909090914C1343.6666666666667,53.21363636363637,1346.0833333333333,52.45568181818181,1348.5,51.69772727272726C1350.9166666666667,50.93977272727272,1353.3333333333333,50.18181818181819,1355.75,49.42386363636364C1358.1666666666667,48.665909090909096,1360.5833333333333,47.90795454545454,1363,47.14999999999999C1365.4166666666667,46.392045454545446,1367.8333333333333,45.63409090909092,1370.25,44.87613636363638C1372.6666666666667,44.11818181818183,1375.0833333333333,43.36022727272728,1377.5,42.602272727272734C1379.9166666666667,41.84431818181819,1382.3333333333333,41.08636363636363,1384.75,40.32840909090908C1387.1666666666667,39.57045454545454,1389.5833333333333,38.8125,1392,38.054545454545455C1394.4166666666667,37.29659090909091,1396.8333333333333,36.53863636363635,1399.25,35.780681818181804C1401.6666666666667,35.02272727272726,1404.0833333333333,34.26477272727273,1406.5,33.50681818181818C1408.9166666666667,32.74886363636364,1411.3333333333333,31.990909090909092,1413.75,31.232954545454547C1416.1666666666667,30.475,1418.5833333333333,29.717045454545456,1421,28.95909090909091C1423.4166666666667,28.201136363636365,1425.8333333333333,27.443181818181824,1428.25,26.685227272727275C1430.6666666666667,25.927272727272726,1433.0833333333333,25.16931818181817,1435.5,24.411363636363625C1437.9166666666667,23.65340909090908,1440.3333333333333,22.89545454545454,1442.75,22.1375C1445.1666666666667,21.379545454545458,1447.5833333333333,20.62159090909091,1450,19.863636363636363" fill="transparent" stroke-linecap="round" stroke="#B6509E" stroke-width="2"></path><path class="visx-linepath" d="M0,104.54545454542841C2.4166666666666665,104.54109848483324,4.833333333333334,104.53674242423807,7.25,104.53238636363636C9.666666666666666,104.52803030303465,12.083333333333334,104.52367424242424,14.5,104.51931818181818C16.916666666666668,104.51496212121212,19.333333333333332,104.51060606060605,21.75,104.50625C24.166666666666668,104.50189393939394,26.583333333333332,104.49753787878788,29,104.49318181818182C31.416666666666668,104.48882575757577,33.833333333333336,104.4844696969697,36.25,104.48011363636364C38.666666666666664,104.47575757575758,41.083333333333336,104.47140151515151,43.5,104.46704545454546C45.91666666666667,104.4626893939394,48.333333333333336,104.45833333333333,50.75000000000001,104.45397727272727C53.16666666666667,104.44962121212122,55.583333333333336,104.44526515151514,58,104.44090909090909C60.416666666666664,104.43655303030303,62.833333333333336,104.43219696969696,65.25,104.4278409090909C67.66666666666667,104.42348484848485,70.08333333333333,104.41912878787879,72.5,104.41477272727273C74.91666666666667,104.41041666666668,77.33333333333333,104.4060606060606,79.75,104.40170454545455C82.16666666666667,104.3973484848485,84.58333333333333,104.39299242424242,87,104.38863636363637C89.41666666666667,104.38428030303031,91.83333333333333,104.37992424242424,94.25,104.37556818181818C96.66666666666667,104.37121212121212,99.08333333333334,104.36685606060605,101.50000000000001,104.3625C103.91666666666667,104.35814393939394,106.33333333333334,104.35378787878787,108.75,104.34943181818181C111.16666666666667,104.34507575757576,113.58333333333333,104.34071969696969,116,104.33636363636363C118.41666666666667,104.33200757575757,120.83333333333334,104.32765151515152,123.25000000000001,104.32329545454546C125.66666666666667,104.3189393939394,128.08333333333334,104.31458333333332,130.5,104.31022727272726C132.91666666666666,104.3058712121212,135.33333333333334,104.30151515151515,137.75,104.29715909090909C140.16666666666666,104.29280303030303,142.58333333333334,104.28844696969696,145,104.2840909090909C147.41666666666666,104.27973484848485,149.83333333333334,104.2753787878788,152.25,104.27102272727274C154.66666666666666,104.26666666666668,157.08333333333334,104.26231060606061,159.5,104.25795454545455C161.91666666666666,104.2535984848485,164.33333333333334,104.24924242424242,166.75,104.24488636363637C169.16666666666666,104.24053030303031,171.58333333333334,104.23617424242424,174,104.23181818181818C176.41666666666666,104.22746212121213,178.83333333333334,104.22310606060606,181.25,104.21875C183.66666666666666,104.21439393939394,186.08333333333334,104.21003787878787,188.5,104.20568181818182C190.91666666666666,104.20132575757576,193.33333333333334,104.19696969696969,195.75,104.19261363636363C198.16666666666669,104.18825757575758,200.58333333333334,104.1839015151515,203.00000000000003,104.17954545454545C205.41666666666669,104.17518939393939,207.83333333333331,104.17083333333332,210.24999999999997,104.16647727272726C212.66666666666666,104.1621212121212,215.08333333333331,104.15776515151515,217.5,104.1534090909091C219.91666666666666,104.14905303030304,222.33333333333334,104.14469696969697,224.75,104.14034090909091C227.16666666666666,104.13598484848485,229.58333333333334,104.1316287878788,232,104.12727272727274C234.41666666666666,104.12291666666668,236.83333333333334,104.11856060606061,239.25,104.11420454545456C241.66666666666669,104.1098484848485,244.08333333333334,104.10549242424243,246.50000000000003,104.10113636363637C248.91666666666669,104.09678030303031,251.33333333333331,104.09242424242424,253.74999999999997,104.08806818181819C256.16666666666663,104.08371212121213,258.5833333333333,104.07935606060606,261,104.075C263.4166666666667,104.07064393939395,265.8333333333333,104.06628787878788,268.25,104.06193181818182C270.6666666666667,104.05757575757576,273.0833333333333,104.05321969696969,275.5,104.04886363636363C277.9166666666667,104.04450757575758,280.3333333333333,104.0401515151515,282.75,104.03579545454545C285.1666666666667,104.0314393939394,287.5833333333333,104.02708333333332,290,104.02272727272727C292.4166666666667,104.01837121212121,294.8333333333333,104.01401515151515,297.25,104.0096590909091C299.6666666666667,104.00530303030304,302.0833333333333,104.00094696969697,304.5,103.99659090909091C306.9166666666667,103.99223484848486,309.3333333333333,103.98787878787878,311.75,103.98352272727273C314.1666666666667,103.97916666666667,316.5833333333333,103.9748106060606,319,103.97045454545454C321.4166666666667,103.96609848484849,323.8333333333333,103.96174242424242,326.25,103.95738636363636C328.6666666666667,103.9530303030303,331.0833333333333,103.94867424242423,333.5,103.94431818181818C335.9166666666667,103.93996212121212,338.3333333333333,103.93560606060606,340.75,103.93125C343.1666666666667,103.92689393939395,345.5833333333333,103.92253787878788,348,103.91818181818182C350.4166666666667,103.91382575757576,352.8333333333333,103.9094696969697,355.25,103.90511363636364C357.6666666666667,103.90075757575758,360.0833333333333,103.89640151515151,362.5,103.89204545454545C364.9166666666667,103.8876893939394,367.3333333333333,103.88333333333333,369.75,103.87897727272727C372.1666666666667,103.87462121212121,374.5833333333333,103.87026515151516,377,103.8659090909091C379.4166666666667,103.86155303030304,381.8333333333333,103.85719696969697,384.25,103.85284090909092C386.6666666666667,103.84848484848486,389.0833333333333,103.84412878787879,391.5,103.83977272727273C393.9166666666667,103.83541666666667,396.33333333333337,103.8310606060606,398.75000000000006,103.82670454545455C401.16666666666674,103.82234848484849,403.58333333333337,103.81799242424242,406.00000000000006,103.81363636363636C408.4166666666667,103.8092803030303,410.8333333333333,103.80492424242424,413.24999999999994,103.80056818181818C415.66666666666663,103.79621212121212,418.08333333333326,103.79185606060605,420.49999999999994,103.7875C422.91666666666663,103.78314393939394,425.3333333333333,103.77878787878787,427.75,103.77443181818181C430.1666666666667,103.77007575757575,432.5833333333333,103.76571969696968,435,103.76136363636363C437.4166666666667,103.75700757575757,439.8333333333333,103.7526515151515,442.25,103.74829545454544C444.6666666666667,103.74393939393939,447.0833333333333,103.73958333333333,449.5,103.73522727272727C451.9166666666667,103.73087121212122,454.3333333333333,103.72651515151516,456.75,103.7221590909091C459.1666666666667,103.71780303030305,461.5833333333333,103.71344696969697,464,103.70909090909092C466.4166666666667,103.70473484848486,468.8333333333333,103.70037878787879,471.25,103.69602272727273C473.6666666666667,103.69166666666668,476.0833333333333,103.6873106060606,478.5,103.68295454545455C480.9166666666667,103.6785984848485,483.33333333333337,103.67424242424242,485.75000000000006,103.66988636363637C488.16666666666674,103.66553030303031,490.58333333333337,103.66117424242424,493.00000000000006,103.65681818181818C495.4166666666667,103.65246212121212,497.8333333333333,103.64810606060605,500.24999999999994,103.64375C502.66666666666663,103.63939393939394,505.08333333333326,103.63503787878787,507.49999999999994,103.63068181818181C509.91666666666663,103.62632575757576,512.3333333333333,103.62196969696969,514.75,103.61761363636363C517.1666666666666,103.61325757575757,519.5833333333334,103.6089015151515,522,103.60454545454544C524.4166666666666,103.60018939393939,526.8333333333334,103.59583333333333,529.25,103.59147727272727C531.6666666666666,103.58712121212122,534.0833333333334,103.58276515151515,536.5,103.57840909090909C538.9166666666666,103.57405303030303,541.3333333333334,103.56969696969698,543.75,103.56534090909092C546.1666666666666,103.56098484848486,548.5833333333334,103.5566287878788,551,103.55227272727274C553.4166666666666,103.54791666666668,555.8333333333334,103.54356060606061,558.25,103.53920454545455C560.6666666666666,103.5348484848485,563.0833333333334,103.53049242424242,565.5,103.52613636363637C567.9166666666666,103.52178030303031,570.3333333333334,103.51742424242424,572.75,103.51306818181818C575.1666666666666,103.50871212121213,577.5833333333334,103.50435606060606,580,103.5C582.4166666666666,103.49564393939394,584.8333333333334,103.49128787878787,587.25,103.48693181818182C589.6666666666666,103.48257575757576,592.0833333333334,103.47821969696969,594.5,103.47386363636363C596.9166666666666,103.46950757575758,599.3333333333334,103.4651515151515,601.75,103.46079545454545C604.1666666666666,103.45643939393939,606.5833333333334,103.45208333333333,609,103.44772727272728C611.4166666666666,103.44337121212122,613.8333333333334,103.43901515151515,616.25,103.4346590909091C618.6666666666666,103.43030303030304,621.0833333333334,103.42594696969697,623.5,103.42159090909091C625.9166666666666,103.41723484848485,628.3333333333334,103.41287878787878,630.75,103.40852272727273C633.1666666666666,103.40416666666667,635.5833333333334,103.3998106060606,638,103.39545454545454C640.4166666666666,103.39109848484848,642.8333333333334,103.38674242424241,645.25,103.38238636363636C647.6666666666666,103.3780303030303,650.0833333333334,103.37367424242424,652.5,103.36931818181819C654.9166666666666,103.36496212121213,657.3333333333334,103.36060606060606,659.75,103.35625C662.1666666666666,103.35189393939395,664.5833333333334,103.34753787878788,667,103.34318181818182C669.4166666666666,103.33882575757576,671.8333333333334,103.33446969696969,674.25,103.33011363636363C676.6666666666666,103.32575757575758,679.0833333333334,103.3214015151515,681.5,103.31704545454545C683.9166666666666,103.3126893939394,686.3333333333334,103.30833333333334,688.75,103.30397727272728C691.1666666666666,103.29962121212122,693.5833333333334,103.29526515151515,696,103.2909090909091C698.4166666666666,103.28655303030304,700.8333333333334,103.28219696969697,703.25,103.27784090909091C705.6666666666666,103.27348484848486,708.0833333333334,103.26912878787878,710.5,103.26477272727273C712.9166666666666,103.26041666666667,715.3333333333334,103.2560606060606,717.75,103.25170454545454C720.1666666666666,103.24734848484849,722.5833333333334,103.24299242424242,725,103.23863636363636C727.4166666666666,103.2342803030303,729.8333333333334,103.22992424242423,732.25,103.22556818181818C734.6666666666666,103.22121212121212,737.0833333333334,103.21685606060605,739.5,103.21249999999999C741.9166666666666,103.20814393939393,744.3333333333334,103.20378787878786,746.75,103.19943181818181C749.1666666666666,103.19507575757575,751.5833333333334,103.1907196969697,754,103.18636363636364C756.4166666666666,103.18200757575758,758.8333333333334,103.17765151515152,761.25,103.17329545454547C763.6666666666666,103.16893939393941,766.0833333333334,103.16458333333333,768.5,103.16022727272727C770.9166666666666,103.15587121212121,773.3333333333334,103.15151515151516,775.75,103.1471590909091C778.1666666666666,103.14280303030304,780.5833333333334,103.13844696969697,783,103.13409090909092C785.4166666666667,103.12973484848486,787.8333333333334,103.12537878787879,790.2500000000001,103.12102272727273C792.6666666666667,103.11666666666667,795.0833333333335,103.1123106060606,797.5000000000001,103.10795454545455C799.9166666666667,103.10359848484849,802.3333333333335,103.09924242424242,804.7500000000001,103.09488636363636C807.1666666666667,103.0905303030303,809.5833333333335,103.08617424242424,812.0000000000001,103.08181818181818C814.4166666666667,103.07746212121212,816.8333333333333,103.07310606060605,819.2499999999999,103.06875C821.6666666666665,103.06439393939394,824.0833333333333,103.06003787878787,826.4999999999999,103.05568181818181C828.9166666666665,103.05132575757575,831.3333333333333,103.0469696969697,833.7499999999999,103.04261363636364C836.1666666666665,103.03825757575758,838.5833333333333,103.03390151515151,840.9999999999999,103.02954545454546C843.4166666666666,103.0251893939394,845.8333333333333,103.02083333333333,848.25,103.01647727272727C850.6666666666666,103.01212121212122,853.0833333333334,103.00776515151516,855.5,103.0034090909091C857.9166666666666,102.99905303030305,860.3333333333334,102.99469696969696,862.75,102.9903409090909C865.1666666666666,102.98598484848485,867.5833333333334,102.98162878787879,870,102.97727272727273C872.4166666666666,102.97291666666668,874.8333333333334,102.96856060606059,877.25,102.96420454545454C879.6666666666666,102.95984848484848,882.0833333333334,102.95549242424242,884.5,102.95113636363637C886.9166666666666,102.94678030303031,889.3333333333334,102.94242424242424,891.75,102.93806818181818C894.1666666666666,102.93371212121212,896.5833333333334,102.92935606060605,899,102.925C901.4166666666666,102.92064393939394,903.8333333333334,102.91628787878787,906.25,102.91193181818181C908.6666666666666,102.90757575757576,911.0833333333334,102.9032196969697,913.5,102.89886363636364C915.9166666666666,102.89450757575759,918.3333333333334,102.89015151515152,920.75,102.88579545454546C923.1666666666666,102.8814393939394,925.5833333333334,102.87708333333333,928,102.87272727272727C930.4166666666666,102.86837121212122,932.8333333333334,102.86401515151515,935.25,102.85965909090909C937.6666666666666,102.85530303030303,940.0833333333334,102.85094696969696,942.5,102.8465909090909C944.9166666666666,102.84223484848485,947.3333333333334,102.83787878787878,949.75,102.83352272727272C952.1666666666666,102.82916666666667,954.5833333333334,102.8248106060606,957,102.82045454545454C959.4166666666666,102.81609848484848,961.8333333333334,102.81174242424241,964.25,102.80738636363635C966.6666666666667,102.8030303030303,969.0833333333334,102.79867424242423,971.5000000000001,102.79431818181817C973.9166666666667,102.78996212121211,976.3333333333335,102.78560606060606,978.7500000000001,102.78125C981.1666666666667,102.77689393939394,983.5833333333335,102.77253787878787,986.0000000000001,102.76818181818182C988.4166666666667,102.76382575757576,990.8333333333335,102.7594696969697,993.2500000000001,102.75511363636365C995.6666666666667,102.75075757575759,998.0833333333333,102.74640151515152,1000.4999999999999,102.74204545454546C1002.9166666666665,102.7376893939394,1005.3333333333333,102.73333333333333,1007.7499999999999,102.72897727272728C1010.1666666666665,102.72462121212122,1012.5833333333333,102.72026515151515,1014.9999999999999,102.7159090909091C1017.4166666666665,102.71155303030304,1019.8333333333333,102.70719696969697,1022.2499999999999,102.70284090909091C1024.6666666666665,102.69848484848485,1027.0833333333333,102.69412878787878,1029.5,102.68977272727273C1031.9166666666667,102.68541666666667,1034.3333333333333,102.6810606060606,1036.75,102.67670454545454C1039.1666666666667,102.67234848484848,1041.5833333333333,102.66799242424241,1044,102.66363636363636C1046.4166666666667,102.6592803030303,1048.8333333333333,102.65492424242423,1051.25,102.65056818181817C1053.6666666666667,102.64621212121212,1056.0833333333333,102.64185606060605,1058.5,102.63749999999999C1060.9166666666667,102.63314393939393,1063.3333333333333,102.62878787878788,1065.75,102.62443181818182C1068.1666666666667,102.62007575757576,1070.5833333333333,102.6157196969697,1073,102.61136363636365C1075.4166666666667,102.60700757575759,1077.8333333333333,102.60265151515152,1080.25,102.59829545454546C1082.6666666666667,102.59393939393941,1085.0833333333333,102.58958333333334,1087.5,102.58522727272728C1089.9166666666667,102.58087121212122,1092.3333333333333,102.57651515151515,1094.75,102.5721590909091C1097.1666666666667,102.56780303030304,1099.5833333333333,102.56344696969697,1102,102.55909090909091C1104.4166666666667,102.55473484848486,1106.8333333333333,102.55037878787878,1109.25,102.54602272727273C1111.6666666666667,102.54166666666667,1114.0833333333333,102.5373106060606,1116.5,102.53295454545454C1118.9166666666667,102.52859848484849,1121.3333333333333,102.52424242424242,1123.75,102.51988636363636C1126.1666666666667,102.5155303030303,1128.5833333333333,102.51117424242423,1131,102.50681818181818C1133.4166666666667,102.50246212121212,1135.8333333333333,102.49810606060605,1138.25,102.49374999999999C1140.6666666666667,102.48939393939393,1143.0833333333333,102.48503787878788,1145.5,102.48068181818182C1147.9166666666667,102.47632575757576,1150.3333333333333,102.4719696969697,1152.75,102.46761363636364C1155.1666666666667,102.46325757575758,1157.5833333333333,102.46325757575758,1160,102.45454545454545C1162.4166666666667,102.44583333333333,1164.8333333333333,101.14772727272727,1167.25,100.49431818181817C1169.6666666666667,99.84090909090908,1172.0833333333333,99.1875,1174.5,98.5340909090909C1176.9166666666667,97.88068181818181,1179.3333333333333,97.22727272727273,1181.75,96.57386363636364C1184.1666666666667,95.92045454545455,1186.5833333333333,95.26704545454545,1189,94.61363636363636C1191.4166666666667,93.96022727272727,1193.8333333333333,93.30681818181819,1196.25,92.6534090909091C1198.6666666666667,92,1201.0833333333333,91.3465909090909,1203.5,90.69318181818181C1205.9166666666667,90.03977272727272,1208.3333333333333,89.38636363636364,1210.75,88.73295454545455C1213.1666666666667,88.07954545454545,1215.5833333333333,87.42613636363636,1218,86.77272727272727C1220.4166666666667,86.11931818181817,1222.8333333333333,85.4659090909091,1225.25,84.8125C1227.6666666666667,84.1590909090909,1230.0833333333333,83.50568181818183,1232.5,82.85227272727273C1234.9166666666667,82.19886363636364,1237.3333333333333,81.54545454545455,1239.75,80.89204545454545C1242.1666666666667,80.23863636363636,1244.5833333333333,79.58522727272727,1247,78.93181818181817C1249.4166666666667,78.27840909090908,1251.8333333333333,77.625,1254.25,76.9715909090909C1256.6666666666667,76.31818181818181,1259.0833333333333,75.66477272727273,1261.5,75.01136363636364C1263.9166666666667,74.35795454545455,1266.3333333333333,73.70454545454545,1268.75,73.05113636363636C1271.1666666666667,72.39772727272727,1273.5833333333333,71.74431818181819,1276,71.0909090909091C1278.4166666666667,70.4375,1280.8333333333333,69.7840909090909,1283.25,69.13068181818181C1285.6666666666667,68.47727272727272,1288.0833333333333,67.82386363636364,1290.5,67.17045454545455C1292.9166666666667,66.51704545454545,1295.3333333333333,65.86363636363636,1297.75,65.21022727272727C1300.1666666666667,64.55681818181817,1302.5833333333333,63.90340909090909,1305,63.25000000000001C1307.4166666666667,62.59659090909092,1309.8333333333333,61.94318181818182,1312.25,61.28977272727273C1314.6666666666667,60.63636363636363,1317.0833333333333,59.98295454545455,1319.5,59.32954545454545C1321.9166666666667,58.67613636363636,1324.3333333333333,58.02272727272727,1326.75,57.36931818181819C1329.1666666666667,56.7159090909091,1331.5833333333333,56.062500000000014,1334,55.40909090909092C1336.4166666666667,54.75568181818183,1338.8333333333333,54.10227272727273,1341.25,53.44886363636363C1343.6666666666667,52.79545454545454,1346.0833333333333,52.142045454545446,1348.5,51.48863636363635C1350.9166666666667,50.83522727272726,1353.3333333333333,50.18181818181817,1355.75,49.528409090909086C1358.1666666666667,48.875,1360.5833333333333,48.221590909090914,1363,47.56818181818183C1365.4166666666667,46.91477272727274,1367.8333333333333,46.26136363636364,1370.25,45.60795454545455C1372.6666666666667,44.95454545454545,1375.0833333333333,44.30113636363635,1377.5,43.647727272727266C1379.9166666666667,42.99431818181818,1382.3333333333333,42.34090909090909,1384.75,41.68750000000001C1387.1666666666667,41.03409090909092,1389.5833333333333,40.38068181818182,1392,39.72727272727273C1394.4166666666667,39.07386363636363,1396.8333333333333,38.42045454545455,1399.25,37.76704545454545C1401.6666666666667,37.11363636363636,1404.0833333333333,36.46022727272728,1406.5,35.80681818181819C1408.9166666666667,35.15340909090909,1411.3333333333333,34.5,1413.75,33.84659090909091C1416.1666666666667,33.19318181818181,1418.5833333333333,32.53977272727272,1421,31.88636363636363C1423.4166666666667,31.23295454545454,1425.8333333333333,30.579545454545457,1428.25,29.926136363636367C1430.6666666666667,29.272727272727277,1433.0833333333333,28.61931818181818,1435.5,27.96590909090909C1437.9166666666667,27.3125,1440.3333333333333,26.659090909090914,1442.75,26.005681818181824C1445.1666666666667,25.352272727272734,1447.5833333333333,24.69886363636364,1450,24.045454545454547" fill="transparent" stroke-linecap="round" stroke="#E7C6DF" stroke-width="2"></path><g class="visx-group visx-axis visx-axis-bottom" transform="translate(0, 115)"><g class="visx-group visx-axis-tick" transform="translate(0, 0)"><line class="visx-line" x1="0" y1="0" x2="0" y2="8" fill="transparent" shape-rendering="crispEdges" stroke="#000" stroke-width="0" stroke-linecap="square"></line><svg x="0" y="0" font-size="10" style="overflow:visible"><text transform="" x="0" y="18" fill="#000" font-size="10" text-anchor="middle"><tspan x="0" dy="0em">0%</tspan></text></svg></g><g class="visx-group visx-axis-tick" transform="translate(0, 0)"><line class="visx-line" x1="362.5" y1="0" x2="362.5" y2="8" fill="transparent" shape-rendering="crispEdges" stroke="#000" stroke-width="0" stroke-linecap="square"></line><svg x="0" y="0" font-size="10" style="overflow:visible"><text transform="" x="362.5" y="18" fill="#000" font-size="10" text-anchor="middle"><tspan x="362.5" dy="0em">25%</tspan></text></svg></g><g class="visx-group visx-axis-tick" transform="translate(0, 0)"><line class="visx-line" x1="725" y1="0" x2="725" y2="8" fill="transparent" shape-rendering="crispEdges" stroke="#000" stroke-width="0" stroke-linecap="square"></line><svg x="0" y="0" font-size="10" style="overflow:visible"><text transform="" x="725" y="18" fill="#000" font-size="10" text-anchor="middle"><tspan x="725" dy="0em">50%</tspan></text></svg></g><g class="visx-group visx-axis-tick" transform="translate(0, 0)"><line class="visx-line" x1="1087.5" y1="0" x2="1087.5" y2="8" fill="transparent" shape-rendering="crispEdges" stroke="#000" stroke-width="0" stroke-linecap="square"></line><svg x="0" y="0" font-size="10" style="overflow:visible"><text transform="" x="1087.5" y="18" fill="#000" font-size="10" text-anchor="middle"><tspan x="1087.5" dy="0em">75%</tspan></text></svg></g><g class="visx-group visx-axis-tick" transform="translate(0, 0)"><line class="visx-line" x1="1450" y1="0" x2="1450" y2="8" fill="transparent" shape-rendering="crispEdges" stroke="#000" stroke-width="0" stroke-linecap="square"></line><svg x="0" y="0" font-size="10" style="overflow:visible"><text transform="" x="1450" y="18" fill="#000" font-size="10" text-anchor="middle"><tspan x="1450" dy="0em">100%</tspan></text></svg></g><line class="visx-line visx-axis-line" x1="0.5" y1="0" x2="1450.5" y2="0" fill="transparent" shape-rendering="crispEdges" stroke="#222" stroke-width="0"></line></g><g class="visx-group visx-axis visx-axis-left" transform="translate(0, 0)"><g class="visx-group visx-axis-tick" transform="translate(0, 0)"><line class="visx-line" x1="0" y1="115" x2="-8" y2="115" fill="transparent" shape-rendering="crispEdges" stroke="#222" stroke-width="0" stroke-linecap="square"></line><svg x="-30" y="0" font-size="8" style="overflow:visible"><text transform="" x="-8" y="115" fill="#000" font-size="8" text-anchor="start"><tspan x="-8" dy="0em">0%</tspan></text></svg></g><g class="visx-group visx-axis-tick" transform="translate(0, 0)"><line class="visx-line" x1="0" y1="62.72727272727272" x2="-8" y2="62.72727272727272" fill="transparent" shape-rendering="crispEdges" stroke="#222" stroke-width="0" stroke-linecap="square"></line><svg x="-30" y="0" font-size="8" style="overflow:visible"><text transform="" x="-8" y="62.72727272727272" fill="#000" font-size="8" text-anchor="start"><tspan x="-8" dy="0em">50%</tspan></text></svg></g><g class="visx-group visx-axis-tick" transform="translate(0, 0)"><line class="visx-line" x1="0" y1="10.454545454545459" x2="-8" y2="10.454545454545459" fill="transparent" shape-rendering="crispEdges" stroke="#222" stroke-width="0" stroke-linecap="square"></line><svg x="-30" y="0" font-size="8" style="overflow:visible"><text transform="" x="-8" y="10.454545454545459" fill="#000" font-size="8" text-anchor="start"><tspan x="-8" dy="0em">100%</tspan></text></svg></g><line class="visx-line visx-axis-line" x1="0" y1="115.5" x2="0" y2="0.5" fill="transparent" shape-rendering="crispEdges" stroke="#222" stroke-width="0"></line></g><rect class="visx-bar" width="1450" height="115" fill="transparent"></rect><line class="visx-line" x1="1160" y1="28" x2="1160" y2="115" fill="transparent" shape-rendering="crispEdges" stroke="#0062D2" stroke-width="1" pointer-events="none" stroke-dasharray="5,2"></line><svg x="0" y="0" font-size="10px" style="overflow:visible"><text transform="" x="1160" y="20" font-size="10px" fill="#fff" stroke="#fff" stroke-width="0.8em" text-anchor="middle"><tspan x="1160" dy="0.355em">Optimal 80%</tspan></text></svg><svg x="0" y="0" font-size="10px" style="overflow:visible"><text transform="" x="1160" y="20" font-size="10px" fill="#62677B" text-anchor="middle"><tspan x="1160" dy="0.355em">Optimal 80%</tspan></text></svg></g></svg>