<?xml version="1.0"?><svg xmlns="http://www.w3.org/2000/svg" xmlns:xlink= "http://www.w3.org/1999/xlink" style="background: white;" width="1500" height="185"> <g style="color: black; font-size: 13px; font-family: sans-serif; transform: translate(18px, 25px);"><g><circle r="3" cx="-6" cy="-5" style="fill: #B6509E" /><text>Borrow APR, variable</text></g><g style="transform: translateX(150px);"><circle r="3" cx="-6" cy="-5" style="fill: rgb(231, 198, 223)" /><text>Borrow APR, stable</text></g><g style="transform: translateX(290px);"><circle r="3" cx="-6" cy="-5" style="fill: rgb(0, 98, 210)" /><text>Utilization Rate</text></g></g><g class="visx-group" transform="translate(40, 50)"><g class="visx-group visx-rows" transform="translate(0, 0)"><line class="visx-line" x1="0" y1="115" x2="1450" y2="115" fill="transparent" shape-rendering="crispEdges" stroke="#000" stroke-width="1" stroke-dasharray="3,3" pointer-events="none"></line><line class="visx-line" x1="0" y1="57.5" x2="1450" y2="57.5" fill="transparent" shape-rendering="crispEdges" stroke="#000" stroke-width="1" stroke-dasharray="3,3" pointer-events="none"></line><line class="visx-line" x1="0" y1="0" x2="1450" y2="0" fill="transparent" shape-rendering="crispEdges" stroke="#000" stroke-width="1" stroke-dasharray="3,3" pointer-events="none"></line></g><path class="visx-linepath" d="M0,114.99999999995528C2.4166666666666665,114.9925462962702,4.833333333333334,114.98509259258512,7.25,114.97763888888888C9.666666666666666,114.97018518519263,12.083333333333334,114.96273148148148,14.5,114.95527777777778C16.916666666666668,114.94782407407408,19.333333333333332,114.94037037037036,21.75,114.93291666666666C24.166666666666668,114.92546296296295,26.583333333333332,114.91800925925926,29,114.91055555555556C31.416666666666668,114.90310185185186,33.833333333333336,114.89564814814814,36.25,114.88819444444444C38.666666666666664,114.88074074074073,41.083333333333336,114.87328703703704,43.5,114.86583333333334C45.91666666666667,114.85837962962964,48.333333333333336,114.85092592592592,50.75000000000001,114.84347222222222C53.16666666666667,114.83601851851851,55.583333333333336,114.82856481481481,58,114.82111111111111C60.416666666666664,114.8136574074074,62.833333333333336,114.8062037037037,65.25,114.79875C67.66666666666667,114.7912962962963,70.08333333333333,114.78384259259259,72.5,114.77638888888889C74.91666666666667,114.76893518518519,77.33333333333333,114.76148148148148,79.75,114.75402777777778C82.16666666666667,114.74657407407408,84.58333333333333,114.73912037037037,87,114.73166666666667C89.41666666666667,114.72421296296297,91.83333333333333,114.71675925925926,94.25,114.70930555555556C96.66666666666667,114.70185185185186,99.08333333333334,114.69439814814815,101.50000000000001,114.68694444444445C103.91666666666667,114.67949074074075,106.33333333333334,114.67203703703703,108.75,114.66458333333333C111.16666666666667,114.65712962962962,113.58333333333333,114.64967592592593,116,114.64222222222223C118.41666666666667,114.63476851851853,120.83333333333334,114.62731481481481,123.25000000000001,114.6198611111111C125.66666666666667,114.6124074074074,128.08333333333334,114.60495370370371,130.5,114.59750000000001C132.91666666666666,114.59004629629631,135.33333333333334,114.58259259259259,137.75,114.57513888888889C140.16666666666666,114.56768518518518,142.58333333333334,114.56023148148148,145,114.55277777777778C147.41666666666666,114.54532407407407,149.83333333333334,114.53787037037037,152.25,114.53041666666667C154.66666666666666,114.52296296296296,157.08333333333334,114.51550925925925,159.5,114.50805555555554C161.91666666666666,114.50060185185184,164.33333333333334,114.49314814814815,166.75,114.48569444444445C169.16666666666666,114.47824074074074,171.58333333333334,114.47078703703703,174,114.46333333333332C176.41666666666666,114.45587962962962,178.83333333333334,114.44842592592593,181.25,114.44097222222223C183.66666666666666,114.43351851851853,186.08333333333334,114.42606481481481,188.5,114.4186111111111C190.91666666666666,114.4111574074074,193.33333333333334,114.40370370370371,195.75,114.39625000000001C198.16666666666669,114.3887962962963,200.58333333333334,114.38134259259259,203.00000000000003,114.37388888888889C205.41666666666669,114.36643518518518,207.83333333333331,114.35898148148148,210.24999999999997,114.35152777777778C212.66666666666666,114.34407407407407,215.08333333333331,114.33662037037037,217.5,114.32916666666667C219.91666666666666,114.32171296296296,222.33333333333334,114.31425925925926,224.75,114.30680555555556C227.16666666666666,114.29935185185185,229.58333333333334,114.29189814814815,232,114.28444444444445C234.41666666666666,114.27699074074074,236.83333333333334,114.26953703703704,239.25,114.26208333333334C241.66666666666669,114.25462962962963,244.08333333333334,114.24717592592593,246.50000000000003,114.23972222222223C248.91666666666669,114.23226851851852,251.33333333333331,114.22481481481482,253.74999999999997,114.21736111111112C256.16666666666663,114.20990740740741,258.5833333333333,114.2024537037037,261,114.195C263.4166666666667,114.18754629629629,265.8333333333333,114.1800925925926,268.25,114.1726388888889C270.6666666666667,114.1651851851852,273.0833333333333,114.15773148148148,275.5,114.15027777777777C277.9166666666667,114.14282407407407,280.3333333333333,114.13537037037037,282.75,114.12791666666666C285.1666666666667,114.12046296296296,287.5833333333333,114.11300925925926,290,114.10555555555555C292.4166666666667,114.09810185185185,294.8333333333333,114.09064814814815,297.25,114.08319444444444C299.6666666666667,114.07574074074074,302.0833333333333,114.06828703703704,304.5,114.06083333333333C306.9166666666667,114.05337962962963,309.3333333333333,114.04592592592591,311.75,114.03847222222221C314.1666666666667,114.03101851851851,316.5833333333333,114.02356481481482,319,114.01611111111112C321.4166666666667,114.00865740740741,323.8333333333333,114.0012037037037,326.25,113.99374999999999C328.6666666666667,113.98629629629629,331.0833333333333,113.9788425925926,333.5,113.9713888888889C335.9166666666667,113.96393518518519,338.3333333333333,113.95648148148148,340.75,113.94902777777777C343.1666666666667,113.94157407407407,345.5833333333333,113.93412037037038,348,113.92666666666668C350.4166666666667,113.91921296296297,352.8333333333333,113.91175925925926,355.25,113.90430555555555C357.6666666666667,113.89685185185185,360.0833333333333,113.88939814814815,362.5,113.88194444444444C364.9166666666667,113.87449074074074,367.3333333333333,113.86703703703704,369.75,113.85958333333333C372.1666666666667,113.85212962962963,374.5833333333333,113.84467592592593,377,113.83722222222222C379.4166666666667,113.82976851851852,381.8333333333333,113.82231481481482,384.25,113.81486111111111C386.6666666666667,113.80740740740741,389.0833333333333,113.79995370370371,391.5,113.7925C393.9166666666667,113.7850462962963,396.33333333333337,113.7775925925926,398.75000000000006,113.7701388888889C401.16666666666674,113.76268518518519,403.58333333333337,113.75523148148149,406.00000000000006,113.74777777777778C408.4166666666667,113.74032407407408,410.8333333333333,113.73287037037036,413.24999999999994,113.72541666666666C415.66666666666663,113.71796296296296,418.08333333333326,113.71050925925925,420.49999999999994,113.70305555555555C422.91666666666663,113.69560185185185,425.3333333333333,113.68814814814814,427.75,113.68069444444444C430.1666666666667,113.67324074074074,432.5833333333333,113.66578703703703,435,113.65833333333333C437.4166666666667,113.65087962962963,439.8333333333333,113.64342592592592,442.25,113.63597222222222C444.6666666666667,113.62851851851852,447.0833333333333,113.62106481481482,449.5,113.61361111111111C451.9166666666667,113.60615740740741,454.3333333333333,113.5987037037037,456.75,113.59125C459.1666666666667,113.5837962962963,461.5833333333333,113.57634259259258,464,113.56888888888888C466.4166666666667,113.56143518518518,468.8333333333333,113.55398148148149,471.25,113.54652777777778C473.6666666666667,113.53907407407408,476.0833333333333,113.53162037037036,478.5,113.52416666666666C480.9166666666667,113.51671296296296,483.33333333333337,113.50925925925927,485.75000000000006,113.50180555555556C488.16666666666674,113.49435185185186,490.58333333333337,113.48689814814814,493.00000000000006,113.47944444444444C495.4166666666667,113.47199074074074,497.8333333333333,113.46453703703705,500.24999999999994,113.45708333333334C502.66666666666663,113.44962962962964,505.08333333333326,113.44217592592592,507.49999999999994,113.43472222222222C509.91666666666663,113.42726851851852,512.3333333333333,113.41981481481481,514.75,113.41236111111111C517.1666666666666,113.4049074074074,519.5833333333334,113.3974537037037,522,113.39C524.4166666666666,113.3825462962963,526.8333333333334,113.3750925925926,529.25,113.36763888888889C531.6666666666666,113.36018518518519,534.0833333333334,113.35273148148148,536.5,113.34527777777778C538.9166666666666,113.33782407407408,541.3333333333334,113.33037037037037,543.75,113.32291666666667C546.1666666666666,113.31546296296297,548.5833333333334,113.30800925925926,551,113.30055555555556C553.4166666666666,113.29310185185186,555.8333333333334,113.28564814814814,558.25,113.27819444444444C560.6666666666666,113.27074074074073,563.0833333333334,113.26328703703703,565.5,113.25583333333333C567.9166666666666,113.24837962962962,570.3333333333334,113.24092592592592,572.75,113.23347222222222C575.1666666666666,113.22601851851852,577.5833333333334,113.21856481481481,580,113.21111111111111C582.4166666666666,113.2036574074074,584.8333333333334,113.1962037037037,587.25,113.18875C589.6666666666666,113.1812962962963,592.0833333333334,113.17384259259259,594.5,113.16638888888889C596.9166666666666,113.15893518518519,599.3333333333334,113.15148148148148,601.75,113.14402777777778C604.1666666666666,113.13657407407408,606.5833333333334,113.12912037037037,609,113.12166666666667C611.4166666666666,113.11421296296297,613.8333333333334,113.10675925925925,616.25,113.09930555555555C618.6666666666666,113.09185185185184,621.0833333333334,113.08439814814815,623.5,113.07694444444445C625.9166666666666,113.06949074074075,628.3333333333334,113.06203703703703,630.75,113.05458333333333C633.1666666666666,113.04712962962962,635.5833333333334,113.03967592592593,638,113.03222222222223C640.4166666666666,113.02476851851853,642.8333333333334,113.01731481481481,645.25,113.0098611111111C647.6666666666666,113.0024074074074,650.0833333333334,112.99495370370371,652.5,112.98750000000001C654.9166666666666,112.98004629629631,657.3333333333334,112.97259259259259,659.75,112.96513888888889C662.1666666666666,112.95768518518518,664.5833333333334,112.95023148148148,667,112.94277777777778C669.4166666666666,112.93532407407407,671.8333333333334,112.92787037037037,674.25,112.92041666666667C676.6666666666666,112.91296296296296,679.0833333333334,112.90550925925926,681.5,112.89805555555556C683.9166666666666,112.89060185185186,686.3333333333334,112.88314814814815,688.75,112.87569444444445C691.1666666666666,112.86824074074075,693.5833333333334,112.86078703703703,696,112.85333333333332C698.4166666666666,112.84587962962962,700.8333333333334,112.83842592592593,703.25,112.83097222222223C705.6666666666666,112.82351851851853,708.0833333333334,112.81606481481481,710.5,112.8086111111111C712.9166666666666,112.8011574074074,715.3333333333334,112.7937037037037,717.75,112.78625C720.1666666666666,112.77879629629629,722.5833333333334,112.77134259259259,725,112.76388888888889C727.4166666666666,112.75643518518518,729.8333333333334,112.74898148148148,732.25,112.74152777777778C734.6666666666666,112.73407407407407,737.0833333333334,112.72662037037037,739.5,112.71916666666667C741.9166666666666,112.71171296296296,744.3333333333334,112.70425925925926,746.75,112.69680555555556C749.1666666666666,112.68935185185185,751.5833333333334,112.68189814814815,754,112.67444444444445C756.4166666666666,112.66699074074074,758.8333333333334,112.65953703703704,761.25,112.65208333333334C763.6666666666666,112.64462962962963,766.0833333333334,112.63717592592592,768.5,112.62972222222221C770.9166666666666,112.62226851851851,773.3333333333334,112.61481481481482,775.75,112.60736111111112C778.1666666666666,112.59990740740741,780.5833333333334,112.5924537037037,783,112.585C785.4166666666667,112.57754629629629,787.8333333333334,112.5700925925926,790.2500000000001,112.5626388888889C792.6666666666667,112.5551851851852,795.0833333333335,112.54773148148148,797.5000000000001,112.54027777777777C799.9166666666667,112.53282407407407,802.3333333333335,112.52537037037038,804.7500000000001,112.51791666666668C807.1666666666667,112.51046296296298,809.5833333333335,112.50300925925926,812.0000000000001,112.49555555555555C814.4166666666667,112.48810185185185,816.8333333333333,112.48064814814815,819.2499999999999,112.47319444444445C821.6666666666665,112.46574074074074,824.0833333333333,112.45828703703704,826.4999999999999,112.45083333333334C828.9166666666665,112.44337962962963,831.3333333333333,112.43592592592593,833.7499999999999,112.42847222222223C836.1666666666665,112.42101851851852,838.5833333333333,112.41356481481482,840.9999999999999,112.40611111111112C843.4166666666666,112.39865740740741,845.8333333333333,112.3912037037037,848.25,112.38374999999999C850.6666666666666,112.37629629629629,853.0833333333334,112.3688425925926,855.5,112.3613888888889C857.9166666666666,112.3539351851852,860.3333333333334,112.34648148148148,862.75,112.33902777777777C865.1666666666666,112.33157407407407,867.5833333333334,112.32412037037037,870,112.31666666666666C872.4166666666666,112.30921296296296,874.8333333333334,112.30175925925926,877.25,112.29430555555555C879.6666666666666,112.28685185185185,882.0833333333334,112.27939814814815,884.5,112.27194444444444C886.9166666666666,112.26449074074074,889.3333333333334,112.25703703703704,891.75,112.24958333333333C894.1666666666666,112.24212962962963,896.5833333333334,112.23467592592593,899,112.22722222222222C901.4166666666666,112.21976851851852,903.8333333333334,112.21231481481482,906.25,112.20486111111111C908.6666666666666,112.19740740740741,911.0833333333334,112.18995370370371,913.5,112.1825C915.9166666666666,112.1750462962963,918.3333333333334,112.16759259259258,920.75,112.16013888888888C923.1666666666666,112.15268518518518,925.5833333333334,112.14523148148149,928,112.13777777777779C930.4166666666666,112.13032407407408,932.8333333333334,112.12287037037036,935.25,112.11541666666666C937.6666666666666,112.10796296296296,940.0833333333334,112.10050925925927,942.5,112.09305555555557C944.9166666666666,112.08560185185186,947.3333333333334,112.07814814814814,949.75,112.07069444444444C952.1666666666666,112.06324074074074,954.5833333333334,112.05578703703705,957,112.04833333333335C959.4166666666666,112.04087962962964,961.8333333333334,112.03342592592593,964.25,112.02597222222222C966.6666666666667,112.01851851851852,969.0833333333334,112.01106481481482,971.5000000000001,112.00361111111111C973.9166666666667,111.99615740740741,976.3333333333335,111.9887037037037,978.7500000000001,111.98125C981.1666666666667,111.9737962962963,983.5833333333335,111.96634259259258,986.0000000000001,111.95888888888888C988.4166666666667,111.95143518518518,990.8333333333335,111.94398148148149,993.2500000000001,111.93652777777778C995.6666666666667,111.92907407407408,998.0833333333333,111.92162037037036,1000.4999999999999,111.91416666666666C1002.9166666666665,111.90671296296296,1005.3333333333333,111.89925925925927,1007.7499999999999,111.89180555555556C1010.1666666666665,111.88435185185186,1012.5833333333333,111.87689814814814,1014.9999999999999,111.86944444444444C1017.4166666666665,111.86199074074074,1019.8333333333333,111.85453703703703,1022.2499999999999,111.84708333333333C1024.6666666666665,111.83962962962963,1027.0833333333333,111.83217592592592,1029.5,111.82472222222222C1031.9166666666667,111.81726851851852,1034.3333333333333,111.80981481481481,1036.75,111.80236111111111C1039.1666666666667,111.79490740740741,1041.5833333333333,111.7874537037037,1044,111.78C1046.4166666666667,111.7725462962963,1048.8333333333333,111.7650925925926,1051.25,111.75763888888889C1053.6666666666667,111.75018518518519,1056.0833333333333,111.74273148148148,1058.5,111.73527777777778C1060.9166666666667,111.72782407407408,1063.3333333333333,111.72037037037038,1065.75,111.71291666666667C1068.1666666666667,111.70546296296297,1070.5833333333333,111.69800925925925,1073,111.69055555555555C1075.4166666666667,111.68310185185184,1077.8333333333333,111.67564814814816,1080.25,111.66819444444445C1082.6666666666667,111.66074074074075,1085.0833333333333,111.65328703703703,1087.5,111.64583333333333C1089.9166666666667,111.63837962962963,1092.3333333333333,111.63092592592594,1094.75,111.62347222222223C1097.1666666666667,111.61601851851853,1099.5833333333333,111.60856481481481,1102,111.60111111111111C1104.4166666666667,111.5936574074074,1106.8333333333333,111.58620370370372,1109.25,111.57875000000001C1111.6666666666667,111.57129629629631,1114.0833333333333,111.5638425925926,1116.5,111.55638888888889C1118.9166666666667,111.54893518518519,1121.3333333333333,111.54148148148147,1123.75,111.53402777777777C1126.1666666666667,111.52657407407406,1128.5833333333333,111.51912037037037,1131,111.51166666666667C1133.4166666666667,111.50421296296297,1135.8333333333333,111.49675925925925,1138.25,111.48930555555555C1140.6666666666667,111.48185185185184,1143.0833333333333,111.47439814814815,1145.5,111.46694444444445C1147.9166666666667,111.45949074074075,1150.3333333333333,111.45203703703703,1152.75,111.44458333333333C1155.1666666666667,111.43712962962962,1157.5833333333333,111.42967592592593,1160,111.42222222222223C1162.4166666666667,111.41476851851853,1164.8333333333333,111.40731481481481,1167.25,111.39986111111111C1169.6666666666667,111.3924074074074,1172.0833333333333,111.3849537037037,1174.5,111.3775C1176.9166666666667,111.3700462962963,1179.3333333333333,111.36259259259259,1181.75,111.35513888888889C1184.1666666666667,111.34768518518518,1186.5833333333333,111.34023148148148,1189,111.33277777777778C1191.4166666666667,111.32532407407408,1193.8333333333333,111.31787037037037,1196.25,111.31041666666667C1198.6666666666667,111.30296296296297,1201.0833333333333,111.29550925925926,1203.5,111.28805555555556C1205.9166666666667,111.28060185185186,1208.3333333333333,111.27314814814815,1210.75,111.26569444444445C1213.1666666666667,111.25824074074075,1215.5833333333333,111.25078703703704,1218,111.24333333333334C1220.4166666666667,111.23587962962964,1222.8333333333333,111.22842592592592,1225.25,111.22097222222222C1227.6666666666667,111.21351851851851,1230.0833333333333,111.20606481481482,1232.5,111.19861111111112C1234.9166666666667,111.19115740740742,1237.3333333333333,111.1837037037037,1239.75,111.17625C1242.1666666666667,111.16879629629629,1244.5833333333333,111.1613425925926,1247,111.1538888888889C1249.4166666666667,111.1464351851852,1251.8333333333333,111.13898148148148,1254.25,111.13152777777778C1256.6666666666667,111.12407407407407,1259.0833333333333,111.11662037037037,1261.5,111.10916666666667C1263.9166666666667,111.10171296296296,1266.3333333333333,111.09425925925926,1268.75,111.08680555555556C1271.1666666666667,111.07935185185185,1273.5833333333333,111.07189814814814,1276,111.06444444444443C1278.4166666666667,111.05699074074073,1280.8333333333333,111.04953703703704,1283.25,111.04208333333334C1285.6666666666667,111.03462962962963,1288.0833333333333,111.02717592592592,1290.5,111.01972222222221C1292.9166666666667,111.01226851851851,1295.3333333333333,111.00481481481482,1297.75,110.99736111111112C1300.1666666666667,110.98990740740742,1302.5833333333333,110.98990740740742,1305,110.975C1307.4166666666667,110.96009259259257,1309.8333333333333,108.67500000000001,1312.25,107.525C1314.6666666666667,106.375,1317.0833333333333,105.22500000000001,1319.5,104.075C1321.9166666666667,102.925,1324.3333333333333,101.775,1326.75,100.625C1329.1666666666667,99.475,1331.5833333333333,98.325,1334,97.175C1336.4166666666667,96.02499999999999,1338.8333333333333,94.875,1341.25,93.725C1343.6666666666667,92.57499999999999,1346.0833333333333,91.42500000000001,1348.5,90.275C1350.9166666666667,89.125,1353.3333333333333,87.97500000000001,1355.75,86.825C1358.1666666666667,85.675,1360.5833333333333,84.525,1363,83.375C1365.4166666666667,82.225,1367.8333333333333,81.07500000000002,1370.25,79.92500000000001C1372.6666666666667,78.775,1375.0833333333333,77.62500000000001,1377.5,76.47500000000001C1379.9166666666667,75.325,1382.3333333333333,74.17500000000001,1384.75,73.025C1387.1666666666667,71.875,1389.5833333333333,70.72500000000001,1392,69.575C1394.4166666666667,68.425,1396.8333333333333,67.275,1399.25,66.125C1401.6666666666667,64.975,1404.0833333333333,63.82499999999999,1406.5,62.67499999999999C1408.9166666666667,61.52499999999999,1411.3333333333333,60.375,1413.75,59.225C1416.1666666666667,58.075,1418.5833333333333,56.925,1421,55.775C1423.4166666666667,54.625,1425.8333333333333,53.474999999999994,1428.25,52.324999999999996C1430.6666666666667,51.175,1433.0833333333333,50.025000000000006,1435.5,48.87500000000001C1437.9166666666667,47.72500000000001,1440.3333333333333,46.575,1442.75,45.425000000000004C1445.1666666666667,44.275000000000006,1447.5833333333333,43.125,1450,41.975" fill="transparent" stroke-linecap="round" stroke="#B6509E" stroke-width="2"></path><path class="visx-linepath" d="M0,103.49999999997445C2.4166666666666665,103.49574074072584,4.833333333333334,103.49148148147722,7.25,103.48722222222221C9.666666666666666,103.4829629629672,12.083333333333334,103.4787037037037,14.5,103.47444444444444C16.916666666666668,103.47018518518519,19.333333333333332,103.46592592592592,21.75,103.46166666666666C24.166666666666668,103.4574074074074,26.583333333333332,103.45314814814814,29,103.44888888888889C31.416666666666668,103.44462962962963,33.833333333333336,103.44037037037037,36.25,103.43611111111112C38.666666666666664,103.43185185185186,41.083333333333336,103.42759259259259,43.5,103.42333333333333C45.91666666666667,103.41907407407408,48.333333333333336,103.41481481481482,50.75000000000001,103.41055555555556C53.16666666666667,103.4062962962963,55.583333333333336,103.40203703703703,58,103.39777777777778C60.416666666666664,103.39351851851852,62.833333333333336,103.38925925925926,65.25,103.385C67.66666666666667,103.38074074074075,70.08333333333333,103.37648148148148,72.5,103.37222222222222C74.91666666666667,103.36796296296296,77.33333333333333,103.3637037037037,79.75,103.35944444444445C82.16666666666667,103.35518518518519,84.58333333333333,103.35092592592594,87,103.34666666666668C89.41666666666667,103.34240740740742,91.83333333333333,103.33814814814815,94.25,103.3338888888889C96.66666666666667,103.32962962962964,99.08333333333334,103.32537037037038,101.50000000000001,103.32111111111112C103.91666666666667,103.31685185185187,106.33333333333334,103.3125925925926,108.75,103.30833333333334C111.16666666666667,103.30407407407408,113.58333333333333,103.29981481481482,116,103.29555555555557C118.41666666666667,103.29129629629631,120.83333333333334,103.28703703703704,123.25000000000001,103.28277777777778C125.66666666666667,103.27851851851852,128.08333333333334,103.27425925925925,130.5,103.27C132.91666666666666,103.26574074074074,135.33333333333334,103.26148148148148,137.75,103.25722222222223C140.16666666666666,103.25296296296297,142.58333333333334,103.2487037037037,145,103.24444444444444C147.41666666666666,103.24018518518518,149.83333333333334,103.23592592592591,152.25,103.23166666666665C154.66666666666666,103.2274074074074,157.08333333333334,103.22314814814814,159.5,103.21888888888888C161.91666666666666,103.21462962962963,164.33333333333334,103.21037037037037,166.75,103.20611111111111C169.16666666666666,103.20185185185186,171.58333333333334,103.19759259259258,174,103.19333333333333C176.41666666666666,103.18907407407407,178.83333333333334,103.18481481481481,181.25,103.18055555555556C183.66666666666666,103.1762962962963,186.08333333333334,103.17203703703703,188.5,103.16777777777777C190.91666666666666,103.16351851851852,193.33333333333334,103.15925925925926,195.75,103.155C198.16666666666669,103.15074074074074,200.58333333333334,103.14648148148147,203.00000000000003,103.14222222222222C205.41666666666669,103.13796296296296,207.83333333333331,103.1337037037037,210.24999999999997,103.12944444444445C212.66666666666666,103.12518518518519,215.08333333333331,103.12092592592593,217.5,103.11666666666667C219.91666666666666,103.11240740740742,222.33333333333334,103.10814814814815,224.75,103.10388888888889C227.16666666666666,103.09962962962963,229.58333333333334,103.09537037037036,232,103.0911111111111C234.41666666666666,103.08685185185185,236.83333333333334,103.08259259259259,239.25,103.07833333333333C241.66666666666669,103.07407407407408,244.08333333333334,103.06981481481482,246.50000000000003,103.06555555555556C248.91666666666669,103.0612962962963,251.33333333333331,103.05703703703703,253.74999999999997,103.05277777777778C256.16666666666663,103.04851851851852,258.5833333333333,103.04425925925926,261,103.04C263.4166666666667,103.03574074074075,265.8333333333333,103.03148148148148,268.25,103.02722222222222C270.6666666666667,103.02296296296296,273.0833333333333,103.01870370370371,275.5,103.01444444444445C277.9166666666667,103.0101851851852,280.3333333333333,103.00592592592592,282.75,103.00166666666667C285.1666666666667,102.99740740740741,287.5833333333333,102.99314814814815,290,102.9888888888889C292.4166666666667,102.98462962962964,294.8333333333333,102.98037037037037,297.25,102.97611111111111C299.6666666666667,102.97185185185185,302.0833333333333,102.9675925925926,304.5,102.96333333333334C306.9166666666667,102.95907407407408,309.3333333333333,102.95481481481481,311.75,102.95055555555555C314.1666666666667,102.9462962962963,316.5833333333333,102.94203703703703,319,102.93777777777777C321.4166666666667,102.93351851851851,323.8333333333333,102.92925925925925,326.25,102.925C328.6666666666667,102.92074074074074,331.0833333333333,102.91648148148147,333.5,102.91222222222221C335.9166666666667,102.90796296296296,338.3333333333333,102.9037037037037,340.75,102.89944444444444C343.1666666666667,102.89518518518518,345.5833333333333,102.89092592592593,348,102.88666666666667C350.4166666666667,102.88240740740741,352.8333333333333,102.87814814814814,355.25,102.87388888888889C357.6666666666667,102.86962962962963,360.0833333333333,102.86537037037037,362.5,102.86111111111111C364.9166666666667,102.85685185185186,367.3333333333333,102.85259259259259,369.75,102.84833333333333C372.1666666666667,102.84407407407407,374.5833333333333,102.83981481481482,377,102.83555555555556C379.4166666666667,102.8312962962963,381.8333333333333,102.82703703703703,384.25,102.82277777777777C386.6666666666667,102.81851851851852,389.0833333333333,102.81425925925926,391.5,102.81C393.9166666666667,102.80574074074075,396.33333333333337,102.80148148148149,398.75000000000006,102.79722222222223C401.16666666666674,102.79296296296297,403.58333333333337,102.7887037037037,406.00000000000006,102.78444444444445C408.4166666666667,102.78018518518519,410.8333333333333,102.77592592592592,413.24999999999994,102.77166666666666C415.66666666666663,102.7674074074074,418.08333333333326,102.76314814814815,420.49999999999994,102.75888888888889C422.91666666666663,102.75462962962963,425.3333333333333,102.75037037037038,427.75,102.74611111111112C430.1666666666667,102.74185185185186,432.5833333333333,102.73759259259259,435,102.73333333333333C437.4166666666667,102.72907407407408,439.8333333333333,102.72481481481482,442.25,102.72055555555556C444.6666666666667,102.7162962962963,447.0833333333333,102.71203703703704,449.5,102.70777777777778C451.9166666666667,102.70351851851852,454.3333333333333,102.69925925925926,456.75,102.69500000000001C459.1666666666667,102.69074074074075,461.5833333333333,102.68648148148148,464,102.68222222222222C466.4166666666667,102.67796296296297,468.8333333333333,102.67370370370371,471.25,102.66944444444445C473.6666666666667,102.6651851851852,476.0833333333333,102.66092592592592,478.5,102.65666666666667C480.9166666666667,102.65240740740741,483.33333333333337,102.64814814814814,485.75000000000006,102.64388888888888C488.16666666666674,102.63962962962962,490.58333333333337,102.63537037037035,493.00000000000006,102.6311111111111C495.4166666666667,102.62685185185184,497.8333333333333,102.62259259259258,500.24999999999994,102.61833333333333C502.66666666666663,102.61407407407407,505.08333333333326,102.60981481481481,507.49999999999994,102.60555555555555C509.91666666666663,102.6012962962963,512.3333333333333,102.59703703703703,514.75,102.59277777777777C517.1666666666666,102.58851851851851,519.5833333333334,102.58425925925926,522,102.58C524.4166666666666,102.57574074074074,526.8333333333334,102.57148148148147,529.25,102.56722222222221C531.6666666666666,102.56296296296296,534.0833333333334,102.5587037037037,536.5,102.55444444444444C538.9166666666666,102.55018518518519,541.3333333333334,102.54592592592591,543.75,102.54166666666666C546.1666666666666,102.5374074074074,548.5833333333334,102.53314814814814,551,102.52888888888889C553.4166666666666,102.52462962962963,555.8333333333334,102.52037037037037,558.25,102.51611111111112C560.6666666666666,102.51185185185186,563.0833333333334,102.50759259259259,565.5,102.50333333333333C567.9166666666666,102.49907407407407,570.3333333333334,102.49481481481482,572.75,102.49055555555556C575.1666666666666,102.4862962962963,577.5833333333334,102.48203703703705,580,102.47777777777779C582.4166666666666,102.47351851851853,584.8333333333334,102.46925925925926,587.25,102.465C589.6666666666666,102.46074074074075,592.0833333333334,102.45648148148148,594.5,102.45222222222222C596.9166666666666,102.44796296296296,599.3333333333334,102.4437037037037,601.75,102.43944444444445C604.1666666666666,102.43518518518519,606.5833333333334,102.43092592592593,609,102.42666666666668C611.4166666666666,102.42240740740742,613.8333333333334,102.41814814814815,616.25,102.41388888888889C618.6666666666666,102.40962962962963,621.0833333333334,102.40537037037038,623.5,102.40111111111112C625.9166666666666,102.39685185185186,628.3333333333334,102.39259259259259,630.75,102.38833333333334C633.1666666666666,102.38407407407408,635.5833333333334,102.37981481481482,638,102.37555555555556C640.4166666666666,102.37129629629631,642.8333333333334,102.36703703703704,645.25,102.36277777777778C647.6666666666666,102.35851851851852,650.0833333333334,102.35425925925927,652.5,102.35000000000001C654.9166666666666,102.34574074074075,657.3333333333334,102.34148148148148,659.75,102.33722222222222C662.1666666666666,102.33296296296297,664.5833333333334,102.3287037037037,667,102.32444444444444C669.4166666666666,102.32018518518518,671.8333333333334,102.31592592592591,674.25,102.31166666666665C676.6666666666666,102.3074074074074,679.0833333333334,102.30314814814814,681.5,102.29888888888888C683.9166666666666,102.29462962962963,686.3333333333334,102.29037037037037,688.75,102.28611111111111C691.1666666666666,102.28185185185185,693.5833333333334,102.27759259259258,696,102.27333333333333C698.4166666666666,102.26907407407407,700.8333333333334,102.26481481481481,703.25,102.26055555555556C705.6666666666666,102.2562962962963,708.0833333333334,102.25203703703703,710.5,102.24777777777777C712.9166666666666,102.24351851851851,715.3333333333334,102.23925925925926,717.75,102.235C720.1666666666666,102.23074074074074,722.5833333333334,102.22648148148147,725,102.22222222222221C727.4166666666666,102.21796296296296,729.8333333333334,102.2137037037037,732.25,102.20944444444444C734.6666666666666,102.20518518518519,737.0833333333334,102.20092592592593,739.5,102.19666666666667C741.9166666666666,102.19240740740742,744.3333333333334,102.18814814814814,746.75,102.18388888888889C749.1666666666666,102.17962962962963,751.5833333333334,102.17537037037036,754,102.1711111111111C756.4166666666666,102.16685185185185,758.8333333333334,102.16259259259259,761.25,102.15833333333333C763.6666666666666,102.15407407407407,766.0833333333334,102.14981481481482,768.5,102.14555555555556C770.9166666666666,102.1412962962963,773.3333333333334,102.13703703703703,775.75,102.13277777777778C778.1666666666666,102.12851851851852,780.5833333333334,102.12425925925926,783,102.12C785.4166666666667,102.11574074074075,787.8333333333334,102.11148148148149,790.2500000000001,102.10722222222223C792.6666666666667,102.10296296296298,795.0833333333335,102.0987037037037,797.5000000000001,102.09444444444445C799.9166666666667,102.09018518518519,802.3333333333335,102.08592592592593,804.7500000000001,102.08166666666668C807.1666666666667,102.07740740740742,809.5833333333335,102.07314814814815,812.0000000000001,102.06888888888889C814.4166666666667,102.06462962962964,816.8333333333333,102.06037037037038,819.2499999999999,102.05611111111112C821.6666666666665,102.05185185185186,824.0833333333333,102.0475925925926,826.4999999999999,102.04333333333334C828.9166666666665,102.03907407407408,831.3333333333333,102.03481481481481,833.7499999999999,102.03055555555555C836.1666666666665,102.0262962962963,838.5833333333333,102.02203703703704,840.9999999999999,102.01777777777778C843.4166666666666,102.01351851851852,845.8333333333333,102.00925925925925,848.25,102.005C850.6666666666666,102.00074074074074,853.0833333333334,101.99648148148147,855.5,101.99222222222221C857.9166666666666,101.98796296296295,860.3333333333334,101.9837037037037,862.75,101.97944444444444C865.1666666666666,101.97518518518518,867.5833333333334,101.97092592592593,870,101.96666666666667C872.4166666666666,101.96240740740741,874.8333333333334,101.95814814814814,877.25,101.95388888888888C879.6666666666666,101.94962962962963,882.0833333333334,101.94537037037037,884.5,101.94111111111111C886.9166666666666,101.93685185185186,889.3333333333334,101.93259259259258,891.75,101.92833333333333C894.1666666666666,101.92407407407407,896.5833333333334,101.91981481481481,899,101.91555555555556C901.4166666666666,101.9112962962963,903.8333333333334,101.90703703703703,906.25,101.90277777777777C908.6666666666666,101.89851851851851,911.0833333333334,101.89425925925926,913.5,101.89C915.9166666666666,101.88574074074074,918.3333333333334,101.88148148148149,920.75,101.87722222222223C923.1666666666666,101.87296296296297,925.5833333333334,101.8687037037037,928,101.86444444444444C930.4166666666666,101.86018518518519,932.8333333333334,101.85592592592592,935.25,101.85166666666666C937.6666666666666,101.8474074074074,940.0833333333334,101.84314814814815,942.5,101.83888888888889C944.9166666666666,101.83462962962963,947.3333333333334,101.83037037037037,949.75,101.82611111111112C952.1666666666666,101.82185185185186,954.5833333333334,101.81759259259259,957,101.81333333333333C959.4166666666666,101.80907407407408,961.8333333333334,101.80481481481482,964.25,101.80055555555556C966.6666666666667,101.7962962962963,969.0833333333334,101.79203703703703,971.5000000000001,101.78777777777778C973.9166666666667,101.78351851851852,976.3333333333335,101.77925925925926,978.7500000000001,101.775C981.1666666666667,101.77074074074075,983.5833333333335,101.76648148148148,986.0000000000001,101.76222222222222C988.4166666666667,101.75796296296296,990.8333333333335,101.7537037037037,993.2500000000001,101.74944444444445C995.6666666666667,101.74518518518519,998.0833333333333,101.74092592592594,1000.4999999999999,101.73666666666668C1002.9166666666665,101.73240740740742,1005.3333333333333,101.72814814814815,1007.7499999999999,101.7238888888889C1010.1666666666665,101.71962962962964,1012.5833333333333,101.71537037037037,1014.9999999999999,101.71111111111111C1017.4166666666665,101.70685185185185,1019.8333333333333,101.70259259259258,1022.2499999999999,101.69833333333332C1024.6666666666665,101.69407407407407,1027.0833333333333,101.68981481481481,1029.5,101.68555555555555C1031.9166666666667,101.6812962962963,1034.3333333333333,101.67703703703702,1036.75,101.67277777777777C1039.1666666666667,101.66851851851851,1041.5833333333333,101.66425925925925,1044,101.66C1046.4166666666667,101.65574074074074,1048.8333333333333,101.65148148148148,1051.25,101.64722222222223C1053.6666666666667,101.64296296296297,1056.0833333333333,101.6387037037037,1058.5,101.63444444444444C1060.9166666666667,101.63018518518518,1063.3333333333333,101.62592592592593,1065.75,101.62166666666667C1068.1666666666667,101.61740740740741,1070.5833333333333,101.61314814814814,1073,101.60888888888888C1075.4166666666667,101.60462962962963,1077.8333333333333,101.60037037037037,1080.25,101.59611111111111C1082.6666666666667,101.59185185185186,1085.0833333333333,101.58759259259259,1087.5,101.58333333333333C1089.9166666666667,101.57907407407407,1092.3333333333333,101.57481481481481,1094.75,101.57055555555556C1097.1666666666667,101.5662962962963,1099.5833333333333,101.56203703703704,1102,101.55777777777779C1104.4166666666667,101.55351851851853,1106.8333333333333,101.54925925925926,1109.25,101.545C1111.6666666666667,101.54074074074074,1114.0833333333333,101.53648148148147,1116.5,101.53222222222222C1118.9166666666667,101.52796296296296,1121.3333333333333,101.5237037037037,1123.75,101.51944444444445C1126.1666666666667,101.51518518518519,1128.5833333333333,101.51092592592593,1131,101.50666666666667C1133.4166666666667,101.50240740740742,1135.8333333333333,101.49814814814815,1138.25,101.49388888888889C1140.6666666666667,101.48962962962963,1143.0833333333333,101.48537037037038,1145.5,101.48111111111112C1147.9166666666667,101.47685185185186,1150.3333333333333,101.47259259259259,1152.75,101.46833333333333C1155.1666666666667,101.46407407407408,1157.5833333333333,101.45981481481482,1160,101.45555555555556C1162.4166666666667,101.4512962962963,1164.8333333333333,101.44703703703703,1167.25,101.44277777777778C1169.6666666666667,101.43851851851852,1172.0833333333333,101.43425925925926,1174.5,101.43C1176.9166666666667,101.42574074074075,1179.3333333333333,101.42148148148148,1181.75,101.41722222222222C1184.1666666666667,101.41296296296296,1186.5833333333333,101.4087037037037,1189,101.40444444444444C1191.4166666666667,101.40018518518518,1193.8333333333333,101.39592592592592,1196.25,101.39166666666667C1198.6666666666667,101.38740740740741,1201.0833333333333,101.38314814814814,1203.5,101.37888888888888C1205.9166666666667,101.37462962962962,1208.3333333333333,101.37037037037037,1210.75,101.36611111111111C1213.1666666666667,101.36185185185185,1215.5833333333333,101.35759259259258,1218,101.35333333333332C1220.4166666666667,101.34907407407407,1222.8333333333333,101.34481481481481,1225.25,101.34055555555555C1227.6666666666667,101.3362962962963,1230.0833333333333,101.33203703703703,1232.5,101.32777777777777C1234.9166666666667,101.32351851851851,1237.3333333333333,101.31925925925925,1239.75,101.315C1242.1666666666667,101.31074074074074,1244.5833333333333,101.30648148148147,1247,101.30222222222221C1249.4166666666667,101.29796296296296,1251.8333333333333,101.2937037037037,1254.25,101.28944444444444C1256.6666666666667,101.28518518518518,1259.0833333333333,101.28092592592593,1261.5,101.27666666666667C1263.9166666666667,101.27240740740741,1266.3333333333333,101.26814814814814,1268.75,101.26388888888889C1271.1666666666667,101.25962962962963,1273.5833333333333,101.25537037037037,1276,101.25111111111111C1278.4166666666667,101.24685185185186,1280.8333333333333,101.24259259259259,1283.25,101.23833333333333C1285.6666666666667,101.23407407407407,1288.0833333333333,101.22981481481482,1290.5,101.22555555555556C1292.9166666666667,101.2212962962963,1295.3333333333333,101.21703703703703,1297.75,101.21277777777777C1300.1666666666667,101.20851851851852,1302.5833333333333,101.20851851851852,1305,101.2C1307.4166666666667,101.19148148148149,1309.8333333333333,98.325,1312.25,96.8875C1314.6666666666667,95.45,1317.0833333333333,94.01249999999999,1319.5,92.57499999999999C1321.9166666666667,91.13749999999999,1324.3333333333333,89.69999999999999,1326.75,88.26249999999999C1329.1666666666667,86.82499999999999,1331.5833333333333,85.3875,1334,83.95C1336.4166666666667,82.5125,1338.8333333333333,81.075,1341.25,79.6375C1343.6666666666667,78.2,1346.0833333333333,76.7625,1348.5,75.325C1350.9166666666667,73.8875,1353.3333333333333,72.44999999999999,1355.75,71.01249999999999C1358.1666666666667,69.57499999999999,1360.5833333333333,68.1375,1363,66.7C1365.4166666666667,65.2625,1367.8333333333333,63.824999999999996,1370.25,62.387499999999996C1372.6666666666667,60.949999999999996,1375.0833333333333,59.5125,1377.5,58.075C1379.9166666666667,56.6375,1382.3333333333333,55.2,1384.75,53.7625C1387.1666666666667,52.325,1389.5833333333333,50.8875,1392,49.45C1394.4166666666667,48.0125,1396.8333333333333,46.574999999999996,1399.25,45.137499999999996C1401.6666666666667,43.699999999999996,1404.0833333333333,42.262499999999996,1406.5,40.824999999999996C1408.9166666666667,39.387499999999996,1411.3333333333333,37.95,1413.75,36.5125C1416.1666666666667,35.075,1418.5833333333333,33.6375,1421,32.2C1423.4166666666667,30.762500000000003,1425.8333333333333,29.325000000000006,1428.25,27.887500000000006C1430.6666666666667,26.450000000000006,1433.0833333333333,25.012499999999996,1435.5,23.574999999999996C1437.9166666666667,22.137499999999996,1440.3333333333333,20.7,1442.75,19.2625C1445.1666666666667,17.825,1447.5833333333333,16.3875,1450,14.950000000000001" fill="transparent" stroke-linecap="round" stroke="#E7C6DF" stroke-width="2"></path><g class="visx-group visx-axis visx-axis-bottom" transform="translate(0, 115)"><g class="visx-group visx-axis-tick" transform="translate(0, 0)"><line class="visx-line" x1="0" y1="0" x2="0" y2="8" fill="transparent" shape-rendering="crispEdges" stroke="#000" stroke-width="0" stroke-linecap="square"></line><svg x="0" y="0" font-size="10" style="overflow:visible"><text transform="" x="0" y="18" fill="#000" font-size="10" text-anchor="middle"><tspan x="0" dy="0em">0%</tspan></text></svg></g><g class="visx-group visx-axis-tick" transform="translate(0, 0)"><line class="visx-line" x1="362.5" y1="0" x2="362.5" y2="8" fill="transparent" shape-rendering="crispEdges" stroke="#000" stroke-width="0" stroke-linecap="square"></line><svg x="0" y="0" font-size="10" style="overflow:visible"><text transform="" x="362.5" y="18" fill="#000" font-size="10" text-anchor="middle"><tspan x="362.5" dy="0em">25%</tspan></text></svg></g><g class="visx-group visx-axis-tick" transform="translate(0, 0)"><line class="visx-line" x1="725" y1="0" x2="725" y2="8" fill="transparent" shape-rendering="crispEdges" stroke="#000" stroke-width="0" stroke-linecap="square"></line><svg x="0" y="0" font-size="10" style="overflow:visible"><text transform="" x="725" y="18" fill="#000" font-size="10" text-anchor="middle"><tspan x="725" dy="0em">50%</tspan></text></svg></g><g class="visx-group visx-axis-tick" transform="translate(0, 0)"><line class="visx-line" x1="1087.5" y1="0" x2="1087.5" y2="8" fill="transparent" shape-rendering="crispEdges" stroke="#000" stroke-width="0" stroke-linecap="square"></line><svg x="0" y="0" font-size="10" style="overflow:visible"><text transform="" x="1087.5" y="18" fill="#000" font-size="10" text-anchor="middle"><tspan x="1087.5" dy="0em">75%</tspan></text></svg></g><g class="visx-group visx-axis-tick" transform="translate(0, 0)"><line class="visx-line" x1="1450" y1="0" x2="1450" y2="8" fill="transparent" shape-rendering="crispEdges" stroke="#000" stroke-width="0" stroke-linecap="square"></line><svg x="0" y="0" font-size="10" style="overflow:visible"><text transform="" x="1450" y="18" fill="#000" font-size="10" text-anchor="middle"><tspan x="1450" dy="0em">100%</tspan></text></svg></g><line class="visx-line visx-axis-line" x1="0.5" y1="0" x2="1450.5" y2="0" fill="transparent" shape-rendering="crispEdges" stroke="#222" stroke-width="0"></line></g><g class="visx-group visx-axis visx-axis-left" transform="translate(0, 0)"><g class="visx-group visx-axis-tick" transform="translate(0, 0)"><line class="visx-line" x1="0" y1="115" x2="-8" y2="115" fill="transparent" shape-rendering="crispEdges" stroke="#222" stroke-width="0" stroke-linecap="square"></line><svg x="-30" y="0" font-size="8" style="overflow:visible"><text transform="" x="-8" y="115" fill="#000" font-size="8" text-anchor="start"><tspan x="-8" dy="0em">0%</tspan></text></svg></g><g class="visx-group visx-axis-tick" transform="translate(0, 0)"><line class="visx-line" x1="0" y1="57.5" x2="-8" y2="57.5" fill="transparent" shape-rendering="crispEdges" stroke="#222" stroke-width="0" stroke-linecap="square"></line><svg x="-30" y="0" font-size="8" style="overflow:visible"><text transform="" x="-8" y="57.5" fill="#000" font-size="8" text-anchor="start"><tspan x="-8" dy="0em">50%</tspan></text></svg></g><g class="visx-group visx-axis-tick" transform="translate(0, 0)"><line class="visx-line" x1="0" y1="0" x2="-8" y2="0" fill="transparent" shape-rendering="crispEdges" stroke="#222" stroke-width="0" stroke-linecap="square"></line><svg x="-30" y="0" font-size="8" style="overflow:visible"><text transform="" x="-8" y="0" fill="#000" font-size="8" text-anchor="start"><tspan x="-8" dy="0em">100%</tspan></text></svg></g><line class="visx-line visx-axis-line" x1="0" y1="115.5" x2="0" y2="0.5" fill="transparent" shape-rendering="crispEdges" stroke="#222" stroke-width="0"></line></g><rect class="visx-bar" width="1450" height="115" fill="transparent"></rect><line class="visx-line" x1="1305" y1="28" x2="1305" y2="115" fill="transparent" shape-rendering="crispEdges" stroke="#0062D2" stroke-width="1" pointer-events="none" stroke-dasharray="5,2"></line><svg x="0" y="0" font-size="10px" style="overflow:visible"><text transform="" x="1305" y="20" font-size="10px" fill="#fff" stroke="#fff" stroke-width="0.8em" text-anchor="middle"><tspan x="1305" dy="0.355em">Optimal 90%</tspan></text></svg><svg x="0" y="0" font-size="10px" style="overflow:visible"><text transform="" x="1305" y="20" font-size="10px" fill="#62677B" text-anchor="middle"><tspan x="1305" dy="0.355em">Optimal 90%</tspan></text></svg></g></svg>