<?xml version="1.0"?><svg xmlns="http://www.w3.org/2000/svg" xmlns:xlink= "http://www.w3.org/1999/xlink" style="background: white;" width="1500" height="300"> <g style="color: black; font-size: 13px; font-family: sans-serif; transform: translate(18px, 25px);"><g><circle r="3" cx="-6" cy="-5" style="fill: #1AD4B3" /><text>Borrow APR, variable</text></g><g style="transform: translateX(150px);"><circle r="3" cx="-6" cy="-5" style="fill: #101423" /><text>Borrow APR, stable</text></g></g><g class="visx-group" transform="translate(45, 50)"><g class="visx-group visx-rows" transform="translate(0, 0)"><line class="visx-line" x1="0" y1="155" x2="1425" y2="155" fill="transparent" shape-rendering="crispEdges" stroke="#F2F0F9" stroke-width="1" pointer-events="none"></line><line class="visx-line" x1="0" y1="116.25" x2="1425" y2="116.25" fill="transparent" shape-rendering="crispEdges" stroke="#F2F0F9" stroke-width="1" pointer-events="none"></line><line class="visx-line" x1="0" y1="77.5" x2="1425" y2="77.5" fill="transparent" shape-rendering="crispEdges" stroke="#F2F0F9" stroke-width="1" pointer-events="none"></line><line class="visx-line" x1="0" y1="38.75" x2="1425" y2="38.75" fill="transparent" shape-rendering="crispEdges" stroke="#F2F0F9" stroke-width="1" pointer-events="none"></line><line class="visx-line" x1="0" y1="0" x2="1425" y2="0" fill="transparent" shape-rendering="crispEdges" stroke="#F2F0F9" stroke-width="1" pointer-events="none"></line></g><path class="visx-linepath" d="M0,154.99999999982776C2.375,154.97129629619582,4.75,154.9425925925639,7.125,154.9138888888889C9.5,154.88518518521389,11.875,154.8564814814815,14.25,154.82777777777778C16.625,154.79907407407407,19,154.7703703703704,21.375,154.74166666666667C23.75,154.71296296296296,26.125,154.68425925925928,28.5,154.65555555555557C30.875,154.62685185185185,33.25,154.59814814814817,35.625,154.56944444444446C38,154.54074074074074,40.375,154.51203703703706,42.75,154.48333333333335C45.125,154.45462962962964,47.50000000000001,154.42592592592592,49.87500000000001,154.3972222222222C52.25000000000001,154.3685185185185,54.625,154.33981481481482,57,154.3111111111111C59.375,154.2824074074074,61.75,154.2537037037037,64.125,154.225C66.5,154.19629629629628,68.875,154.1675925925926,71.25,154.13888888888889C73.625,154.11018518518517,76,154.0814814814815,78.375,154.05277777777778C80.75,154.02407407407406,83.125,153.99537037037038,85.5,153.96666666666667C87.875,153.93796296296296,90.25,153.90925925925927,92.625,153.88055555555556C95,153.85185185185185,97.37500000000001,153.82314814814816,99.75000000000001,153.79444444444445C102.12500000000001,153.76574074074074,104.5,153.73703703703706,106.875,153.70833333333334C109.25,153.67962962962963,111.625,153.65092592592595,114,153.62222222222223C116.375,153.59351851851852,118.75000000000001,153.5648148148148,121.12500000000001,153.5361111111111C123.50000000000001,153.50740740740738,125.875,153.4787037037037,128.25,153.45C130.625,153.42129629629628,133,153.3925925925926,135.375,153.36388888888888C137.75,153.33518518518517,140.125,153.30648148148148,142.5,153.27777777777777C144.875,153.24907407407406,147.25,153.22037037037038,149.625,153.19166666666666C152,153.16296296296295,154.375,153.13425925925927,156.75,153.10555555555555C159.125,153.07685185185184,161.5,153.04814814814816,163.875,153.01944444444445C166.25,152.99074074074073,168.625,152.96203703703705,171,152.93333333333334C173.375,152.90462962962962,175.75,152.87592592592594,178.125,152.84722222222223C180.5,152.81851851851852,182.875,152.7898148148148,185.25,152.7611111111111C187.625,152.73240740740738,190,152.7037037037037,192.375,152.675C194.75,152.6462962962963,197.12500000000003,152.61759259259262,199.50000000000003,152.5888888888889C201.875,152.5601851851852,204.25,152.5314814814815,206.62499999999997,152.5027777777778C208.99999999999997,152.47407407407408,211.375,152.44537037037037,213.75,152.41666666666666C216.125,152.38796296296294,218.5,152.35925925925926,220.875,152.33055555555555C223.25,152.30185185185184,225.625,152.27314814814815,228,152.24444444444444C230.375,152.21574074074073,232.75,152.18703703703704,235.125,152.15833333333333C237.5,152.12962962962962,239.87500000000003,152.10092592592594,242.25000000000003,152.07222222222222C244.625,152.0435185185185,247,152.01481481481483,249.37499999999997,151.98611111111111C251.74999999999997,151.9574074074074,254.125,151.92870370370372,256.5,151.9C258.875,151.8712962962963,261.25,151.8425925925926,263.625,151.8138888888889C266,151.78518518518518,268.375,151.7564814814815,270.75,151.7277777777778C273.125,151.69907407407408,275.5,151.6703703703704,277.875,151.64166666666668C280.25,151.61296296296297,282.625,151.58425925925926,285,151.55555555555554C287.375,151.52685185185183,289.75,151.49814814814815,292.125,151.46944444444443C294.5,151.44074074074072,296.875,151.41203703703704,299.25,151.38333333333333C301.625,151.3546296296296,304,151.32592592592593,306.375,151.29722222222222C308.75,151.2685185185185,311.125,151.23981481481482,313.5,151.2111111111111C315.875,151.1824074074074,318.25,151.1537037037037,320.625,151.125C323,151.0962962962963,325.375,151.0675925925926,327.75,151.0388888888889C330.125,151.01018518518518,332.5,150.9814814814815,334.875,150.95277777777778C337.25,150.92407407407407,339.625,150.8953703703704,342,150.86666666666667C344.375,150.83796296296296,346.75,150.80925925925925,349.125,150.78055555555554C351.5,150.75185185185182,353.875,150.72314814814814,356.25,150.69444444444443C358.625,150.66574074074072,361,150.63703703703703,363.375,150.60833333333335C365.75,150.57962962962966,368.125,150.55092592592595,370.5,150.52222222222224C372.875,150.49351851851853,375.25,150.46481481481482,377.625,150.4361111111111C380,150.4074074074074,382.375,150.3787037037037,384.75,150.35C387.125,150.32129629629628,389.50000000000006,150.2925925925926,391.87500000000006,150.26388888888889C394.25000000000006,150.23518518518517,396.62500000000006,150.2064814814815,399.00000000000006,150.17777777777778C401.375,150.14907407407406,403.75,150.12037037037038,406.12499999999994,150.09166666666667C408.49999999999994,150.06296296296296,410.87499999999994,150.03425925925927,413.24999999999994,150.00555555555556C415.62499999999994,149.97685185185185,418,149.94814814814816,420.375,149.91944444444445C422.75,149.89074074074074,425.125,149.86203703703706,427.5,149.83333333333334C429.875,149.80462962962963,432.25,149.77592592592595,434.625,149.74722222222223C437,149.71851851851852,439.375,149.6898148148148,441.75,149.6611111111111C444.125,149.63240740740738,446.5,149.6037037037037,448.875,149.575C451.25,149.54629629629628,453.625,149.5175925925926,456,149.48888888888888C458.375,149.46018518518517,460.75,149.43148148148148,463.125,149.40277777777777C465.5,149.37407407407406,467.875,149.34537037037038,470.25,149.31666666666666C472.625,149.28796296296295,475.00000000000006,149.25925925925927,477.37500000000006,149.23055555555555C479.75000000000006,149.20185185185184,482.12500000000006,149.17314814814816,484.50000000000006,149.14444444444445C486.875,149.11574074074073,489.25,149.08703703703705,491.62499999999994,149.05833333333334C493.99999999999994,149.02962962962962,496.37499999999994,149.00092592592594,498.74999999999994,148.97222222222223C501.12499999999994,148.94351851851852,503.5,148.91481481481483,505.875,148.88611111111112C508.25,148.8574074074074,510.625,148.8287037037037,513,148.79999999999998C515.375,148.77129629629627,517.75,148.7425925925926,520.125,148.71388888888887C522.5,148.68518518518516,524.875,148.65648148148148,527.25,148.62777777777777C529.625,148.59907407407405,532,148.57037037037037,534.375,148.54166666666669C536.75,148.512962962963,539.125,148.4842592592593,541.5,148.45555555555558C543.875,148.42685185185186,546.25,148.39814814814815,548.625,148.36944444444444C551,148.34074074074073,553.375,148.31203703703704,555.75,148.28333333333333C558.125,148.25462962962962,560.5,148.22592592592594,562.875,148.19722222222222C565.25,148.1685185185185,567.625,148.13981481481483,570,148.11111111111111C572.375,148.0824074074074,574.75,148.05370370370372,577.125,148.025C579.5,147.9962962962963,581.875,147.9675925925926,584.25,147.9388888888889C586.625,147.91018518518518,589,147.8814814814815,591.375,147.8527777777778C593.75,147.82407407407408,596.125,147.7953703703704,598.5,147.76666666666668C600.875,147.73796296296297,603.25,147.70925925925926,605.625,147.68055555555554C608,147.65185185185183,610.375,147.62314814814815,612.75,147.59444444444443C615.125,147.56574074074072,617.5,147.53703703703704,619.875,147.50833333333333C622.25,147.4796296296296,624.625,147.45092592592593,627,147.42222222222222C629.375,147.3935185185185,631.75,147.36481481481482,634.125,147.3361111111111C636.5,147.3074074074074,638.875,147.3074074074074,641.25,147.25C643.625,147.1925925925926,646,146.54545454545453,648.375,146.1931818181818C650.75,145.8409090909091,653.125,145.48863636363637,655.5,145.13636363636365C657.875,144.78409090909093,660.25,144.4318181818182,662.625,144.07954545454547C665,143.72727272727275,667.375,143.375,669.75,143.02272727272728C672.125,142.67045454545456,674.5,142.3181818181818,676.875,141.9659090909091C679.25,141.61363636363637,681.625,141.26136363636363,684,140.9090909090909C686.375,140.5568181818182,688.75,140.20454545454544,691.125,139.85227272727272C693.5,139.5,695.875,139.14772727272728,698.25,138.79545454545456C700.625,138.44318181818184,703,138.0909090909091,705.375,137.73863636363637C707.75,137.38636363636365,710.125,137.0340909090909,712.5,136.6818181818182C714.875,136.32954545454547,717.25,135.97727272727272,719.625,135.625C722,135.27272727272728,724.375,134.92045454545453,726.75,134.5681818181818C729.125,134.2159090909091,731.5,133.86363636363635,733.875,133.51136363636363C736.25,133.1590909090909,738.625,132.80681818181816,741,132.45454545454544C743.375,132.10227272727272,745.75,131.74999999999997,748.125,131.39772727272725C750.5,131.04545454545453,752.875,130.6931818181818,755.25,130.3409090909091C757.625,129.98863636363637,760,129.63636363636363,762.375,129.2840909090909C764.75,128.9318181818182,767.125,128.57954545454544,769.5,128.22727272727272C771.875,127.87499999999999,774.2500000000001,127.52272727272728,776.6250000000001,127.17045454545455C779.0000000000001,126.81818181818183,781.3750000000001,126.4659090909091,783.7500000000001,126.11363636363637C786.1250000000001,125.76136363636365,788.5000000000001,125.40909090909092,790.8750000000001,125.05681818181819C793.2500000000001,124.70454545454545,795.6250000000001,124.35227272727273,798.0000000000001,124C800.375,123.64772727272728,802.75,123.29545454545455,805.1249999999999,122.94318181818183C807.4999999999999,122.5909090909091,809.8749999999999,122.23863636363637,812.2499999999999,121.88636363636364C814.6249999999999,121.5340909090909,816.9999999999999,121.18181818181819,819.3749999999999,120.82954545454545C821.7499999999999,120.47727272727272,824.1249999999999,120.12499999999999,826.4999999999999,119.77272727272727C828.8749999999999,119.42045454545453,831.25,119.06818181818181,833.625,118.71590909090908C836,118.36363636363636,838.375,118.01136363636363,840.75,117.6590909090909C843.125,117.30681818181819,845.5,116.95454545454547,847.875,116.60227272727273C850.25,116.25,852.625,115.89772727272728,855,115.54545454545455C857.375,115.19318181818181,859.75,114.8409090909091,862.125,114.48863636363636C864.5,114.13636363636363,866.875,113.7840909090909,869.25,113.43181818181819C871.625,113.07954545454547,874,112.72727272727273,876.375,112.375C878.75,112.02272727272727,881.125,111.67045454545453,883.5,111.31818181818181C885.875,110.9659090909091,888.25,110.61363636363636,890.625,110.26136363636364C893,109.90909090909092,895.375,109.55681818181819,897.75,109.20454545454547C900.125,108.85227272727275,902.5,108.50000000000001,904.875,108.14772727272728C907.25,107.79545454545455,909.625,107.44318181818183,912,107.0909090909091C914.375,106.73863636363636,916.75,106.38636363636364,919.125,106.0340909090909C921.5,105.68181818181817,923.875,105.32954545454544,926.25,104.97727272727272C928.625,104.625,931,104.27272727272728,933.375,103.92045454545456C935.75,103.56818181818184,938.125,103.2159090909091,940.5,102.86363636363636C942.875,102.51136363636363,945.25,102.1590909090909,947.625,101.80681818181819C950,101.45454545454545,952.3750000000001,101.10227272727272,954.7500000000001,100.74999999999999C957.1250000000001,100.39772727272727,959.5000000000001,100.04545454545453,961.8750000000001,99.69318181818181C964.2500000000001,99.3409090909091,966.6250000000001,98.98863636363637,969.0000000000001,98.63636363636364C971.3750000000001,98.2840909090909,973.7500000000001,97.93181818181819,976.1250000000001,97.57954545454545C978.5,97.22727272727273,980.875,96.87499999999999,983.2499999999999,96.52272727272727C985.6249999999999,96.17045454545453,987.9999999999999,95.81818181818181,990.3749999999999,95.4659090909091C992.7499999999999,95.11363636363637,995.1249999999999,94.76136363636365,997.4999999999999,94.40909090909092C999.8749999999999,94.05681818181819,1002.2499999999999,93.70454545454545,1004.6249999999999,93.35227272727273C1006.9999999999999,93,1009.375,92.64772727272728,1011.75,92.29545454545455C1014.125,91.94318181818183,1016.5,91.5909090909091,1018.875,91.23863636363636C1021.25,90.88636363636363,1023.625,90.5340909090909,1026,90.18181818181817C1028.375,89.82954545454544,1030.75,89.47727272727272,1033.125,89.125C1035.5,88.77272727272728,1037.875,88.42045454545453,1040.25,88.06818181818181C1042.625,87.7159090909091,1045,87.36363636363637,1047.375,87.01136363636364C1049.75,86.6590909090909,1052.125,86.30681818181817,1054.5,85.95454545454544C1056.875,85.6022727272727,1059.25,85.24999999999999,1061.625,84.89772727272727C1064,84.54545454545455,1066.375,84.19318181818181,1068.75,83.8409090909091C1071.125,83.48863636363637,1073.5,83.13636363636364,1075.875,82.7840909090909C1078.25,82.43181818181817,1080.625,82.07954545454544,1083,81.72727272727272C1085.375,81.375,1087.75,81.02272727272727,1090.125,80.67045454545455C1092.5,80.31818181818183,1094.875,79.9659090909091,1097.25,79.61363636363637C1099.625,79.26136363636365,1102,78.90909090909092,1104.375,78.55681818181819C1106.75,78.20454545454545,1109.125,77.85227272727273,1111.5,77.5C1113.875,77.14772727272727,1116.25,76.79545454545453,1118.625,76.44318181818181C1121,76.0909090909091,1123.375,75.73863636363637,1125.75,75.38636363636365C1128.125,75.03409090909093,1130.5,74.68181818181819,1132.875,74.32954545454545C1135.25,73.97727272727272,1137.625,73.625,1140,73.27272727272728C1142.375,72.92045454545456,1144.75,72.56818181818183,1147.125,72.2159090909091C1149.5,71.86363636363636,1151.875,71.51136363636363,1154.25,71.1590909090909C1156.625,70.80681818181819,1159,70.45454545454547,1161.375,70.10227272727273C1163.75,69.75,1166.125,69.39772727272728,1168.5,69.04545454545455C1170.875,68.69318181818181,1173.25,68.3409090909091,1175.625,67.98863636363637C1178,67.63636363636365,1180.375,67.28409090909092,1182.75,66.93181818181819C1185.125,66.57954545454545,1187.5,66.22727272727272,1189.875,65.875C1192.25,65.52272727272728,1194.625,65.17045454545456,1197,64.81818181818183C1199.375,64.4659090909091,1201.75,64.11363636363637,1204.125,63.76136363636364C1206.5,63.409090909090914,1208.875,63.05681818181818,1211.25,62.70454545454545C1213.625,62.35227272727273,1216,61.99999999999999,1218.375,61.647727272727266C1220.75,61.29545454545454,1223.125,60.94318181818181,1225.5,60.590909090909086C1227.875,60.23863636363636,1230.25,59.886363636363626,1232.625,59.5340909090909C1235,59.18181818181817,1237.375,58.829545454545446,1239.75,58.47727272727272C1242.125,58.12499999999999,1244.5,57.77272727272726,1246.875,57.42045454545453C1249.25,57.068181818181806,1251.625,56.71590909090909,1254,56.36363636363637C1256.375,56.01136363636364,1258.75,55.65909090909091,1261.125,55.30681818181818C1263.5,54.95454545454545,1265.875,54.602272727272734,1268.25,54.25C1270.625,53.897727272727266,1273,53.54545454545452,1275.375,53.19318181818179C1277.75,52.840909090909065,1280.125,52.488636363636374,1282.5,52.13636363636365C1284.875,51.78409090909092,1287.25,51.43181818181818,1289.625,51.079545454545446C1292,50.72727272727271,1294.375,50.374999999999986,1296.75,50.02272727272726C1299.125,49.67045454545453,1301.5,49.31818181818182,1303.875,48.96590909090909C1306.25,48.61363636363637,1308.625,48.26136363636363,1311,47.90909090909091C1313.375,47.55681818181818,1315.75,47.20454545454545,1318.125,46.85227272727273C1320.5,46.5,1322.875,46.14772727272728,1325.25,45.795454545454554C1327.625,45.44318181818183,1330,45.09090909090911,1332.375,44.738636363636374C1334.75,44.38636363636364,1337.125,44.0340909090909,1339.5,43.68181818181817C1341.875,43.329545454545446,1344.25,42.97727272727275,1346.625,42.62500000000002C1349,42.272727272727295,1351.375,41.920454545454554,1353.75,41.56818181818182C1356.125,41.215909090909086,1358.5,40.86363636363636,1360.875,40.51136363636363C1363.25,40.15909090909091,1365.625,39.806818181818194,1368,39.45454545454547C1370.375,39.10227272727274,1372.75,38.75000000000001,1375.125,38.39772727272728C1377.5,38.045454545454554,1379.875,37.69318181818183,1382.25,37.3409090909091C1384.625,36.988636363636374,1387,36.63636363636364,1389.375,36.284090909090914C1391.75,35.93181818181819,1394.125,35.57954545454546,1396.5,35.227272727272734C1398.875,34.87500000000001,1401.25,34.52272727272727,1403.625,34.17045454545455C1406,33.81818181818182,1408.375,33.465909090909086,1410.75,33.11363636363636C1413.125,32.76136363636363,1415.5,32.40909090909091,1417.875,32.05681818181818C1420.25,31.704545454545453,1422.625,31.352272727272723,1425,30.999999999999993" fill="transparent" stroke-linecap="round" stroke="#1AD4B3" stroke-width="2"></path><g class="visx-group visx-axis visx-axis-bottom" transform="translate(0, 155)"><g class="visx-group visx-axis-tick" transform="translate(0, 0)"><line class="visx-line" x1="0" y1="0" x2="0" y2="8" fill="transparent" shape-rendering="crispEdges" stroke="#F2F0F9" stroke-width="1" stroke-linecap="square"></line><svg x="0" y="0" font-size="11" style="overflow:visible"><text transform="" x="0" y="19" fill="#1B2030" font-size="11" text-anchor="middle"><tspan x="0" dy="0em">0%</tspan></text></svg></g><g class="visx-group visx-axis-tick" transform="translate(0, 0)"><line class="visx-line" x1="356.25" y1="0" x2="356.25" y2="8" fill="transparent" shape-rendering="crispEdges" stroke="#F2F0F9" stroke-width="1" stroke-linecap="square"></line><svg x="0" y="0" font-size="11" style="overflow:visible"><text transform="" x="356.25" y="19" fill="#1B2030" font-size="11" text-anchor="middle"><tspan x="356.25" dy="0em">25%</tspan></text></svg></g><g class="visx-group visx-axis-tick" transform="translate(0, 0)"><line class="visx-line" x1="712.5" y1="0" x2="712.5" y2="8" fill="transparent" shape-rendering="crispEdges" stroke="#F2F0F9" stroke-width="1" stroke-linecap="square"></line><svg x="0" y="0" font-size="11" style="overflow:visible"><text transform="" x="712.5" y="19" fill="#1B2030" font-size="11" text-anchor="middle"><tspan x="712.5" dy="0em">50%</tspan></text></svg></g><g class="visx-group visx-axis-tick" transform="translate(0, 0)"><line class="visx-line" x1="1068.75" y1="0" x2="1068.75" y2="8" fill="transparent" shape-rendering="crispEdges" stroke="#F2F0F9" stroke-width="1" stroke-linecap="square"></line><svg x="0" y="0" font-size="11" style="overflow:visible"><text transform="" x="1068.75" y="19" fill="#1B2030" font-size="11" text-anchor="middle"><tspan x="1068.75" dy="0em">75%</tspan></text></svg></g><g class="visx-group visx-axis-tick" transform="translate(0, 0)"><line class="visx-line" x1="1425" y1="0" x2="1425" y2="8" fill="transparent" shape-rendering="crispEdges" stroke="#F2F0F9" stroke-width="1" stroke-linecap="square"></line><svg x="0" y="0" font-size="11" style="overflow:visible"><text transform="" x="1425" y="19" fill="#1B2030" font-size="11" text-anchor="middle"><tspan x="1425" dy="0em">100%</tspan></text></svg></g></g><g class="visx-group visx-axis visx-axis-left" transform="translate(0, 0)"><g class="visx-group visx-axis-tick" transform="translate(0, 0)"><line class="visx-line" x1="0" y1="155" x2="-8" y2="155" fill="transparent" shape-rendering="crispEdges" stroke="#F2F0F9" stroke-width="1" stroke-linecap="square"></line><svg x="-30" y="0" font-size="11" style="overflow:visible"><text transform="" x="-8" y="155" fill="#1B2030" font-size="11" text-anchor="start"><tspan x="-8" dy="0em">0%</tspan></text></svg></g><g class="visx-group visx-axis-tick" transform="translate(0, 0)"><line class="visx-line" x1="0" y1="116.25" x2="-8" y2="116.25" fill="transparent" shape-rendering="crispEdges" stroke="#F2F0F9" stroke-width="1" stroke-linecap="square"></line><svg x="-30" y="0" font-size="11" style="overflow:visible"><text transform="" x="-8" y="116.25" fill="#1B2030" font-size="11" text-anchor="start"><tspan x="-8" dy="0em">20%</tspan></text></svg></g><g class="visx-group visx-axis-tick" transform="translate(0, 0)"><line class="visx-line" x1="0" y1="77.5" x2="-8" y2="77.5" fill="transparent" shape-rendering="crispEdges" stroke="#F2F0F9" stroke-width="1" stroke-linecap="square"></line><svg x="-30" y="0" font-size="11" style="overflow:visible"><text transform="" x="-8" y="77.5" fill="#1B2030" font-size="11" text-anchor="start"><tspan x="-8" dy="0em">40%</tspan></text></svg></g><g class="visx-group visx-axis-tick" transform="translate(0, 0)"><line class="visx-line" x1="0" y1="38.75" x2="-8" y2="38.75" fill="transparent" shape-rendering="crispEdges" stroke="#F2F0F9" stroke-width="1" stroke-linecap="square"></line><svg x="-30" y="0" font-size="11" style="overflow:visible"><text transform="" x="-8" y="38.75" fill="#1B2030" font-size="11" text-anchor="start"><tspan x="-8" dy="0em">60%</tspan></text></svg></g><g class="visx-group visx-axis-tick" transform="translate(0, 0)"><line class="visx-line" x1="0" y1="0" x2="-8" y2="0" fill="transparent" shape-rendering="crispEdges" stroke="#F2F0F9" stroke-width="1" stroke-linecap="square"></line><svg x="-30" y="0" font-size="11" style="overflow:visible"><text transform="" x="-8" y="0" fill="#1B2030" font-size="11" text-anchor="start"><tspan x="-8" dy="0em">80%</tspan></text></svg></g><line class="visx-line visx-axis-line" x1="0" y1="155.5" x2="0" y2="0.5" fill="transparent" shape-rendering="crispEdges" stroke="#F2F0F9" stroke-width="1"></line></g><rect class="visx-bar" width="1425" height="155" fill="transparent"></rect><line class="visx-line" x1="641.25" y1="58" x2="641.25" y2="155" fill="transparent" shape-rendering="crispEdges" stroke="#CDC8E1" stroke-width="1" pointer-events="none" stroke-dasharray="5"></line><svg x="0" y="0" font-size="11px" style="overflow:visible"><text transform="" x="641.25" y="50" font-size="11px" fill="#555069" stroke="#FFFFFF" stroke-width="1px" text-anchor="middle"><tspan x="641.25" dy="0.355em">Optimal utilization 45%</tspan></text></svg><svg x="0" y="0" font-size="11px" style="overflow:visible"><text transform="" x="641.25" y="50" font-size="11px" fill="#CDC8E1" text-anchor="middle"><tspan x="641.25" dy="0.355em">Optimal utilization 45%</tspan></text></svg></g></svg>