<?xml version="1.0"?><svg xmlns="http://www.w3.org/2000/svg" xmlns:xlink= "http://www.w3.org/1999/xlink" style="background: white;" width="1500" height="185"> <g style="color: black; font-size: 13px; font-family: sans-serif; transform: translate(18px, 25px);"><g><circle r="3" cx="-6" cy="-5" style="fill: #B6509E" /><text>Borrow APR, variable</text></g><g style="transform: translateX(150px);"><circle r="3" cx="-6" cy="-5" style="fill: rgb(231, 198, 223)" /><text>Borrow APR, stable</text></g><g style="transform: translateX(290px);"><circle r="3" cx="-6" cy="-5" style="fill: rgb(0, 98, 210)" /><text>Utilization Rate</text></g></g><g class="visx-group" transform="translate(40, 50)"><g class="visx-group visx-rows" transform="translate(0, 0)"><line class="visx-line" x1="0" y1="115" x2="1450" y2="115" fill="transparent" shape-rendering="crispEdges" stroke="#000" stroke-width="1" stroke-dasharray="3,3" pointer-events="none"></line><line class="visx-line" x1="0" y1="67.08333333333333" x2="1450" y2="67.08333333333333" fill="transparent" shape-rendering="crispEdges" stroke="#000" stroke-width="1" stroke-dasharray="3,3" pointer-events="none"></line><line class="visx-line" x1="0" y1="19.16666666666666" x2="1450" y2="19.16666666666666" fill="transparent" shape-rendering="crispEdges" stroke="#000" stroke-width="1" stroke-dasharray="3,3" pointer-events="none"></line></g><path class="visx-linepath" d="M0,114.99999999941666C2.4166666666666665,114.9027777774375,4.833333333333334,114.80555555545834,7.25,114.70833333333334C9.666666666666666,114.61111111120834,12.083333333333334,114.51388888888889,14.5,114.41666666666666C16.916666666666668,114.31944444444443,19.333333333333332,114.22222222222221,21.75,114.125C24.166666666666668,114.02777777777779,26.583333333333332,113.93055555555557,29,113.83333333333334C31.416666666666668,113.73611111111111,33.833333333333336,113.6388888888889,36.25,113.54166666666667C38.666666666666664,113.44444444444444,41.083333333333336,113.34722222222223,43.5,113.25C45.91666666666667,113.15277777777777,48.333333333333336,113.05555555555556,50.75000000000001,112.95833333333333C53.16666666666667,112.86111111111111,55.583333333333336,112.76388888888889,58,112.66666666666667C60.416666666666664,112.56944444444444,62.833333333333336,112.47222222222223,65.25,112.375C67.66666666666667,112.27777777777777,70.08333333333333,112.18055555555554,72.5,112.08333333333333C74.91666666666667,111.98611111111111,77.33333333333333,111.88888888888889,79.75,111.79166666666667C82.16666666666667,111.69444444444446,84.58333333333333,111.59722222222223,87,111.5C89.41666666666667,111.40277777777777,91.83333333333333,111.30555555555554,94.25,111.20833333333333C96.66666666666667,111.1111111111111,99.08333333333334,111.0138888888889,101.50000000000001,110.91666666666667C103.91666666666667,110.81944444444446,106.33333333333334,110.72222222222223,108.75,110.625C111.16666666666667,110.52777777777777,113.58333333333333,110.43055555555554,116,110.33333333333333C118.41666666666667,110.2361111111111,120.83333333333334,110.1388888888889,123.25000000000001,110.04166666666667C125.66666666666667,109.94444444444446,128.08333333333334,109.84722222222223,130.5,109.75C132.91666666666666,109.65277777777777,135.33333333333334,109.55555555555554,137.75,109.45833333333333C140.16666666666666,109.36111111111111,142.58333333333334,109.26388888888889,145,109.16666666666667C147.41666666666666,109.06944444444446,149.83333333333334,108.97222222222223,152.25,108.875C154.66666666666666,108.77777777777777,157.08333333333334,108.68055555555554,159.5,108.58333333333333C161.91666666666666,108.48611111111111,164.33333333333334,108.38888888888889,166.75,108.29166666666667C169.16666666666666,108.19444444444446,171.58333333333334,108.09722222222223,174,108C176.41666666666666,107.90277777777777,178.83333333333334,107.80555555555557,181.25,107.70833333333334C183.66666666666666,107.61111111111111,186.08333333333334,107.51388888888889,188.5,107.41666666666666C190.91666666666666,107.31944444444443,193.33333333333334,107.22222222222221,195.75,107.125C198.16666666666669,107.02777777777779,200.58333333333334,106.93055555555557,203.00000000000003,106.83333333333334C205.41666666666669,106.73611111111111,207.83333333333331,106.63888888888889,210.24999999999997,106.54166666666666C212.66666666666666,106.44444444444443,215.08333333333331,106.34722222222221,217.5,106.25C219.91666666666666,106.15277777777779,222.33333333333334,106.05555555555557,224.75,105.95833333333334C227.16666666666666,105.86111111111111,229.58333333333334,105.76388888888889,232,105.66666666666666C234.41666666666666,105.56944444444443,236.83333333333334,105.47222222222221,239.25,105.375C241.66666666666669,105.27777777777777,244.08333333333334,105.18055555555556,246.50000000000003,105.08333333333333C248.91666666666669,104.9861111111111,251.33333333333331,104.88888888888887,253.74999999999997,104.79166666666666C256.16666666666663,104.69444444444443,258.5833333333333,104.59722222222223,261,104.5C263.4166666666667,104.40277777777779,265.8333333333333,104.30555555555554,268.25,104.20833333333333C270.6666666666667,104.11111111111111,273.0833333333333,104.01388888888889,275.5,103.91666666666667C277.9166666666667,103.81944444444446,280.3333333333333,103.72222222222223,282.75,103.625C285.1666666666667,103.52777777777777,287.5833333333333,103.43055555555554,290,103.33333333333333C292.4166666666667,103.23611111111111,294.8333333333333,103.13888888888889,297.25,103.04166666666667C299.6666666666667,102.94444444444446,302.0833333333333,102.84722222222223,304.5,102.75C306.9166666666667,102.65277777777777,309.3333333333333,102.55555555555554,311.75,102.45833333333333C314.1666666666667,102.36111111111111,316.5833333333333,102.26388888888889,319,102.16666666666667C321.4166666666667,102.06944444444446,323.8333333333333,101.97222222222223,326.25,101.875C328.6666666666667,101.77777777777777,331.0833333333333,101.68055555555554,333.5,101.58333333333333C335.9166666666667,101.48611111111111,338.3333333333333,101.38888888888889,340.75,101.29166666666667C343.1666666666667,101.19444444444446,345.5833333333333,101.09722222222223,348,101C350.4166666666667,100.90277777777777,352.8333333333333,100.80555555555554,355.25,100.70833333333333C357.6666666666667,100.61111111111111,360.0833333333333,100.51388888888889,362.5,100.41666666666667C364.9166666666667,100.31944444444446,367.3333333333333,100.22222222222223,369.75,100.125C372.1666666666667,100.02777777777777,374.5833333333333,99.93055555555554,377,99.83333333333333C379.4166666666667,99.73611111111111,381.8333333333333,99.63888888888889,384.25,99.54166666666667C386.6666666666667,99.44444444444446,389.0833333333333,99.34722222222223,391.5,99.25C393.9166666666667,99.15277777777777,396.33333333333337,99.05555555555556,398.75000000000006,98.95833333333333C401.16666666666674,98.8611111111111,403.58333333333337,98.76388888888889,406.00000000000006,98.66666666666666C408.4166666666667,98.56944444444444,410.8333333333333,98.47222222222221,413.24999999999994,98.375C415.66666666666663,98.27777777777779,418.08333333333326,98.18055555555556,420.49999999999994,98.08333333333334C422.91666666666663,97.98611111111111,425.3333333333333,97.8888888888889,427.75,97.79166666666667C430.1666666666667,97.69444444444444,432.5833333333333,97.59722222222223,435,97.5C437.4166666666667,97.40277777777777,439.8333333333333,97.30555555555557,442.25,97.20833333333334C444.6666666666667,97.11111111111111,447.0833333333333,97.0138888888889,449.5,96.91666666666667C451.9166666666667,96.81944444444444,454.3333333333333,96.72222222222223,456.75,96.625C459.1666666666667,96.52777777777777,461.5833333333333,96.43055555555554,464,96.33333333333333C466.4166666666667,96.23611111111111,468.8333333333333,96.13888888888889,471.25,96.04166666666667C473.6666666666667,95.94444444444446,476.0833333333333,95.84722222222223,478.5,95.75C480.9166666666667,95.65277777777777,483.33333333333337,95.55555555555556,485.75000000000006,95.45833333333333C488.16666666666674,95.36111111111111,490.58333333333337,95.2638888888889,493.00000000000006,95.16666666666667C495.4166666666667,95.06944444444446,497.8333333333333,94.97222222222223,500.24999999999994,94.875C502.66666666666663,94.77777777777777,505.08333333333326,94.68055555555554,507.49999999999994,94.58333333333333C509.91666666666663,94.4861111111111,512.3333333333333,94.3888888888889,514.75,94.29166666666667C517.1666666666666,94.19444444444446,519.5833333333334,94.09722222222223,522,94C524.4166666666666,93.90277777777777,526.8333333333334,93.80555555555554,529.25,93.70833333333333C531.6666666666666,93.61111111111111,534.0833333333334,93.51388888888889,536.5,93.41666666666667C538.9166666666666,93.31944444444446,541.3333333333334,93.22222222222223,543.75,93.125C546.1666666666666,93.02777777777777,548.5833333333334,92.93055555555554,551,92.83333333333333C553.4166666666666,92.73611111111111,555.8333333333334,92.63888888888889,558.25,92.54166666666667C560.6666666666666,92.44444444444446,563.0833333333334,92.34722222222223,565.5,92.25C567.9166666666666,92.15277777777777,570.3333333333334,92.05555555555554,572.75,91.95833333333333C575.1666666666666,91.86111111111111,577.5833333333334,91.76388888888889,580,91.66666666666667C582.4166666666666,91.56944444444446,584.8333333333334,91.47222222222223,587.25,91.375C589.6666666666666,91.27777777777777,592.0833333333334,91.18055555555556,594.5,91.08333333333333C596.9166666666666,90.9861111111111,599.3333333333334,90.88888888888889,601.75,90.79166666666666C604.1666666666666,90.69444444444443,606.5833333333334,90.59722222222221,609,90.5C611.4166666666666,90.40277777777779,613.8333333333334,90.30555555555557,616.25,90.20833333333334C618.6666666666666,90.11111111111111,621.0833333333334,90.01388888888889,623.5,89.91666666666666C625.9166666666666,89.81944444444443,628.3333333333334,89.72222222222221,630.75,89.625C633.1666666666666,89.52777777777779,635.5833333333334,89.43055555555557,638,89.33333333333334C640.4166666666666,89.23611111111111,642.8333333333334,89.13888888888889,645.25,89.04166666666666C647.6666666666666,88.94444444444443,650.0833333333334,88.84722222222223,652.5,88.75C654.9166666666666,88.65277777777777,657.3333333333334,88.55555555555556,659.75,88.45833333333333C662.1666666666666,88.3611111111111,664.5833333333334,88.26388888888889,667,88.16666666666666C669.4166666666666,88.06944444444443,671.8333333333334,87.97222222222223,674.25,87.875C676.6666666666666,87.77777777777777,679.0833333333334,87.68055555555554,681.5,87.58333333333333C683.9166666666666,87.48611111111111,686.3333333333334,87.38888888888889,688.75,87.29166666666667C691.1666666666666,87.19444444444446,693.5833333333334,87.09722222222223,696,87C698.4166666666666,86.90277777777777,700.8333333333334,86.80555555555556,703.25,86.70833333333333C705.6666666666666,86.6111111111111,708.0833333333334,86.51388888888889,710.5,86.41666666666666C712.9166666666666,86.31944444444443,715.3333333333334,86.22222222222223,717.75,86.125C720.1666666666666,86.02777777777777,722.5833333333334,85.93055555555554,725,85.83333333333333C727.4166666666666,85.73611111111111,729.8333333333334,85.63888888888889,732.25,85.54166666666667C734.6666666666666,85.44444444444446,737.0833333333334,85.34722222222223,739.5,85.25C741.9166666666666,85.15277777777777,744.3333333333334,85.05555555555554,746.75,84.95833333333333C749.1666666666666,84.86111111111111,751.5833333333334,84.76388888888889,754,84.66666666666667C756.4166666666666,84.56944444444446,758.8333333333334,84.47222222222223,761.25,84.375C763.6666666666666,84.27777777777777,766.0833333333334,84.18055555555554,768.5,84.08333333333333C770.9166666666666,83.98611111111111,773.3333333333334,83.88888888888891,775.75,83.79166666666669C778.1666666666666,83.69444444444446,780.5833333333334,83.59722222222223,783,83.5C785.4166666666667,83.40277777777777,787.8333333333334,83.30555555555556,790.2500000000001,83.20833333333333C792.6666666666667,83.11111111111111,795.0833333333335,83.01388888888889,797.5000000000001,82.91666666666667C799.9166666666667,82.81944444444446,802.3333333333335,82.72222222222223,804.7500000000001,82.625C807.1666666666667,82.52777777777777,809.5833333333335,82.43055555555556,812.0000000000001,82.33333333333333C814.4166666666667,82.23611111111111,816.8333333333333,82.13888888888889,819.2499999999999,82.04166666666667C821.6666666666665,81.94444444444444,824.0833333333333,81.84722222222223,826.4999999999999,81.75C828.9166666666665,81.65277777777777,831.3333333333333,81.55555555555554,833.7499999999999,81.45833333333333C836.1666666666665,81.36111111111111,838.5833333333333,81.26388888888889,840.9999999999999,81.16666666666667C843.4166666666666,81.06944444444444,845.8333333333333,80.97222222222223,848.25,80.875C850.6666666666666,80.77777777777779,853.0833333333334,80.68055555555557,855.5,80.58333333333334C857.9166666666666,80.48611111111111,860.3333333333334,80.3888888888889,862.75,80.29166666666667C865.1666666666666,80.19444444444444,867.5833333333334,80.09722222222223,870,80C872.4166666666666,79.90277777777777,874.8333333333334,79.80555555555554,877.25,79.70833333333333C879.6666666666666,79.61111111111111,882.0833333333334,79.51388888888889,884.5,79.41666666666667C886.9166666666666,79.31944444444446,889.3333333333334,79.22222222222223,891.75,79.125C894.1666666666666,79.02777777777777,896.5833333333334,78.93055555555554,899,78.83333333333333C901.4166666666666,78.73611111111111,903.8333333333334,78.63888888888889,906.25,78.54166666666667C908.6666666666666,78.44444444444446,911.0833333333334,78.34722222222223,913.5,78.25C915.9166666666666,78.15277777777777,918.3333333333334,78.05555555555554,920.75,77.95833333333331C923.1666666666666,77.86111111111109,925.5833333333334,77.76388888888889,928,77.66666666666667C930.4166666666666,77.56944444444446,932.8333333333334,77.47222222222223,935.25,77.375C937.6666666666666,77.27777777777777,940.0833333333334,77.18055555555557,942.5,77.08333333333334C944.9166666666666,76.98611111111111,947.3333333333334,76.8888888888889,949.75,76.79166666666667C952.1666666666666,76.69444444444444,954.5833333333334,76.59722222222223,957,76.5C959.4166666666666,76.40277777777777,961.8333333333334,76.30555555555554,964.25,76.20833333333333C966.6666666666667,76.1111111111111,969.0833333333334,76.0138888888889,971.5000000000001,75.91666666666667C973.9166666666667,75.81944444444444,976.3333333333335,75.7222222222222,978.7500000000001,75.62499999999999C981.1666666666667,75.52777777777777,983.5833333333335,75.43055555555556,986.0000000000001,75.33333333333334C988.4166666666667,75.23611111111113,990.8333333333335,75.1388888888889,993.2500000000001,75.04166666666667C995.6666666666667,74.94444444444444,998.0833333333333,74.94444444444444,1000.4999999999999,74.75C1002.9166666666665,74.55555555555554,1005.3333333333333,74.13172043010752,1007.7499999999999,73.82258064516128C1010.1666666666665,73.51344086021504,1012.5833333333333,73.20430107526883,1014.9999999999999,72.89516129032259C1017.4166666666665,72.58602150537635,1019.8333333333333,72.2768817204301,1022.2499999999999,71.96774193548386C1024.6666666666665,71.65860215053762,1027.0833333333333,71.3494623655914,1029.5,71.04032258064517C1031.9166666666667,70.73118279569894,1034.3333333333333,70.42204301075269,1036.75,70.11290322580645C1039.1666666666667,69.80376344086021,1041.5833333333333,69.49462365591398,1044,69.18548387096774C1046.4166666666667,68.8763440860215,1048.8333333333333,68.56720430107526,1051.25,68.25806451612902C1053.6666666666667,67.94892473118279,1056.0833333333333,67.63978494623656,1058.5,67.33064516129032C1060.9166666666667,67.02150537634408,1063.3333333333333,66.71236559139786,1065.75,66.40322580645162C1068.1666666666667,66.09408602150538,1070.5833333333333,65.78494623655914,1073,65.4758064516129C1075.4166666666667,65.16666666666666,1077.8333333333333,64.85752688172043,1080.25,64.54838709677419C1082.6666666666667,64.23924731182795,1085.0833333333333,63.93010752688171,1087.5,63.62096774193548C1089.9166666666667,63.31182795698925,1092.3333333333333,63.00268817204301,1094.75,62.693548387096776C1097.1666666666667,62.38440860215054,1099.5833333333333,62.0752688172043,1102,61.766129032258064C1104.4166666666667,61.45698924731183,1106.8333333333333,61.14784946236559,1109.25,60.83870967741936C1111.6666666666667,60.52956989247313,1114.0833333333333,60.22043010752689,1116.5,59.91129032258065C1118.9166666666667,59.60215053763441,1121.3333333333333,59.29301075268817,1123.75,58.983870967741936C1126.1666666666667,58.6747311827957,1128.5833333333333,58.36559139784947,1131,58.05645161290323C1133.4166666666667,57.74731182795699,1135.8333333333333,57.43817204301074,1138.25,57.129032258064505C1140.6666666666667,56.81989247311827,1143.0833333333333,56.51075268817205,1145.5,56.201612903225815C1147.9166666666667,55.89247311827958,1150.3333333333333,55.58333333333334,1152.75,55.2741935483871C1155.1666666666667,54.965053763440864,1157.5833333333333,54.65591397849462,1160,54.346774193548384C1162.4166666666667,54.03763440860215,1164.8333333333333,53.72849462365592,1167.25,53.41935483870969C1169.6666666666667,53.110215053763454,1172.0833333333333,52.801075268817215,1174.5,52.491935483870975C1176.9166666666667,52.182795698924735,1179.3333333333333,51.873655913978496,1181.75,51.564516129032256C1184.1666666666667,51.25537634408602,1186.5833333333333,50.94623655913978,1189,50.637096774193544C1191.4166666666667,50.32795698924731,1193.8333333333333,50.01881720430107,1196.25,49.70967741935484C1198.6666666666667,49.40053763440861,1201.0833333333333,49.09139784946236,1203.5,48.78225806451613C1205.9166666666667,48.473118279569896,1208.3333333333333,48.163978494623656,1210.75,47.85483870967742C1213.1666666666667,47.54569892473119,1215.5833333333333,47.23655913978495,1218,46.92741935483871C1220.4166666666667,46.61827956989247,1222.8333333333333,46.30913978494623,1225.25,46C1227.6666666666667,45.69086021505377,1230.0833333333333,45.38172043010753,1232.5,45.072580645161295C1234.9166666666667,44.76344086021506,1237.3333333333333,44.45430107526882,1239.75,44.145161290322584C1242.1666666666667,43.836021505376344,1244.5833333333333,43.5268817204301,1247,43.217741935483865C1249.4166666666667,42.90860215053763,1251.8333333333333,42.5994623655914,1254.25,42.29032258064517C1256.6666666666667,41.981182795698935,1259.0833333333333,41.67204301075269,1261.5,41.36290322580645C1263.9166666666667,41.05376344086021,1266.3333333333333,40.74462365591397,1268.75,40.43548387096774C1271.1666666666667,40.126344086021504,1273.5833333333333,39.81720430107527,1276,39.50806451612904C1278.4166666666667,39.19892473118281,1280.8333333333333,38.889784946236574,1283.25,38.580645161290334C1285.6666666666667,38.271505376344095,1288.0833333333333,37.96236559139785,1290.5,37.65322580645161C1292.9166666666667,37.34408602150537,1295.3333333333333,37.03494623655914,1297.75,36.72580645161291C1300.1666666666667,36.41666666666668,1302.5833333333333,36.10752688172043,1305,35.79838709677419C1307.4166666666667,35.48924731182795,1309.8333333333333,35.180107526881706,1312.25,34.87096774193547C1314.6666666666667,34.56182795698924,1317.0833333333333,34.25268817204301,1319.5,33.943548387096776C1321.9166666666667,33.63440860215054,1324.3333333333333,33.3252688172043,1326.75,33.016129032258064C1329.1666666666667,32.70698924731183,1331.5833333333333,32.39784946236559,1334,32.08870967741936C1336.4166666666667,31.779569892473123,1338.8333333333333,31.470430107526884,1341.25,31.161290322580648C1343.6666666666667,30.85215053763441,1346.0833333333333,30.54301075268818,1348.5,30.23387096774194C1350.9166666666667,29.9247311827957,1353.3333333333333,29.615591397849457,1355.75,29.306451612903217C1358.1666666666667,28.997311827956977,1360.5833333333333,28.688172043010745,1363,28.37903225806451C1365.4166666666667,28.069892473118273,1367.8333333333333,27.760752688172037,1370.25,27.4516129032258C1372.6666666666667,27.142473118279565,1375.0833333333333,26.83333333333333,1377.5,26.524193548387093C1379.9166666666667,26.215053763440856,1382.3333333333333,25.90591397849463,1384.75,25.596774193548395C1387.1666666666667,25.28763440860216,1389.5833333333333,24.978494623655912,1392,24.669354838709673C1394.4166666666667,24.360215053763433,1396.8333333333333,24.0510752688172,1399.25,23.741935483870964C1401.6666666666667,23.43279569892473,1404.0833333333333,23.123655913978503,1406.5,22.814516129032267C1408.9166666666667,22.50537634408603,1411.3333333333333,22.196236559139788,1413.75,21.887096774193548C1416.1666666666667,21.57795698924731,1418.5833333333333,21.268817204301072,1421,20.959677419354836C1423.4166666666667,20.6505376344086,1425.8333333333333,20.341397849462364,1428.25,20.032258064516128C1430.6666666666667,19.723118279569892,1433.0833333333333,19.413978494623645,1435.5,19.10483870967741C1437.9166666666667,18.795698924731173,1440.3333333333333,18.486559139784944,1442.75,18.17741935483871C1445.1666666666667,17.86827956989248,1447.5833333333333,17.55913978494624,1450,17.250000000000004" fill="transparent" stroke-linecap="round" stroke="#B6509E" stroke-width="2"></path><path class="visx-linepath" d="M0,105.41666666663889C2.4166666666666665,105.41203703702084,4.833333333333334,105.40740740740277,7.25,105.40277777777777C9.666666666666666,105.39814814815277,12.083333333333334,105.39351851851852,14.5,105.38888888888889C16.916666666666668,105.38425925925925,19.333333333333332,105.37962962962963,21.75,105.375C24.166666666666668,105.37037037037037,26.583333333333332,105.36574074074075,29,105.36111111111111C31.416666666666668,105.35648148148148,33.833333333333336,105.35185185185185,36.25,105.34722222222221C38.666666666666664,105.34259259259258,41.083333333333336,105.33796296296295,43.5,105.33333333333333C45.91666666666667,105.3287037037037,48.333333333333336,105.32407407407409,50.75000000000001,105.31944444444446C53.16666666666667,105.31481481481482,55.583333333333336,105.31018518518519,58,105.30555555555556C60.416666666666664,105.30092592592592,62.833333333333336,105.2962962962963,65.25,105.29166666666667C67.66666666666667,105.28703703703704,70.08333333333333,105.2824074074074,72.5,105.27777777777777C74.91666666666667,105.27314814814814,77.33333333333333,105.26851851851852,79.75,105.26388888888889C82.16666666666667,105.25925925925925,84.58333333333333,105.25462962962962,87,105.24999999999999C89.41666666666667,105.24537037037035,91.83333333333333,105.24074074074073,94.25,105.23611111111111C96.66666666666667,105.23148148148148,99.08333333333334,105.22685185185186,101.50000000000001,105.22222222222223C103.91666666666667,105.2175925925926,106.33333333333334,105.21296296296296,108.75,105.20833333333333C111.16666666666667,105.2037037037037,113.58333333333333,105.19907407407408,116,105.19444444444444C118.41666666666667,105.18981481481481,120.83333333333334,105.18518518518519,123.25000000000001,105.18055555555556C125.66666666666667,105.17592592592592,128.08333333333334,105.17129629629629,130.5,105.16666666666666C132.91666666666666,105.16203703703702,135.33333333333334,105.15740740740742,137.75,105.15277777777779C140.16666666666666,105.14814814814815,142.58333333333334,105.14351851851853,145,105.1388888888889C147.41666666666666,105.13425925925927,149.83333333333334,105.12962962962963,152.25,105.125C154.66666666666666,105.12037037037037,157.08333333333334,105.11574074074075,159.5,105.11111111111111C161.91666666666666,105.10648148148148,164.33333333333334,105.10185185185185,166.75,105.09722222222221C169.16666666666666,105.09259259259258,171.58333333333334,105.08796296296296,174,105.08333333333333C176.41666666666666,105.0787037037037,178.83333333333334,105.07407407407408,181.25,105.06944444444444C183.66666666666666,105.06481481481481,186.08333333333334,105.06018518518519,188.5,105.05555555555556C190.91666666666666,105.05092592592592,193.33333333333334,105.0462962962963,195.75,105.04166666666667C198.16666666666669,105.03703703703704,200.58333333333334,105.0324074074074,203.00000000000003,105.02777777777777C205.41666666666669,105.02314814814814,207.83333333333331,105.01851851851852,210.24999999999997,105.01388888888889C212.66666666666666,105.00925925925925,215.08333333333331,105.00462962962963,217.5,105C219.91666666666666,104.99537037037037,222.33333333333334,104.99074074074075,224.75,104.98611111111111C227.16666666666666,104.98148148148148,229.58333333333334,104.97685185185186,232,104.97222222222223C234.41666666666666,104.9675925925926,236.83333333333334,104.96296296296296,239.25,104.95833333333333C241.66666666666669,104.9537037037037,244.08333333333334,104.94907407407408,246.50000000000003,104.94444444444444C248.91666666666669,104.93981481481481,251.33333333333331,104.93518518518518,253.74999999999997,104.93055555555554C256.16666666666663,104.92592592592591,258.5833333333333,104.9212962962963,261,104.91666666666667C263.4166666666667,104.91203703703705,265.8333333333333,104.90740740740742,268.25,104.90277777777779C270.6666666666667,104.89814814814815,273.0833333333333,104.89351851851852,275.5,104.88888888888889C277.9166666666667,104.88425925925925,280.3333333333333,104.87962962962963,282.75,104.875C285.1666666666667,104.87037037037037,287.5833333333333,104.86574074074075,290,104.86111111111111C292.4166666666667,104.85648148148148,294.8333333333333,104.85185185185185,297.25,104.84722222222221C299.6666666666667,104.84259259259258,302.0833333333333,104.83796296296298,304.5,104.83333333333334C306.9166666666667,104.82870370370371,309.3333333333333,104.82407407407408,311.75,104.81944444444444C314.1666666666667,104.81481481481481,316.5833333333333,104.81018518518519,319,104.80555555555556C321.4166666666667,104.80092592592592,323.8333333333333,104.79629629629629,326.25,104.79166666666666C328.6666666666667,104.78703703703702,331.0833333333333,104.7824074074074,333.5,104.77777777777777C335.9166666666667,104.77314814814814,338.3333333333333,104.76851851851852,340.75,104.76388888888889C343.1666666666667,104.75925925925925,345.5833333333333,104.75462962962963,348,104.75C350.4166666666667,104.74537037037037,352.8333333333333,104.74074074074075,355.25,104.73611111111111C357.6666666666667,104.73148148148148,360.0833333333333,104.72685185185186,362.5,104.72222222222223C364.9166666666667,104.7175925925926,367.3333333333333,104.71296296296296,369.75,104.70833333333333C372.1666666666667,104.7037037037037,374.5833333333333,104.69907407407408,377,104.69444444444444C379.4166666666667,104.68981481481481,381.8333333333333,104.68518518518519,384.25,104.68055555555556C386.6666666666667,104.67592592592592,389.0833333333333,104.6712962962963,391.5,104.66666666666667C393.9166666666667,104.66203703703704,396.33333333333337,104.65740740740742,398.75000000000006,104.65277777777779C401.16666666666674,104.64814814814815,403.58333333333337,104.64351851851852,406.00000000000006,104.63888888888889C408.4166666666667,104.63425925925925,410.8333333333333,104.62962962962963,413.24999999999994,104.625C415.66666666666663,104.62037037037037,418.08333333333326,104.61574074074073,420.49999999999994,104.6111111111111C422.91666666666663,104.60648148148147,425.3333333333333,104.60185185185186,427.75,104.59722222222223C430.1666666666667,104.59259259259261,432.5833333333333,104.58796296296298,435,104.58333333333334C437.4166666666667,104.57870370370371,439.8333333333333,104.57407407407408,442.25,104.56944444444444C444.6666666666667,104.56481481481481,447.0833333333333,104.56018518518519,449.5,104.55555555555556C451.9166666666667,104.55092592592592,454.3333333333333,104.5462962962963,456.75,104.54166666666667C459.1666666666667,104.53703703703704,461.5833333333333,104.5324074074074,464,104.52777777777777C466.4166666666667,104.52314814814814,468.8333333333333,104.51851851851853,471.25,104.5138888888889C473.6666666666667,104.50925925925927,476.0833333333333,104.50462962962963,478.5,104.5C480.9166666666667,104.49537037037037,483.33333333333337,104.49074074074075,485.75000000000006,104.48611111111111C488.16666666666674,104.48148148148148,490.58333333333337,104.47685185185185,493.00000000000006,104.47222222222221C495.4166666666667,104.46759259259258,497.8333333333333,104.46296296296296,500.24999999999994,104.45833333333333C502.66666666666663,104.4537037037037,505.08333333333326,104.44907407407408,507.49999999999994,104.44444444444444C509.91666666666663,104.43981481481481,512.3333333333333,104.43518518518519,514.75,104.43055555555556C517.1666666666666,104.42592592592592,519.5833333333334,104.4212962962963,522,104.41666666666667C524.4166666666666,104.41203703703704,526.8333333333334,104.40740740740742,529.25,104.40277777777779C531.6666666666666,104.39814814814815,534.0833333333334,104.39351851851852,536.5,104.38888888888889C538.9166666666666,104.38425925925925,541.3333333333334,104.37962962962963,543.75,104.375C546.1666666666666,104.37037037037037,548.5833333333334,104.36574074074075,551,104.36111111111111C553.4166666666666,104.35648148148148,555.8333333333334,104.35185185185186,558.25,104.34722222222223C560.6666666666666,104.3425925925926,563.0833333333334,104.33796296296296,565.5,104.33333333333333C567.9166666666666,104.3287037037037,570.3333333333334,104.32407407407408,572.75,104.31944444444444C575.1666666666666,104.31481481481481,577.5833333333334,104.31018518518519,580,104.30555555555556C582.4166666666666,104.30092592592592,584.8333333333334,104.29629629629629,587.25,104.29166666666666C589.6666666666666,104.28703703703702,592.0833333333334,104.28240740740742,594.5,104.27777777777779C596.9166666666666,104.27314814814815,599.3333333333334,104.26851851851853,601.75,104.2638888888889C604.1666666666666,104.25925925925927,606.5833333333334,104.25462962962963,609,104.25C611.4166666666666,104.24537037037037,613.8333333333334,104.24074074074075,616.25,104.23611111111111C618.6666666666666,104.23148148148148,621.0833333333334,104.22685185185185,623.5,104.22222222222221C625.9166666666666,104.21759259259258,628.3333333333334,104.21296296296296,630.75,104.20833333333333C633.1666666666666,104.2037037037037,635.5833333333334,104.19907407407408,638,104.19444444444444C640.4166666666666,104.18981481481481,642.8333333333334,104.18518518518519,645.25,104.18055555555556C647.6666666666666,104.17592592592592,650.0833333333334,104.1712962962963,652.5,104.16666666666667C654.9166666666666,104.16203703703704,657.3333333333334,104.1574074074074,659.75,104.15277777777777C662.1666666666666,104.14814814814814,664.5833333333334,104.14351851851852,667,104.13888888888889C669.4166666666666,104.13425925925925,671.8333333333334,104.12962962962963,674.25,104.125C676.6666666666666,104.12037037037037,679.0833333333334,104.11574074074075,681.5,104.11111111111111C683.9166666666666,104.10648148148148,686.3333333333334,104.10185185185186,688.75,104.09722222222223C691.1666666666666,104.0925925925926,693.5833333333334,104.08796296296298,696,104.08333333333334C698.4166666666666,104.07870370370371,700.8333333333334,104.07407407407408,703.25,104.06944444444444C705.6666666666666,104.06481481481481,708.0833333333334,104.06018518518518,710.5,104.05555555555554C712.9166666666666,104.05092592592591,715.3333333333334,104.04629629629628,717.75,104.04166666666666C720.1666666666666,104.03703703703704,722.5833333333334,104.03240740740742,725,104.02777777777779C727.4166666666666,104.02314814814815,729.8333333333334,104.01851851851852,732.25,104.01388888888889C734.6666666666666,104.00925925925925,737.0833333333334,104.00462962962963,739.5,104C741.9166666666666,103.99537037037037,744.3333333333334,103.99074074074075,746.75,103.98611111111111C749.1666666666666,103.98148148148148,751.5833333333334,103.97685185185185,754,103.97222222222221C756.4166666666666,103.96759259259258,758.8333333333334,103.96296296296296,761.25,103.95833333333333C763.6666666666666,103.9537037037037,766.0833333333334,103.94907407407409,768.5,103.94444444444446C770.9166666666666,103.93981481481482,773.3333333333334,103.93518518518519,775.75,103.93055555555556C778.1666666666666,103.92592592592592,780.5833333333334,103.9212962962963,783,103.91666666666667C785.4166666666667,103.91203703703704,787.8333333333334,103.9074074074074,790.2500000000001,103.90277777777777C792.6666666666667,103.89814814814814,795.0833333333335,103.89351851851852,797.5000000000001,103.88888888888889C799.9166666666667,103.88425925925925,802.3333333333335,103.87962962962963,804.7500000000001,103.875C807.1666666666667,103.87037037037037,809.5833333333335,103.86574074074075,812.0000000000001,103.86111111111111C814.4166666666667,103.85648148148148,816.8333333333333,103.85185185185186,819.2499999999999,103.84722222222223C821.6666666666665,103.8425925925926,824.0833333333333,103.83796296296296,826.4999999999999,103.83333333333333C828.9166666666665,103.8287037037037,831.3333333333333,103.82407407407408,833.7499999999999,103.81944444444444C836.1666666666665,103.81481481481481,838.5833333333333,103.81018518518519,840.9999999999999,103.80555555555556C843.4166666666666,103.80092592592592,845.8333333333333,103.7962962962963,848.25,103.79166666666667C850.6666666666666,103.78703703703704,853.0833333333334,103.78240740740742,855.5,103.77777777777779C857.9166666666666,103.77314814814815,860.3333333333334,103.76851851851852,862.75,103.76388888888889C865.1666666666666,103.75925925925925,867.5833333333334,103.75462962962963,870,103.75C872.4166666666666,103.74537037037037,874.8333333333334,103.74074074074073,877.25,103.7361111111111C879.6666666666666,103.73148148148147,882.0833333333334,103.72685185185185,884.5,103.72222222222221C886.9166666666666,103.71759259259258,889.3333333333334,103.71296296296298,891.75,103.70833333333334C894.1666666666666,103.70370370370371,896.5833333333334,103.69907407407408,899,103.69444444444444C901.4166666666666,103.68981481481481,903.8333333333334,103.68518518518519,906.25,103.68055555555556C908.6666666666666,103.67592592592592,911.0833333333334,103.6712962962963,913.5,103.66666666666667C915.9166666666666,103.66203703703704,918.3333333333334,103.6574074074074,920.75,103.65277777777777C923.1666666666666,103.64814814814814,925.5833333333334,103.64351851851852,928,103.63888888888889C930.4166666666666,103.63425925925925,932.8333333333334,103.62962962962963,935.25,103.625C937.6666666666666,103.62037037037037,940.0833333333334,103.61574074074075,942.5,103.61111111111111C944.9166666666666,103.60648148148148,947.3333333333334,103.60185185185185,949.75,103.59722222222221C952.1666666666666,103.59259259259258,954.5833333333334,103.58796296296296,957,103.58333333333333C959.4166666666666,103.5787037037037,961.8333333333334,103.57407407407408,964.25,103.56944444444444C966.6666666666667,103.56481481481481,969.0833333333334,103.56018518518519,971.5000000000001,103.55555555555556C973.9166666666667,103.55092592592592,976.3333333333335,103.5462962962963,978.7500000000001,103.54166666666667C981.1666666666667,103.53703703703704,983.5833333333335,103.53240740740742,986.0000000000001,103.52777777777779C988.4166666666667,103.52314814814815,990.8333333333335,103.51851851851852,993.2500000000001,103.51388888888889C995.6666666666667,103.50925925925925,998.0833333333333,103.50925925925925,1000.4999999999999,103.5C1002.9166666666665,103.49074074074075,1005.3333333333333,102.72715053763442,1007.7499999999999,102.34072580645162C1010.1666666666665,101.95430107526882,1012.5833333333333,101.56787634408603,1014.9999999999999,101.18145161290323C1017.4166666666665,100.79502688172043,1019.8333333333333,100.40860215053763,1022.2499999999999,100.02217741935483C1024.6666666666665,99.63575268817203,1027.0833333333333,99.24932795698925,1029.5,98.86290322580645C1031.9166666666667,98.47647849462366,1034.3333333333333,98.09005376344086,1036.75,97.70362903225806C1039.1666666666667,97.31720430107526,1041.5833333333333,96.93077956989248,1044,96.54435483870968C1046.4166666666667,96.15793010752688,1048.8333333333333,95.7715053763441,1051.25,95.3850806451613C1053.6666666666667,94.9986559139785,1056.0833333333333,94.6122311827957,1058.5,94.2258064516129C1060.9166666666667,93.8393817204301,1063.3333333333333,93.45295698924733,1065.75,93.06653225806453C1068.1666666666667,92.68010752688173,1070.5833333333333,92.29368279569893,1073,91.90725806451613C1075.4166666666667,91.52083333333333,1077.8333333333333,91.13440860215054,1080.25,90.74798387096774C1082.6666666666667,90.36155913978494,1085.0833333333333,89.97513440860216,1087.5,89.58870967741936C1089.9166666666667,89.20228494623656,1092.3333333333333,88.81586021505376,1094.75,88.42943548387096C1097.1666666666667,88.04301075268816,1099.5833333333333,87.65658602150538,1102,87.27016129032258C1104.4166666666667,86.88373655913978,1106.8333333333333,86.49731182795699,1109.25,86.11088709677419C1111.6666666666667,85.72446236559139,1114.0833333333333,85.33803763440861,1116.5,84.95161290322581C1118.9166666666667,84.56518817204301,1121.3333333333333,84.17876344086022,1123.75,83.79233870967742C1126.1666666666667,83.40591397849462,1128.5833333333333,83.01948924731182,1131,82.63306451612902C1133.4166666666667,82.24663978494623,1135.8333333333333,81.86021505376345,1138.25,81.47379032258065C1140.6666666666667,81.08736559139786,1143.0833333333333,80.70094086021506,1145.5,80.31451612903226C1147.9166666666667,79.92809139784946,1150.3333333333333,79.54166666666666,1152.75,79.15524193548386C1155.1666666666667,78.76881720430106,1157.5833333333333,78.38239247311829,1160,77.99596774193549C1162.4166666666667,77.60954301075269,1164.8333333333333,77.22311827956989,1167.25,76.83669354838709C1169.6666666666667,76.45026881720429,1172.0833333333333,76.0638440860215,1174.5,75.6774193548387C1176.9166666666667,75.2909946236559,1179.3333333333333,74.90456989247312,1181.75,74.51814516129032C1184.1666666666667,74.13172043010752,1186.5833333333333,73.74529569892472,1189,73.35887096774194C1191.4166666666667,72.97244623655915,1193.8333333333333,72.58602150537637,1196.25,72.19959677419357C1198.6666666666667,71.81317204301077,1201.0833333333333,71.42674731182797,1203.5,71.04032258064517C1205.9166666666667,70.65389784946237,1208.3333333333333,70.26747311827957,1210.75,69.88104838709677C1213.1666666666667,69.49462365591397,1215.5833333333333,69.1081989247312,1218,68.7217741935484C1220.4166666666667,68.3353494623656,1222.8333333333333,67.9489247311828,1225.25,67.5625C1227.6666666666667,67.1760752688172,1230.0833333333333,66.78965053763442,1232.5,66.40322580645162C1234.9166666666667,66.01680107526882,1237.3333333333333,65.63037634408603,1239.75,65.24395161290323C1242.1666666666667,64.85752688172043,1244.5833333333333,64.47110215053765,1247,64.08467741935485C1249.4166666666667,63.69825268817205,1251.8333333333333,63.31182795698925,1254.25,62.92540322580645C1256.6666666666667,62.53897849462365,1259.0833333333333,62.15255376344086,1261.5,61.766129032258064C1263.9166666666667,61.37970430107527,1266.3333333333333,60.99327956989247,1268.75,60.60685483870967C1271.1666666666667,60.22043010752687,1273.5833333333333,59.834005376344074,1276,59.44758064516128C1278.4166666666667,59.06115591397849,1280.8333333333333,58.674731182795696,1283.25,58.288306451612904C1285.6666666666667,57.90188172043011,1288.0833333333333,57.5154569892473,1290.5,57.129032258064505C1292.9166666666667,56.74260752688171,1295.3333333333333,56.35618279569892,1297.75,55.96975806451613C1300.1666666666667,55.583333333333336,1302.5833333333333,55.19690860215054,1305,54.81048387096775C1307.4166666666667,54.42405913978496,1309.8333333333333,54.03763440860215,1312.25,53.65120967741936C1314.6666666666667,53.26478494623657,1317.0833333333333,52.87836021505377,1319.5,52.491935483870975C1321.9166666666667,52.10551075268818,1324.3333333333333,51.71908602150538,1326.75,51.332661290322584C1329.1666666666667,50.946236559139784,1331.5833333333333,50.55981182795699,1334,50.17338709677419C1336.4166666666667,49.78696236559139,1338.8333333333333,49.40053763440859,1341.25,49.0141129032258C1343.6666666666667,48.62768817204301,1346.0833333333333,48.241263440860216,1348.5,47.85483870967742C1350.9166666666667,47.46841397849463,1353.3333333333333,47.08198924731182,1355.75,46.695564516129025C1358.1666666666667,46.30913978494623,1360.5833333333333,45.92271505376344,1363,45.53629032258065C1365.4166666666667,45.149865591397855,1367.8333333333333,44.76344086021507,1370.25,44.37701612903227C1372.6666666666667,43.99059139784947,1375.0833333333333,43.604166666666664,1377.5,43.217741935483865C1379.9166666666667,42.831317204301065,1382.3333333333333,42.44489247311827,1384.75,42.05846774193548C1387.1666666666667,41.67204301075269,1389.5833333333333,41.285618279569896,1392,40.8991935483871C1394.4166666666667,40.51276881720431,1396.8333333333333,40.126344086021504,1399.25,39.73991935483871C1401.6666666666667,39.35349462365592,1404.0833333333333,38.96706989247313,1406.5,38.580645161290334C1408.9166666666667,38.19422043010754,1411.3333333333333,37.807795698924735,1413.75,37.421370967741936C1416.1666666666667,37.034946236559136,1418.5833333333333,36.64852150537634,1421,36.26209677419354C1423.4166666666667,35.87567204301074,1425.8333333333333,35.489247311827945,1428.25,35.10282258064515C1430.6666666666667,34.71639784946236,1433.0833333333333,34.32997311827957,1435.5,33.943548387096776C1437.9166666666667,33.55712365591398,1440.3333333333333,33.17069892473118,1442.75,32.784274193548384C1445.1666666666667,32.39784946236559,1447.5833333333333,32.0114247311828,1450,31.625000000000004" fill="transparent" stroke-linecap="round" stroke="#E7C6DF" stroke-width="2"></path><g class="visx-group visx-axis visx-axis-bottom" transform="translate(0, 115)"><g class="visx-group visx-axis-tick" transform="translate(0, 0)"><line class="visx-line" x1="0" y1="0" x2="0" y2="8" fill="transparent" shape-rendering="crispEdges" stroke="#000" stroke-width="0" stroke-linecap="square"></line><svg x="0" y="0" font-size="10" style="overflow:visible"><text transform="" x="0" y="18" fill="#000" font-size="10" text-anchor="middle"><tspan x="0" dy="0em">0%</tspan></text></svg></g><g class="visx-group visx-axis-tick" transform="translate(0, 0)"><line class="visx-line" x1="362.5" y1="0" x2="362.5" y2="8" fill="transparent" shape-rendering="crispEdges" stroke="#000" stroke-width="0" stroke-linecap="square"></line><svg x="0" y="0" font-size="10" style="overflow:visible"><text transform="" x="362.5" y="18" fill="#000" font-size="10" text-anchor="middle"><tspan x="362.5" dy="0em">25%</tspan></text></svg></g><g class="visx-group visx-axis-tick" transform="translate(0, 0)"><line class="visx-line" x1="725" y1="0" x2="725" y2="8" fill="transparent" shape-rendering="crispEdges" stroke="#000" stroke-width="0" stroke-linecap="square"></line><svg x="0" y="0" font-size="10" style="overflow:visible"><text transform="" x="725" y="18" fill="#000" font-size="10" text-anchor="middle"><tspan x="725" dy="0em">50%</tspan></text></svg></g><g class="visx-group visx-axis-tick" transform="translate(0, 0)"><line class="visx-line" x1="1087.5" y1="0" x2="1087.5" y2="8" fill="transparent" shape-rendering="crispEdges" stroke="#000" stroke-width="0" stroke-linecap="square"></line><svg x="0" y="0" font-size="10" style="overflow:visible"><text transform="" x="1087.5" y="18" fill="#000" font-size="10" text-anchor="middle"><tspan x="1087.5" dy="0em">75%</tspan></text></svg></g><g class="visx-group visx-axis-tick" transform="translate(0, 0)"><line class="visx-line" x1="1450" y1="0" x2="1450" y2="8" fill="transparent" shape-rendering="crispEdges" stroke="#000" stroke-width="0" stroke-linecap="square"></line><svg x="0" y="0" font-size="10" style="overflow:visible"><text transform="" x="1450" y="18" fill="#000" font-size="10" text-anchor="middle"><tspan x="1450" dy="0em">100%</tspan></text></svg></g><line class="visx-line visx-axis-line" x1="0.5" y1="0" x2="1450.5" y2="0" fill="transparent" shape-rendering="crispEdges" stroke="#222" stroke-width="0"></line></g><g class="visx-group visx-axis visx-axis-left" transform="translate(0, 0)"><g class="visx-group visx-axis-tick" transform="translate(0, 0)"><line class="visx-line" x1="0" y1="115" x2="-8" y2="115" fill="transparent" shape-rendering="crispEdges" stroke="#222" stroke-width="0" stroke-linecap="square"></line><svg x="-30" y="0" font-size="8" style="overflow:visible"><text transform="" x="-8" y="115" fill="#000" font-size="8" text-anchor="start"><tspan x="-8" dy="0em">0%</tspan></text></svg></g><g class="visx-group visx-axis-tick" transform="translate(0, 0)"><line class="visx-line" x1="0" y1="67.08333333333333" x2="-8" y2="67.08333333333333" fill="transparent" shape-rendering="crispEdges" stroke="#222" stroke-width="0" stroke-linecap="square"></line><svg x="-30" y="0" font-size="8" style="overflow:visible"><text transform="" x="-8" y="67.08333333333333" fill="#000" font-size="8" text-anchor="start"><tspan x="-8" dy="0em">50%</tspan></text></svg></g><g class="visx-group visx-axis-tick" transform="translate(0, 0)"><line class="visx-line" x1="0" y1="19.16666666666666" x2="-8" y2="19.16666666666666" fill="transparent" shape-rendering="crispEdges" stroke="#222" stroke-width="0" stroke-linecap="square"></line><svg x="-30" y="0" font-size="8" style="overflow:visible"><text transform="" x="-8" y="19.16666666666666" fill="#000" font-size="8" text-anchor="start"><tspan x="-8" dy="0em">100%</tspan></text></svg></g><line class="visx-line visx-axis-line" x1="0" y1="115.5" x2="0" y2="0.5" fill="transparent" shape-rendering="crispEdges" stroke="#222" stroke-width="0"></line></g><rect class="visx-bar" width="1450" height="115" fill="transparent"></rect><line class="visx-line" x1="1000.4999999999999" y1="28" x2="1000.4999999999999" y2="115" fill="transparent" shape-rendering="crispEdges" stroke="#0062D2" stroke-width="1" pointer-events="none" stroke-dasharray="5,2"></line><svg x="0" y="0" font-size="10px" style="overflow:visible"><text transform="" x="1000.4999999999999" y="20" font-size="10px" fill="#fff" stroke="#fff" stroke-width="0.8em" text-anchor="middle"><tspan x="1000.4999999999999" dy="0.355em">Optimal 69%</tspan></text></svg><svg x="0" y="0" font-size="10px" style="overflow:visible"><text transform="" x="1000.4999999999999" y="20" font-size="10px" fill="#62677B" text-anchor="middle"><tspan x="1000.4999999999999" dy="0.355em">Optimal 69%</tspan></text></svg></g></svg>