<?xml version="1.0"?><svg xmlns="http://www.w3.org/2000/svg" xmlns:xlink= "http://www.w3.org/1999/xlink" width="1500" height="155"><g class="visx-group" transform="translate(40, 20)"><g class="visx-group visx-rows" transform="translate(0, 0)"><line class="visx-line" x1="0" y1="115" x2="1450" y2="115" fill="transparent" shape-rendering="crispEdges" stroke="#000" stroke-width="1" stroke-dasharray="3,3" pointer-events="none"></line><line class="visx-line" x1="0" y1="57.5" x2="1450" y2="57.5" fill="transparent" shape-rendering="crispEdges" stroke="#000" stroke-width="1" stroke-dasharray="3,3" pointer-events="none"></line><line class="visx-line" x1="0" y1="0" x2="1450" y2="0" fill="transparent" shape-rendering="crispEdges" stroke="#000" stroke-width="1" stroke-dasharray="3,3" pointer-events="none"></line></g><path class="visx-linepath" d="M0,114.99999999821111C2.4166666666666665,114.70185185080834,4.833333333333334,114.40370370340555,7.25,114.10555555555555C9.666666666666666,113.80740740770555,12.083333333333334,113.50925925925925,14.5,113.21111111111111C16.916666666666668,112.91296296296296,19.333333333333332,112.6148148148148,21.75,112.31666666666666C24.166666666666668,112.01851851851852,26.583333333333332,111.72037037037038,29,111.42222222222223C31.416666666666668,111.12407407407409,33.833333333333336,110.82592592592593,36.25,110.52777777777779C38.666666666666664,110.22962962962964,41.083333333333336,109.93148148148148,43.5,109.63333333333334C45.91666666666667,109.3351851851852,48.333333333333336,109.03703703703704,50.75000000000001,108.7388888888889C53.16666666666667,108.44074074074075,55.583333333333336,108.14259259259259,58,107.84444444444445C60.416666666666664,107.54629629629629,62.833333333333336,107.24814814814813,65.25,106.94999999999999C67.66666666666667,106.65185185185184,70.08333333333333,106.3537037037037,72.5,106.05555555555556C74.91666666666667,105.75740740740741,77.33333333333333,105.45925925925926,79.75,105.16111111111111C82.16666666666667,104.86296296296297,84.58333333333333,104.56481481481481,87,104.26666666666667C89.41666666666667,103.96851851851852,91.83333333333333,103.67037037037036,94.25,103.37222222222222C96.66666666666667,103.07407407407408,99.08333333333334,102.77592592592592,101.50000000000001,102.47777777777777C103.91666666666667,102.17962962962963,106.33333333333334,101.88148148148147,108.75,101.58333333333333C111.16666666666667,101.28518518518518,113.58333333333333,100.98703703703703,116,100.68888888888888C118.41666666666667,100.39074074074074,120.83333333333334,100.09259259259258,123.25000000000001,99.79444444444444C125.66666666666667,99.4962962962963,128.08333333333334,99.19814814814814,130.5,98.89999999999999C132.91666666666666,98.60185185185185,135.33333333333334,98.3037037037037,137.75,98.00555555555556C140.16666666666666,97.70740740740742,142.58333333333334,97.40925925925926,145,97.11111111111111C147.41666666666666,96.81296296296297,149.83333333333334,96.51481481481481,152.25,96.21666666666667C154.66666666666666,95.91851851851852,157.08333333333334,95.62037037037037,159.5,95.32222222222222C161.91666666666666,95.02407407407408,164.33333333333334,94.72592592592594,166.75,94.42777777777778C169.16666666666666,94.12962962962962,171.58333333333334,93.83148148148146,174,93.53333333333332C176.41666666666666,93.23518518518517,178.83333333333334,92.93703703703703,181.25,92.63888888888889C183.66666666666666,92.34074074074074,186.08333333333334,92.0425925925926,188.5,91.74444444444445C190.91666666666666,91.44629629629631,193.33333333333334,91.14814814814815,195.75,90.85000000000001C198.16666666666669,90.55185185185186,200.58333333333334,90.2537037037037,203.00000000000003,89.95555555555556C205.41666666666669,89.65740740740742,207.83333333333331,89.35925925925926,210.24999999999997,89.06111111111112C212.66666666666666,88.76296296296296,215.08333333333331,88.4648148148148,217.5,88.16666666666666C219.91666666666666,87.86851851851851,222.33333333333334,87.57037037037037,224.75,87.27222222222223C227.16666666666666,86.97407407407408,229.58333333333334,86.67592592592591,232,86.37777777777777C234.41666666666666,86.07962962962962,236.83333333333334,85.78148148148148,239.25,85.48333333333333C241.66666666666669,85.18518518518519,244.08333333333334,84.88703703703703,246.50000000000003,84.58888888888889C248.91666666666669,84.29074074074074,251.33333333333331,83.9925925925926,253.74999999999997,83.69444444444446C256.16666666666663,83.39629629629631,258.5833333333333,83.09814814814816,261,82.8C263.4166666666667,82.50185185185185,265.8333333333333,82.2037037037037,268.25,81.90555555555555C270.6666666666667,81.60740740740741,273.0833333333333,81.30925925925925,275.5,81.0111111111111C277.9166666666667,80.71296296296296,280.3333333333333,80.4148148148148,282.75,80.11666666666666C285.1666666666667,79.81851851851852,287.5833333333333,79.52037037037037,290,79.22222222222223C292.4166666666667,78.92407407407408,294.8333333333333,78.62592592592593,297.25,78.32777777777778C299.6666666666667,78.02962962962964,302.0833333333333,77.73148148148148,304.5,77.43333333333334C306.9166666666667,77.1351851851852,309.3333333333333,76.83703703703704,311.75,76.53888888888889C314.1666666666667,76.24074074074075,316.5833333333333,75.9425925925926,319,75.64444444444445C321.4166666666667,75.34629629629629,323.8333333333333,75.04814814814813,326.25,74.74999999999999C328.6666666666667,74.45185185185184,331.0833333333333,74.1537037037037,333.5,73.85555555555555C335.9166666666667,73.55740740740741,338.3333333333333,73.25925925925925,340.75,72.96111111111111C343.1666666666667,72.66296296296296,345.5833333333333,72.3648148148148,348,72.06666666666666C350.4166666666667,71.76851851851852,352.8333333333333,71.47037037037038,355.25,71.17222222222223C357.6666666666667,70.87407407407409,360.0833333333333,70.57592592592593,362.5,70.27777777777779C364.9166666666667,69.97962962962964,367.3333333333333,69.68148148148147,369.75,69.38333333333333C372.1666666666667,69.08518518518518,374.5833333333333,68.78703703703704,377,68.4888888888889C379.4166666666667,68.19074074074075,381.8333333333333,67.89259259259259,384.25,67.59444444444443C386.6666666666667,67.29629629629628,389.0833333333333,66.99814814814813,391.5,66.69999999999999C393.9166666666667,66.40185185185184,396.33333333333337,66.1037037037037,398.75000000000006,65.80555555555556C401.16666666666674,65.50740740740741,403.58333333333337,65.20925925925927,406.00000000000006,64.91111111111113C408.4166666666667,64.61296296296298,410.8333333333333,64.31481481481481,413.24999999999994,64.01666666666667C415.66666666666663,63.718518518518515,418.08333333333326,63.420370370370364,420.49999999999994,63.12222222222222C422.91666666666663,62.82407407407407,425.3333333333333,62.525925925925925,427.75,62.227777777777774C430.1666666666667,61.92962962962963,432.5833333333333,61.63148148148149,435,61.333333333333336C437.4166666666667,61.035185185185185,439.8333333333333,60.73703703703704,442.25,60.43888888888889C444.6666666666667,60.14074074074074,447.0833333333333,59.842592592592595,449.5,59.544444444444444C451.9166666666667,59.24629629629629,454.3333333333333,58.94814814814815,456.75,58.65C459.1666666666667,58.35185185185185,461.5833333333333,58.053703703703704,464,57.75555555555556C466.4166666666667,57.457407407407416,468.8333333333333,57.159259259259265,471.25,56.861111111111114C473.6666666666667,56.56296296296296,476.0833333333333,56.2648148148148,478.5,55.966666666666654C480.9166666666667,55.6685185185185,483.33333333333337,55.37037037037037,485.75000000000006,55.07222222222222C488.16666666666674,54.77407407407408,490.58333333333337,54.475925925925935,493.00000000000006,54.177777777777784C495.4166666666667,53.87962962962963,497.8333333333333,53.58148148148147,500.24999999999994,53.283333333333324C502.66666666666663,52.98518518518517,505.08333333333326,52.68703703703704,507.49999999999994,52.38888888888889C509.91666666666663,52.09074074074074,512.3333333333333,51.7925925925926,514.75,51.49444444444445C517.1666666666666,51.196296296296296,519.5833333333334,50.898148148148145,522,50.599999999999994C524.4166666666666,50.30185185185184,526.8333333333334,50.0037037037037,529.25,49.70555555555555C531.6666666666666,49.4074074074074,534.0833333333334,49.10925925925925,536.5,48.8111111111111C538.9166666666666,48.51296296296296,541.3333333333334,48.21481481481483,543.75,47.91666666666668C546.1666666666666,47.61851851851853,548.5833333333334,47.32037037037037,551,47.02222222222222C553.4166666666666,46.72407407407407,555.8333333333334,46.425925925925924,558.25,46.12777777777777C560.6666666666666,45.82962962962962,563.0833333333334,45.53148148148148,565.5,45.233333333333334C567.9166666666666,44.93518518518519,570.3333333333334,44.63703703703704,572.75,44.33888888888889C575.1666666666666,44.04074074074074,577.5833333333334,43.742592592592594,580,43.44444444444444C582.4166666666666,43.14629629629629,584.8333333333334,42.84814814814814,587.25,42.55C589.6666666666666,42.25185185185185,592.0833333333334,41.95370370370371,594.5,41.65555555555556C596.9166666666666,41.35740740740741,599.3333333333334,41.05925925925926,601.75,40.76111111111111C604.1666666666666,40.46296296296297,606.5833333333334,40.16481481481483,609,39.86666666666668C611.4166666666666,39.56851851851853,613.8333333333334,39.27037037037037,616.25,38.97222222222222C618.6666666666666,38.67407407407407,621.0833333333334,38.37592592592593,623.5,38.07777777777778C625.9166666666666,37.77962962962964,628.3333333333334,37.48148148148149,630.75,37.18333333333334C633.1666666666666,36.885185185185186,635.5833333333334,36.58703703703703,638,36.28888888888888C640.4166666666666,35.990740740740726,642.8333333333334,35.69259259259259,645.25,35.39444444444444C647.6666666666666,35.09629629629629,650.0833333333334,34.49999999999999,652.5,34.49999999999999C654.9166666666666,34.49999999999999,657.3333333333334,34.49999999999999,659.75,34.49999999999999C662.1666666666666,34.49999999999999,664.5833333333334,34.49999999999999,667,34.49999999999999C669.4166666666666,34.49999999999999,671.8333333333334,34.49999999999999,674.25,34.49999999999999C676.6666666666666,34.49999999999999,679.0833333333334,34.49999999999999,681.5,34.49999999999999C683.9166666666666,34.49999999999999,686.3333333333334,34.49999999999999,688.75,34.49999999999999C691.1666666666666,34.49999999999999,693.5833333333334,34.49999999999999,696,34.49999999999999C698.4166666666666,34.49999999999999,700.8333333333334,34.49999999999999,703.25,34.49999999999999C705.6666666666666,34.49999999999999,708.0833333333334,34.49999999999999,710.5,34.49999999999999C712.9166666666666,34.49999999999999,715.3333333333334,34.49999999999999,717.75,34.49999999999999C720.1666666666666,34.49999999999999,722.5833333333334,34.49999999999999,725,34.49999999999999C727.4166666666666,34.49999999999999,729.8333333333334,34.49999999999999,732.25,34.49999999999999C734.6666666666666,34.49999999999999,737.0833333333334,34.49999999999999,739.5,34.49999999999999C741.9166666666666,34.49999999999999,744.3333333333334,34.49999999999999,746.75,34.49999999999999C749.1666666666666,34.49999999999999,751.5833333333334,34.49999999999999,754,34.49999999999999C756.4166666666666,34.49999999999999,758.8333333333334,34.49999999999999,761.25,34.49999999999999C763.6666666666666,34.49999999999999,766.0833333333334,34.49999999999999,768.5,34.49999999999999C770.9166666666666,34.49999999999999,773.3333333333334,34.49999999999999,775.75,34.49999999999999C778.1666666666666,34.49999999999999,780.5833333333334,34.49999999999999,783,34.49999999999999C785.4166666666667,34.49999999999999,787.8333333333334,34.49999999999999,790.2500000000001,34.49999999999999C792.6666666666667,34.49999999999999,795.0833333333335,34.49999999999999,797.5000000000001,34.49999999999999C799.9166666666667,34.49999999999999,802.3333333333335,34.49999999999999,804.7500000000001,34.49999999999999C807.1666666666667,34.49999999999999,809.5833333333335,34.49999999999999,812.0000000000001,34.49999999999999C814.4166666666667,34.49999999999999,816.8333333333333,34.49999999999999,819.2499999999999,34.49999999999999C821.6666666666665,34.49999999999999,824.0833333333333,34.49999999999999,826.4999999999999,34.49999999999999C828.9166666666665,34.49999999999999,831.3333333333333,34.49999999999999,833.7499999999999,34.49999999999999C836.1666666666665,34.49999999999999,838.5833333333333,34.49999999999999,840.9999999999999,34.49999999999999C843.4166666666666,34.49999999999999,845.8333333333333,34.49999999999999,848.25,34.49999999999999C850.6666666666666,34.49999999999999,853.0833333333334,34.49999999999999,855.5,34.49999999999999C857.9166666666666,34.49999999999999,860.3333333333334,34.49999999999999,862.75,34.49999999999999C865.1666666666666,34.49999999999999,867.5833333333334,34.49999999999999,870,34.49999999999999C872.4166666666666,34.49999999999999,874.8333333333334,34.49999999999999,877.25,34.49999999999999C879.6666666666666,34.49999999999999,882.0833333333334,34.49999999999999,884.5,34.49999999999999C886.9166666666666,34.49999999999999,889.3333333333334,34.49999999999999,891.75,34.49999999999999C894.1666666666666,34.49999999999999,896.5833333333334,34.49999999999999,899,34.49999999999999C901.4166666666666,34.49999999999999,903.8333333333334,34.49999999999999,906.25,34.49999999999999C908.6666666666666,34.49999999999999,911.0833333333334,34.49999999999999,913.5,34.49999999999999C915.9166666666666,34.49999999999999,918.3333333333334,34.49999999999999,920.75,34.49999999999999C923.1666666666666,34.49999999999999,925.5833333333334,34.49999999999999,928,34.49999999999999C930.4166666666666,34.49999999999999,932.8333333333334,34.49999999999999,935.25,34.49999999999999C937.6666666666666,34.49999999999999,940.0833333333334,34.49999999999999,942.5,34.49999999999999C944.9166666666666,34.49999999999999,947.3333333333334,34.49999999999999,949.75,34.49999999999999C952.1666666666666,34.49999999999999,954.5833333333334,34.49999999999999,957,34.49999999999999C959.4166666666666,34.49999999999999,961.8333333333334,34.49999999999999,964.25,34.49999999999999C966.6666666666667,34.49999999999999,969.0833333333334,34.49999999999999,971.5000000000001,34.49999999999999C973.9166666666667,34.49999999999999,976.3333333333335,34.49999999999999,978.7500000000001,34.49999999999999C981.1666666666667,34.49999999999999,983.5833333333335,34.49999999999999,986.0000000000001,34.49999999999999C988.4166666666667,34.49999999999999,990.8333333333335,34.49999999999999,993.2500000000001,34.49999999999999C995.6666666666667,34.49999999999999,998.0833333333333,34.49999999999999,1000.4999999999999,34.49999999999999C1002.9166666666665,34.49999999999999,1005.3333333333333,34.49999999999999,1007.7499999999999,34.49999999999999C1010.1666666666665,34.49999999999999,1012.5833333333333,34.49999999999999,1014.9999999999999,34.49999999999999C1017.4166666666665,34.49999999999999,1019.8333333333333,34.49999999999999,1022.2499999999999,34.49999999999999C1024.6666666666665,34.49999999999999,1027.0833333333333,34.49999999999999,1029.5,34.49999999999999C1031.9166666666667,34.49999999999999,1034.3333333333333,34.49999999999999,1036.75,34.49999999999999C1039.1666666666667,34.49999999999999,1041.5833333333333,34.49999999999999,1044,34.49999999999999C1046.4166666666667,34.49999999999999,1048.8333333333333,34.49999999999999,1051.25,34.49999999999999C1053.6666666666667,34.49999999999999,1056.0833333333333,34.49999999999999,1058.5,34.49999999999999C1060.9166666666667,34.49999999999999,1063.3333333333333,34.49999999999999,1065.75,34.49999999999999C1068.1666666666667,34.49999999999999,1070.5833333333333,34.49999999999999,1073,34.49999999999999C1075.4166666666667,34.49999999999999,1077.8333333333333,34.49999999999999,1080.25,34.49999999999999C1082.6666666666667,34.49999999999999,1085.0833333333333,34.49999999999999,1087.5,34.49999999999999C1089.9166666666667,34.49999999999999,1092.3333333333333,34.49999999999999,1094.75,34.49999999999999C1097.1666666666667,34.49999999999999,1099.5833333333333,34.49999999999999,1102,34.49999999999999C1104.4166666666667,34.49999999999999,1106.8333333333333,34.49999999999999,1109.25,34.49999999999999C1111.6666666666667,34.49999999999999,1114.0833333333333,34.49999999999999,1116.5,34.49999999999999C1118.9166666666667,34.49999999999999,1121.3333333333333,34.49999999999999,1123.75,34.49999999999999C1126.1666666666667,34.49999999999999,1128.5833333333333,34.49999999999999,1131,34.49999999999999C1133.4166666666667,34.49999999999999,1135.8333333333333,34.49999999999999,1138.25,34.49999999999999C1140.6666666666667,34.49999999999999,1143.0833333333333,34.49999999999999,1145.5,34.49999999999999C1147.9166666666667,34.49999999999999,1150.3333333333333,34.49999999999999,1152.75,34.49999999999999C1155.1666666666667,34.49999999999999,1157.5833333333333,34.49999999999999,1160,34.49999999999999C1162.4166666666667,34.49999999999999,1164.8333333333333,34.49999999999999,1167.25,34.49999999999999C1169.6666666666667,34.49999999999999,1172.0833333333333,34.49999999999999,1174.5,34.49999999999999C1176.9166666666667,34.49999999999999,1179.3333333333333,34.49999999999999,1181.75,34.49999999999999C1184.1666666666667,34.49999999999999,1186.5833333333333,34.49999999999999,1189,34.49999999999999C1191.4166666666667,34.49999999999999,1193.8333333333333,34.49999999999999,1196.25,34.49999999999999C1198.6666666666667,34.49999999999999,1201.0833333333333,34.49999999999999,1203.5,34.49999999999999C1205.9166666666667,34.49999999999999,1208.3333333333333,34.49999999999999,1210.75,34.49999999999999C1213.1666666666667,34.49999999999999,1215.5833333333333,34.49999999999999,1218,34.49999999999999C1220.4166666666667,34.49999999999999,1222.8333333333333,34.49999999999999,1225.25,34.49999999999999C1227.6666666666667,34.49999999999999,1230.0833333333333,34.49999999999999,1232.5,34.49999999999999C1234.9166666666667,34.49999999999999,1237.3333333333333,34.49999999999999,1239.75,34.49999999999999C1242.1666666666667,34.49999999999999,1244.5833333333333,34.49999999999999,1247,34.49999999999999C1249.4166666666667,34.49999999999999,1251.8333333333333,34.49999999999999,1254.25,34.49999999999999C1256.6666666666667,34.49999999999999,1259.0833333333333,34.49999999999999,1261.5,34.49999999999999C1263.9166666666667,34.49999999999999,1266.3333333333333,34.49999999999999,1268.75,34.49999999999999C1271.1666666666667,34.49999999999999,1273.5833333333333,34.49999999999999,1276,34.49999999999999C1278.4166666666667,34.49999999999999,1280.8333333333333,34.49999999999999,1283.25,34.49999999999999C1285.6666666666667,34.49999999999999,1288.0833333333333,34.49999999999999,1290.5,34.49999999999999C1292.9166666666667,34.49999999999999,1295.3333333333333,34.49999999999999,1297.75,34.49999999999999C1300.1666666666667,34.49999999999999,1302.5833333333333,34.49999999999999,1305,34.49999999999999C1307.4166666666667,34.49999999999999,1309.8333333333333,34.49999999999999,1312.25,34.49999999999999C1314.6666666666667,34.49999999999999,1317.0833333333333,34.49999999999999,1319.5,34.49999999999999C1321.9166666666667,34.49999999999999,1324.3333333333333,34.49999999999999,1326.75,34.49999999999999C1329.1666666666667,34.49999999999999,1331.5833333333333,34.49999999999999,1334,34.49999999999999C1336.4166666666667,34.49999999999999,1338.8333333333333,34.49999999999999,1341.25,34.49999999999999C1343.6666666666667,34.49999999999999,1346.0833333333333,34.49999999999999,1348.5,34.49999999999999C1350.9166666666667,34.49999999999999,1353.3333333333333,34.49999999999999,1355.75,34.49999999999999C1358.1666666666667,34.49999999999999,1360.5833333333333,34.49999999999999,1363,34.49999999999999C1365.4166666666667,34.49999999999999,1367.8333333333333,34.49999999999999,1370.25,34.49999999999999C1372.6666666666667,34.49999999999999,1375.0833333333333,34.49999999999999,1377.5,34.49999999999999C1379.9166666666667,34.49999999999999,1382.3333333333333,34.49999999999999,1384.75,34.49999999999999C1387.1666666666667,34.49999999999999,1389.5833333333333,34.49999999999999,1392,34.49999999999999C1394.4166666666667,34.49999999999999,1396.8333333333333,34.49999999999999,1399.25,34.49999999999999C1401.6666666666667,34.49999999999999,1404.0833333333333,34.49999999999999,1406.5,34.49999999999999C1408.9166666666667,34.49999999999999,1411.3333333333333,34.49999999999999,1413.75,34.49999999999999C1416.1666666666667,34.49999999999999,1418.5833333333333,34.49999999999999,1421,34.49999999999999C1423.4166666666667,34.49999999999999,1425.8333333333333,34.49999999999999,1428.25,34.49999999999999C1430.6666666666667,34.49999999999999,1433.0833333333333,34.49999999999999,1435.5,34.49999999999999C1437.9166666666667,34.49999999999999,1440.3333333333333,34.49999999999999,1442.75,34.49999999999999C1445.1666666666667,34.49999999999999,1447.5833333333333,34.49999999999999,1450,34.49999999999999" fill="transparent" stroke-linecap="round" stroke="#B6509E" stroke-width="2"></path><path class="visx-linepath" d="M0,11.499999999999998C2.4166666666666665,11.499999999999998,4.833333333333334,11.499999999999998,7.25,11.499999999999998C9.666666666666666,11.499999999999998,12.083333333333334,11.499999999999998,14.5,11.499999999999998C16.916666666666668,11.499999999999998,19.333333333333332,11.499999999999998,21.75,11.499999999999998C24.166666666666668,11.499999999999998,26.583333333333332,11.499999999999998,29,11.499999999999998C31.416666666666668,11.499999999999998,33.833333333333336,11.499999999999998,36.25,11.499999999999998C38.666666666666664,11.499999999999998,41.083333333333336,11.499999999999998,43.5,11.499999999999998C45.91666666666667,11.499999999999998,48.333333333333336,11.499999999999998,50.75000000000001,11.499999999999998C53.16666666666667,11.499999999999998,55.583333333333336,11.499999999999998,58,11.499999999999998C60.416666666666664,11.499999999999998,62.833333333333336,11.499999999999998,65.25,11.499999999999998C67.66666666666667,11.499999999999998,70.08333333333333,11.499999999999998,72.5,11.499999999999998C74.91666666666667,11.499999999999998,77.33333333333333,11.499999999999998,79.75,11.499999999999998C82.16666666666667,11.499999999999998,84.58333333333333,11.499999999999998,87,11.499999999999998C89.41666666666667,11.499999999999998,91.83333333333333,11.499999999999998,94.25,11.499999999999998C96.66666666666667,11.499999999999998,99.08333333333334,11.499999999999998,101.50000000000001,11.499999999999998C103.91666666666667,11.499999999999998,106.33333333333334,11.499999999999998,108.75,11.499999999999998C111.16666666666667,11.499999999999998,113.58333333333333,11.499999999999998,116,11.499999999999998C118.41666666666667,11.499999999999998,120.83333333333334,11.499999999999998,123.25000000000001,11.499999999999998C125.66666666666667,11.499999999999998,128.08333333333334,11.499999999999998,130.5,11.499999999999998C132.91666666666666,11.499999999999998,135.33333333333334,11.499999999999998,137.75,11.499999999999998C140.16666666666666,11.499999999999998,142.58333333333334,11.499999999999998,145,11.499999999999998C147.41666666666666,11.499999999999998,149.83333333333334,11.499999999999998,152.25,11.499999999999998C154.66666666666666,11.499999999999998,157.08333333333334,11.499999999999998,159.5,11.499999999999998C161.91666666666666,11.499999999999998,164.33333333333334,11.499999999999998,166.75,11.499999999999998C169.16666666666666,11.499999999999998,171.58333333333334,11.499999999999998,174,11.499999999999998C176.41666666666666,11.499999999999998,178.83333333333334,11.499999999999998,181.25,11.499999999999998C183.66666666666666,11.499999999999998,186.08333333333334,11.499999999999998,188.5,11.499999999999998C190.91666666666666,11.499999999999998,193.33333333333334,11.499999999999998,195.75,11.499999999999998C198.16666666666669,11.499999999999998,200.58333333333334,11.499999999999998,203.00000000000003,11.499999999999998C205.41666666666669,11.499999999999998,207.83333333333331,11.499999999999998,210.24999999999997,11.499999999999998C212.66666666666666,11.499999999999998,215.08333333333331,11.499999999999998,217.5,11.499999999999998C219.91666666666666,11.499999999999998,222.33333333333334,11.499999999999998,224.75,11.499999999999998C227.16666666666666,11.499999999999998,229.58333333333334,11.499999999999998,232,11.499999999999998C234.41666666666666,11.499999999999998,236.83333333333334,11.499999999999998,239.25,11.499999999999998C241.66666666666669,11.499999999999998,244.08333333333334,11.499999999999998,246.50000000000003,11.499999999999998C248.91666666666669,11.499999999999998,251.33333333333331,11.499999999999998,253.74999999999997,11.499999999999998C256.16666666666663,11.499999999999998,258.5833333333333,11.499999999999998,261,11.499999999999998C263.4166666666667,11.499999999999998,265.8333333333333,11.499999999999998,268.25,11.499999999999998C270.6666666666667,11.499999999999998,273.0833333333333,11.499999999999998,275.5,11.499999999999998C277.9166666666667,11.499999999999998,280.3333333333333,11.499999999999998,282.75,11.499999999999998C285.1666666666667,11.499999999999998,287.5833333333333,11.499999999999998,290,11.499999999999998C292.4166666666667,11.499999999999998,294.8333333333333,11.499999999999998,297.25,11.499999999999998C299.6666666666667,11.499999999999998,302.0833333333333,11.499999999999998,304.5,11.499999999999998C306.9166666666667,11.499999999999998,309.3333333333333,11.499999999999998,311.75,11.499999999999998C314.1666666666667,11.499999999999998,316.5833333333333,11.499999999999998,319,11.499999999999998C321.4166666666667,11.499999999999998,323.8333333333333,11.499999999999998,326.25,11.499999999999998C328.6666666666667,11.499999999999998,331.0833333333333,11.499999999999998,333.5,11.499999999999998C335.9166666666667,11.499999999999998,338.3333333333333,11.499999999999998,340.75,11.499999999999998C343.1666666666667,11.499999999999998,345.5833333333333,11.499999999999998,348,11.499999999999998C350.4166666666667,11.499999999999998,352.8333333333333,11.499999999999998,355.25,11.499999999999998C357.6666666666667,11.499999999999998,360.0833333333333,11.499999999999998,362.5,11.499999999999998C364.9166666666667,11.499999999999998,367.3333333333333,11.499999999999998,369.75,11.499999999999998C372.1666666666667,11.499999999999998,374.5833333333333,11.499999999999998,377,11.499999999999998C379.4166666666667,11.499999999999998,381.8333333333333,11.499999999999998,384.25,11.499999999999998C386.6666666666667,11.499999999999998,389.0833333333333,11.499999999999998,391.5,11.499999999999998C393.9166666666667,11.499999999999998,396.33333333333337,11.499999999999998,398.75000000000006,11.499999999999998C401.16666666666674,11.499999999999998,403.58333333333337,11.499999999999998,406.00000000000006,11.499999999999998C408.4166666666667,11.499999999999998,410.8333333333333,11.499999999999998,413.24999999999994,11.499999999999998C415.66666666666663,11.499999999999998,418.08333333333326,11.499999999999998,420.49999999999994,11.499999999999998C422.91666666666663,11.499999999999998,425.3333333333333,11.499999999999998,427.75,11.499999999999998C430.1666666666667,11.499999999999998,432.5833333333333,11.499999999999998,435,11.499999999999998C437.4166666666667,11.499999999999998,439.8333333333333,11.499999999999998,442.25,11.499999999999998C444.6666666666667,11.499999999999998,447.0833333333333,11.499999999999998,449.5,11.499999999999998C451.9166666666667,11.499999999999998,454.3333333333333,11.499999999999998,456.75,11.499999999999998C459.1666666666667,11.499999999999998,461.5833333333333,11.499999999999998,464,11.499999999999998C466.4166666666667,11.499999999999998,468.8333333333333,11.499999999999998,471.25,11.499999999999998C473.6666666666667,11.499999999999998,476.0833333333333,11.499999999999998,478.5,11.499999999999998C480.9166666666667,11.499999999999998,483.33333333333337,11.499999999999998,485.75000000000006,11.499999999999998C488.16666666666674,11.499999999999998,490.58333333333337,11.499999999999998,493.00000000000006,11.499999999999998C495.4166666666667,11.499999999999998,497.8333333333333,11.499999999999998,500.24999999999994,11.499999999999998C502.66666666666663,11.499999999999998,505.08333333333326,11.499999999999998,507.49999999999994,11.499999999999998C509.91666666666663,11.499999999999998,512.3333333333333,11.499999999999998,514.75,11.499999999999998C517.1666666666666,11.499999999999998,519.5833333333334,11.499999999999998,522,11.499999999999998C524.4166666666666,11.499999999999998,526.8333333333334,11.499999999999998,529.25,11.499999999999998C531.6666666666666,11.499999999999998,534.0833333333334,11.499999999999998,536.5,11.499999999999998C538.9166666666666,11.499999999999998,541.3333333333334,11.499999999999998,543.75,11.499999999999998C546.1666666666666,11.499999999999998,548.5833333333334,11.499999999999998,551,11.499999999999998C553.4166666666666,11.499999999999998,555.8333333333334,11.499999999999998,558.25,11.499999999999998C560.6666666666666,11.499999999999998,563.0833333333334,11.499999999999998,565.5,11.499999999999998C567.9166666666666,11.499999999999998,570.3333333333334,11.499999999999998,572.75,11.499999999999998C575.1666666666666,11.499999999999998,577.5833333333334,11.499999999999998,580,11.499999999999998C582.4166666666666,11.499999999999998,584.8333333333334,11.499999999999998,587.25,11.499999999999998C589.6666666666666,11.499999999999998,592.0833333333334,11.499999999999998,594.5,11.499999999999998C596.9166666666666,11.499999999999998,599.3333333333334,11.499999999999998,601.75,11.499999999999998C604.1666666666666,11.499999999999998,606.5833333333334,11.499999999999998,609,11.499999999999998C611.4166666666666,11.499999999999998,613.8333333333334,11.499999999999998,616.25,11.499999999999998C618.6666666666666,11.499999999999998,621.0833333333334,11.499999999999998,623.5,11.499999999999998C625.9166666666666,11.499999999999998,628.3333333333334,11.499999999999998,630.75,11.499999999999998C633.1666666666666,11.499999999999998,635.5833333333334,11.499999999999998,638,11.499999999999998C640.4166666666666,11.499999999999998,642.8333333333334,11.499999999999998,645.25,11.499999999999998C647.6666666666666,11.499999999999998,650.0833333333334,11.499999999999998,652.5,11.499999999999998C654.9166666666666,11.499999999999998,657.3333333333334,11.499999999999998,659.75,11.499999999999998C662.1666666666666,11.499999999999998,664.5833333333334,11.499999999999998,667,11.499999999999998C669.4166666666666,11.499999999999998,671.8333333333334,11.499999999999998,674.25,11.499999999999998C676.6666666666666,11.499999999999998,679.0833333333334,11.499999999999998,681.5,11.499999999999998C683.9166666666666,11.499999999999998,686.3333333333334,11.499999999999998,688.75,11.499999999999998C691.1666666666666,11.499999999999998,693.5833333333334,11.499999999999998,696,11.499999999999998C698.4166666666666,11.499999999999998,700.8333333333334,11.499999999999998,703.25,11.499999999999998C705.6666666666666,11.499999999999998,708.0833333333334,11.499999999999998,710.5,11.499999999999998C712.9166666666666,11.499999999999998,715.3333333333334,11.499999999999998,717.75,11.499999999999998C720.1666666666666,11.499999999999998,722.5833333333334,11.499999999999998,725,11.499999999999998C727.4166666666666,11.499999999999998,729.8333333333334,11.499999999999998,732.25,11.499999999999998C734.6666666666666,11.499999999999998,737.0833333333334,11.499999999999998,739.5,11.499999999999998C741.9166666666666,11.499999999999998,744.3333333333334,11.499999999999998,746.75,11.499999999999998C749.1666666666666,11.499999999999998,751.5833333333334,11.499999999999998,754,11.499999999999998C756.4166666666666,11.499999999999998,758.8333333333334,11.499999999999998,761.25,11.499999999999998C763.6666666666666,11.499999999999998,766.0833333333334,11.499999999999998,768.5,11.499999999999998C770.9166666666666,11.499999999999998,773.3333333333334,11.499999999999998,775.75,11.499999999999998C778.1666666666666,11.499999999999998,780.5833333333334,11.499999999999998,783,11.499999999999998C785.4166666666667,11.499999999999998,787.8333333333334,11.499999999999998,790.2500000000001,11.499999999999998C792.6666666666667,11.499999999999998,795.0833333333335,11.499999999999998,797.5000000000001,11.499999999999998C799.9166666666667,11.499999999999998,802.3333333333335,11.499999999999998,804.7500000000001,11.499999999999998C807.1666666666667,11.499999999999998,809.5833333333335,11.499999999999998,812.0000000000001,11.499999999999998C814.4166666666667,11.499999999999998,816.8333333333333,11.499999999999998,819.2499999999999,11.499999999999998C821.6666666666665,11.499999999999998,824.0833333333333,11.499999999999998,826.4999999999999,11.499999999999998C828.9166666666665,11.499999999999998,831.3333333333333,11.499999999999998,833.7499999999999,11.499999999999998C836.1666666666665,11.499999999999998,838.5833333333333,11.499999999999998,840.9999999999999,11.499999999999998C843.4166666666666,11.499999999999998,845.8333333333333,11.499999999999998,848.25,11.499999999999998C850.6666666666666,11.499999999999998,853.0833333333334,11.499999999999998,855.5,11.499999999999998C857.9166666666666,11.499999999999998,860.3333333333334,11.499999999999998,862.75,11.499999999999998C865.1666666666666,11.499999999999998,867.5833333333334,11.499999999999998,870,11.499999999999998C872.4166666666666,11.499999999999998,874.8333333333334,11.499999999999998,877.25,11.499999999999998C879.6666666666666,11.499999999999998,882.0833333333334,11.499999999999998,884.5,11.499999999999998C886.9166666666666,11.499999999999998,889.3333333333334,11.499999999999998,891.75,11.499999999999998C894.1666666666666,11.499999999999998,896.5833333333334,11.499999999999998,899,11.499999999999998C901.4166666666666,11.499999999999998,903.8333333333334,11.499999999999998,906.25,11.499999999999998C908.6666666666666,11.499999999999998,911.0833333333334,11.499999999999998,913.5,11.499999999999998C915.9166666666666,11.499999999999998,918.3333333333334,11.499999999999998,920.75,11.499999999999998C923.1666666666666,11.499999999999998,925.5833333333334,11.499999999999998,928,11.499999999999998C930.4166666666666,11.499999999999998,932.8333333333334,11.499999999999998,935.25,11.499999999999998C937.6666666666666,11.499999999999998,940.0833333333334,11.499999999999998,942.5,11.499999999999998C944.9166666666666,11.499999999999998,947.3333333333334,11.499999999999998,949.75,11.499999999999998C952.1666666666666,11.499999999999998,954.5833333333334,11.499999999999998,957,11.499999999999998C959.4166666666666,11.499999999999998,961.8333333333334,11.499999999999998,964.25,11.499999999999998C966.6666666666667,11.499999999999998,969.0833333333334,11.499999999999998,971.5000000000001,11.499999999999998C973.9166666666667,11.499999999999998,976.3333333333335,11.499999999999998,978.7500000000001,11.499999999999998C981.1666666666667,11.499999999999998,983.5833333333335,11.499999999999998,986.0000000000001,11.499999999999998C988.4166666666667,11.499999999999998,990.8333333333335,11.499999999999998,993.2500000000001,11.499999999999998C995.6666666666667,11.499999999999998,998.0833333333333,11.499999999999998,1000.4999999999999,11.499999999999998C1002.9166666666665,11.499999999999998,1005.3333333333333,11.499999999999998,1007.7499999999999,11.499999999999998C1010.1666666666665,11.499999999999998,1012.5833333333333,11.499999999999998,1014.9999999999999,11.499999999999998C1017.4166666666665,11.499999999999998,1019.8333333333333,11.499999999999998,1022.2499999999999,11.499999999999998C1024.6666666666665,11.499999999999998,1027.0833333333333,11.499999999999998,1029.5,11.499999999999998C1031.9166666666667,11.499999999999998,1034.3333333333333,11.499999999999998,1036.75,11.499999999999998C1039.1666666666667,11.499999999999998,1041.5833333333333,11.499999999999998,1044,11.499999999999998C1046.4166666666667,11.499999999999998,1048.8333333333333,11.499999999999998,1051.25,11.499999999999998C1053.6666666666667,11.499999999999998,1056.0833333333333,11.499999999999998,1058.5,11.499999999999998C1060.9166666666667,11.499999999999998,1063.3333333333333,11.499999999999998,1065.75,11.499999999999998C1068.1666666666667,11.499999999999998,1070.5833333333333,11.499999999999998,1073,11.499999999999998C1075.4166666666667,11.499999999999998,1077.8333333333333,11.499999999999998,1080.25,11.499999999999998C1082.6666666666667,11.499999999999998,1085.0833333333333,11.499999999999998,1087.5,11.499999999999998C1089.9166666666667,11.499999999999998,1092.3333333333333,11.499999999999998,1094.75,11.499999999999998C1097.1666666666667,11.499999999999998,1099.5833333333333,11.499999999999998,1102,11.499999999999998C1104.4166666666667,11.499999999999998,1106.8333333333333,11.499999999999998,1109.25,11.499999999999998C1111.6666666666667,11.499999999999998,1114.0833333333333,11.499999999999998,1116.5,11.499999999999998C1118.9166666666667,11.499999999999998,1121.3333333333333,11.499999999999998,1123.75,11.499999999999998C1126.1666666666667,11.499999999999998,1128.5833333333333,11.499999999999998,1131,11.499999999999998C1133.4166666666667,11.499999999999998,1135.8333333333333,11.499999999999998,1138.25,11.499999999999998C1140.6666666666667,11.499999999999998,1143.0833333333333,11.499999999999998,1145.5,11.499999999999998C1147.9166666666667,11.499999999999998,1150.3333333333333,11.499999999999998,1152.75,11.499999999999998C1155.1666666666667,11.499999999999998,1157.5833333333333,11.499999999999998,1160,11.499999999999998C1162.4166666666667,11.499999999999998,1164.8333333333333,11.499999999999998,1167.25,11.499999999999998C1169.6666666666667,11.499999999999998,1172.0833333333333,11.499999999999998,1174.5,11.499999999999998C1176.9166666666667,11.499999999999998,1179.3333333333333,11.499999999999998,1181.75,11.499999999999998C1184.1666666666667,11.499999999999998,1186.5833333333333,11.499999999999998,1189,11.499999999999998C1191.4166666666667,11.499999999999998,1193.8333333333333,11.499999999999998,1196.25,11.499999999999998C1198.6666666666667,11.499999999999998,1201.0833333333333,11.499999999999998,1203.5,11.499999999999998C1205.9166666666667,11.499999999999998,1208.3333333333333,11.499999999999998,1210.75,11.499999999999998C1213.1666666666667,11.499999999999998,1215.5833333333333,11.499999999999998,1218,11.499999999999998C1220.4166666666667,11.499999999999998,1222.8333333333333,11.499999999999998,1225.25,11.499999999999998C1227.6666666666667,11.499999999999998,1230.0833333333333,11.499999999999998,1232.5,11.499999999999998C1234.9166666666667,11.499999999999998,1237.3333333333333,11.499999999999998,1239.75,11.499999999999998C1242.1666666666667,11.499999999999998,1244.5833333333333,11.499999999999998,1247,11.499999999999998C1249.4166666666667,11.499999999999998,1251.8333333333333,11.499999999999998,1254.25,11.499999999999998C1256.6666666666667,11.499999999999998,1259.0833333333333,11.499999999999998,1261.5,11.499999999999998C1263.9166666666667,11.499999999999998,1266.3333333333333,11.499999999999998,1268.75,11.499999999999998C1271.1666666666667,11.499999999999998,1273.5833333333333,11.499999999999998,1276,11.499999999999998C1278.4166666666667,11.499999999999998,1280.8333333333333,11.499999999999998,1283.25,11.499999999999998C1285.6666666666667,11.499999999999998,1288.0833333333333,11.499999999999998,1290.5,11.499999999999998C1292.9166666666667,11.499999999999998,1295.3333333333333,11.499999999999998,1297.75,11.499999999999998C1300.1666666666667,11.499999999999998,1302.5833333333333,11.499999999999998,1305,11.499999999999998C1307.4166666666667,11.499999999999998,1309.8333333333333,11.499999999999998,1312.25,11.499999999999998C1314.6666666666667,11.499999999999998,1317.0833333333333,11.499999999999998,1319.5,11.499999999999998C1321.9166666666667,11.499999999999998,1324.3333333333333,11.499999999999998,1326.75,11.499999999999998C1329.1666666666667,11.499999999999998,1331.5833333333333,11.499999999999998,1334,11.499999999999998C1336.4166666666667,11.499999999999998,1338.8333333333333,11.499999999999998,1341.25,11.499999999999998C1343.6666666666667,11.499999999999998,1346.0833333333333,11.499999999999998,1348.5,11.499999999999998C1350.9166666666667,11.499999999999998,1353.3333333333333,11.499999999999998,1355.75,11.499999999999998C1358.1666666666667,11.499999999999998,1360.5833333333333,11.499999999999998,1363,11.499999999999998C1365.4166666666667,11.499999999999998,1367.8333333333333,11.499999999999998,1370.25,11.499999999999998C1372.6666666666667,11.499999999999998,1375.0833333333333,11.499999999999998,1377.5,11.499999999999998C1379.9166666666667,11.499999999999998,1382.3333333333333,11.499999999999998,1384.75,11.499999999999998C1387.1666666666667,11.499999999999998,1389.5833333333333,11.499999999999998,1392,11.499999999999998C1394.4166666666667,11.499999999999998,1396.8333333333333,11.499999999999998,1399.25,11.499999999999998C1401.6666666666667,11.499999999999998,1404.0833333333333,11.499999999999998,1406.5,11.499999999999998C1408.9166666666667,11.499999999999998,1411.3333333333333,11.499999999999998,1413.75,11.499999999999998C1416.1666666666667,11.499999999999998,1418.5833333333333,11.499999999999998,1421,11.499999999999998C1423.4166666666667,11.499999999999998,1425.8333333333333,11.499999999999998,1428.25,11.499999999999998C1430.6666666666667,11.499999999999998,1433.0833333333333,11.499999999999998,1435.5,11.499999999999998C1437.9166666666667,11.499999999999998,1440.3333333333333,11.499999999999998,1442.75,11.499999999999998C1445.1666666666667,11.499999999999998,1447.5833333333333,11.499999999999998,1450,11.499999999999998" fill="transparent" stroke-linecap="round" stroke="#E7C6DF" stroke-width="2"></path><g class="visx-group visx-axis visx-axis-bottom" transform="translate(0, 115)"><g class="visx-group visx-axis-tick" transform="translate(0, 0)"><line class="visx-line" x1="0" y1="0" x2="0" y2="8" fill="transparent" shape-rendering="crispEdges" stroke="#000" stroke-width="0" stroke-linecap="square"></line><svg x="0" y="0" font-size="10" style="overflow:visible"><text transform="" x="0" y="18" fill="#000" font-size="10" text-anchor="middle"><tspan x="0" dy="0em">0%</tspan></text></svg></g><g class="visx-group visx-axis-tick" transform="translate(0, 0)"><line class="visx-line" x1="362.5" y1="0" x2="362.5" y2="8" fill="transparent" shape-rendering="crispEdges" stroke="#000" stroke-width="0" stroke-linecap="square"></line><svg x="0" y="0" font-size="10" style="overflow:visible"><text transform="" x="362.5" y="18" fill="#000" font-size="10" text-anchor="middle"><tspan x="362.5" dy="0em">25%</tspan></text></svg></g><g class="visx-group visx-axis-tick" transform="translate(0, 0)"><line class="visx-line" x1="725" y1="0" x2="725" y2="8" fill="transparent" shape-rendering="crispEdges" stroke="#000" stroke-width="0" stroke-linecap="square"></line><svg x="0" y="0" font-size="10" style="overflow:visible"><text transform="" x="725" y="18" fill="#000" font-size="10" text-anchor="middle"><tspan x="725" dy="0em">50%</tspan></text></svg></g><g class="visx-group visx-axis-tick" transform="translate(0, 0)"><line class="visx-line" x1="1087.5" y1="0" x2="1087.5" y2="8" fill="transparent" shape-rendering="crispEdges" stroke="#000" stroke-width="0" stroke-linecap="square"></line><svg x="0" y="0" font-size="10" style="overflow:visible"><text transform="" x="1087.5" y="18" fill="#000" font-size="10" text-anchor="middle"><tspan x="1087.5" dy="0em">75%</tspan></text></svg></g><g class="visx-group visx-axis-tick" transform="translate(0, 0)"><line class="visx-line" x1="1450" y1="0" x2="1450" y2="8" fill="transparent" shape-rendering="crispEdges" stroke="#000" stroke-width="0" stroke-linecap="square"></line><svg x="0" y="0" font-size="10" style="overflow:visible"><text transform="" x="1450" y="18" fill="#000" font-size="10" text-anchor="middle"><tspan x="1450" dy="0em">100%</tspan></text></svg></g><line class="visx-line visx-axis-line" x1="0.5" y1="0" x2="1450.5" y2="0" fill="transparent" shape-rendering="crispEdges" stroke="#222" stroke-width="0"></line></g><g class="visx-group visx-axis visx-axis-left" transform="translate(0, 0)"><g class="visx-group visx-axis-tick" transform="translate(0, 0)"><line class="visx-line" x1="0" y1="115" x2="-8" y2="115" fill="transparent" shape-rendering="crispEdges" stroke="#222" stroke-width="0" stroke-linecap="square"></line><svg x="-30" y="0" font-size="8" style="overflow:visible"><text transform="" x="-8" y="115" fill="#000" font-size="8" text-anchor="start"><tspan x="-8" dy="0em">0%</tspan></text></svg></g><g class="visx-group visx-axis-tick" transform="translate(0, 0)"><line class="visx-line" x1="0" y1="57.5" x2="-8" y2="57.5" fill="transparent" shape-rendering="crispEdges" stroke="#222" stroke-width="0" stroke-linecap="square"></line><svg x="-30" y="0" font-size="8" style="overflow:visible"><text transform="" x="-8" y="57.5" fill="#000" font-size="8" text-anchor="start"><tspan x="-8" dy="0em">5%</tspan></text></svg></g><g class="visx-group visx-axis-tick" transform="translate(0, 0)"><line class="visx-line" x1="0" y1="0" x2="-8" y2="0" fill="transparent" shape-rendering="crispEdges" stroke="#222" stroke-width="0" stroke-linecap="square"></line><svg x="-30" y="0" font-size="8" style="overflow:visible"><text transform="" x="-8" y="0" fill="#000" font-size="8" text-anchor="start"><tspan x="-8" dy="0em">10%</tspan></text></svg></g><line class="visx-line visx-axis-line" x1="0" y1="115.5" x2="0" y2="0.5" fill="transparent" shape-rendering="crispEdges" stroke="#222" stroke-width="0"></line></g><rect class="visx-bar" width="1450" height="115" fill="transparent"></rect><line class="visx-line" x1="652.5" y1="28" x2="652.5" y2="115" fill="transparent" shape-rendering="crispEdges" stroke="#0062D2" stroke-width="1" pointer-events="none" stroke-dasharray="5,2"></line><svg x="0" y="0" font-size="10px" style="overflow:visible"><text transform="" x="652.5" y="20" font-size="10px" fill="#fff" stroke="#fff" stroke-width="0.8em" text-anchor="middle"><tspan x="652.5" dy="0.355em">Optimal 45%</tspan></text></svg><svg x="0" y="0" font-size="10px" style="overflow:visible"><text transform="" x="652.5" y="20" font-size="10px" fill="#62677B" text-anchor="middle"><tspan x="652.5" dy="0.355em">Optimal 45%</tspan></text></svg></g></svg>