<?xml version="1.0"?><svg xmlns="http://www.w3.org/2000/svg" xmlns:xlink= "http://www.w3.org/1999/xlink" width="1500" height="155"><g class="visx-group" transform="translate(40, 20)"><g class="visx-group visx-rows" transform="translate(0, 0)"><line class="visx-line" x1="0" y1="115" x2="1450" y2="115" fill="transparent" shape-rendering="crispEdges" stroke="#000" stroke-width="1" stroke-dasharray="3,3" pointer-events="none"></line><line class="visx-line" x1="0" y1="79.61538461538461" x2="1450" y2="79.61538461538461" fill="transparent" shape-rendering="crispEdges" stroke="#000" stroke-width="1" stroke-dasharray="3,3" pointer-events="none"></line><line class="visx-line" x1="0" y1="44.230769230769226" x2="1450" y2="44.230769230769226" fill="transparent" shape-rendering="crispEdges" stroke="#000" stroke-width="1" stroke-dasharray="3,3" pointer-events="none"></line><line class="visx-line" x1="0" y1="8.84615384615384" x2="1450" y2="8.84615384615384" fill="transparent" shape-rendering="crispEdges" stroke="#000" stroke-width="1" stroke-dasharray="3,3" pointer-events="none"></line></g><path class="visx-linepath" d="M0,110.57692307515384C2.4166666666666665,110.28205128101924,4.833333333333334,109.98717948688461,7.25,109.6923076923077C9.666666666666666,109.39743589773077,12.083333333333334,109.1025641025641,14.5,108.8076923076923C16.916666666666668,108.51282051282051,19.333333333333332,108.21794871794872,21.75,107.92307692307692C24.166666666666668,107.62820512820512,26.583333333333332,107.33333333333334,29,107.03846153846155C31.416666666666668,106.74358974358975,33.833333333333336,106.44871794871796,36.25,106.15384615384616C38.666666666666664,105.85897435897436,41.083333333333336,105.56410256410255,43.5,105.26923076923076C45.91666666666667,104.97435897435896,48.333333333333336,104.67948717948718,50.75000000000001,104.38461538461539C53.16666666666667,104.08974358974359,55.583333333333336,103.7948717948718,58,103.5C60.416666666666664,103.2051282051282,62.833333333333336,102.91025641025641,65.25,102.61538461538461C67.66666666666667,102.32051282051282,70.08333333333333,102.02564102564102,72.5,101.73076923076923C74.91666666666667,101.43589743589743,77.33333333333333,101.14102564102564,79.75,100.84615384615384C82.16666666666667,100.55128205128204,84.58333333333333,100.25641025641026,87,99.96153846153847C89.41666666666667,99.66666666666667,91.83333333333333,99.37179487179488,94.25,99.07692307692308C96.66666666666667,98.78205128205128,99.08333333333334,98.4871794871795,101.50000000000001,98.19230769230771C103.91666666666667,97.89743589743591,106.33333333333334,97.6025641025641,108.75,97.3076923076923C111.16666666666667,97.01282051282051,113.58333333333333,96.71794871794872,116,96.42307692307692C118.41666666666667,96.12820512820512,120.83333333333334,95.83333333333334,123.25000000000001,95.53846153846155C125.66666666666667,95.24358974358975,128.08333333333334,94.94871794871794,130.5,94.65384615384615C132.91666666666666,94.35897435897435,135.33333333333334,94.06410256410257,137.75,93.76923076923077C140.16666666666666,93.47435897435898,142.58333333333334,93.17948717948718,145,92.88461538461539C147.41666666666666,92.58974358974359,149.83333333333334,92.2948717948718,152.25,92C154.66666666666666,91.7051282051282,157.08333333333334,91.41025641025641,159.5,91.11538461538461C161.91666666666666,90.82051282051282,164.33333333333334,90.52564102564102,166.75,90.23076923076923C169.16666666666666,89.93589743589743,171.58333333333334,89.64102564102564,174,89.34615384615384C176.41666666666666,89.05128205128204,178.83333333333334,88.75641025641025,181.25,88.46153846153845C183.66666666666666,88.16666666666666,186.08333333333334,87.87179487179486,188.5,87.57692307692307C190.91666666666666,87.28205128205127,193.33333333333334,86.98717948717949,195.75,86.6923076923077C198.16666666666669,86.3974358974359,200.58333333333334,86.1025641025641,203.00000000000003,85.8076923076923C205.41666666666669,85.51282051282051,207.83333333333331,85.21794871794873,210.24999999999997,84.92307692307693C212.66666666666666,84.62820512820514,215.08333333333331,84.33333333333333,217.5,84.03846153846153C219.91666666666666,83.74358974358974,222.33333333333334,83.44871794871796,224.75,83.15384615384616C227.16666666666666,82.85897435897436,229.58333333333334,82.56410256410257,232,82.26923076923077C234.41666666666666,81.97435897435898,236.83333333333334,81.67948717948718,239.25,81.38461538461539C241.66666666666669,81.08974358974359,244.08333333333334,80.7948717948718,246.50000000000003,80.5C248.91666666666669,80.2051282051282,251.33333333333331,79.91025641025641,253.74999999999997,79.61538461538461C256.16666666666663,79.32051282051282,258.5833333333333,79.02564102564102,261,78.73076923076923C263.4166666666667,78.43589743589743,265.8333333333333,78.14102564102565,268.25,77.84615384615385C270.6666666666667,77.55128205128206,273.0833333333333,77.25641025641026,275.5,76.96153846153847C277.9166666666667,76.66666666666667,280.3333333333333,76.37179487179489,282.75,76.0769230769231C285.1666666666667,75.7820512820513,287.5833333333333,75.48717948717949,290,75.1923076923077C292.4166666666667,74.8974358974359,294.8333333333333,74.6025641025641,297.25,74.3076923076923C299.6666666666667,74.01282051282051,302.0833333333333,73.71794871794872,304.5,73.42307692307692C306.9166666666667,73.12820512820512,309.3333333333333,72.83333333333333,311.75,72.53846153846153C314.1666666666667,72.24358974358974,316.5833333333333,71.94871794871796,319,71.65384615384616C321.4166666666667,71.35897435897436,323.8333333333333,71.06410256410257,326.25,70.76923076923077C328.6666666666667,70.47435897435898,331.0833333333333,70.17948717948718,333.5,69.88461538461539C335.9166666666667,69.58974358974359,338.3333333333333,69.2948717948718,340.75,69C343.1666666666667,68.7051282051282,345.5833333333333,68.41025641025641,348,68.11538461538461C350.4166666666667,67.82051282051282,352.8333333333333,67.52564102564102,355.25,67.23076923076923C357.6666666666667,66.93589743589743,360.0833333333333,66.64102564102564,362.5,66.34615384615384C364.9166666666667,66.05128205128204,367.3333333333333,65.75641025641025,369.75,65.46153846153845C372.1666666666667,65.16666666666666,374.5833333333333,64.87179487179488,377,64.57692307692308C379.4166666666667,64.28205128205128,381.8333333333333,63.98717948717948,384.25,63.692307692307686C386.6666666666667,63.39743589743589,389.0833333333333,63.10256410256411,391.5,62.807692307692314C393.9166666666667,62.51282051282052,396.33333333333337,62.217948717948715,398.75000000000006,61.92307692307692C401.16666666666674,61.628205128205124,403.58333333333337,61.333333333333336,406.00000000000006,61.03846153846154C408.4166666666667,60.743589743589745,410.8333333333333,60.44871794871794,413.24999999999994,60.153846153846146C415.66666666666663,59.85897435897435,418.08333333333326,59.564102564102555,420.49999999999994,59.26923076923076C422.91666666666663,58.974358974358964,425.3333333333333,58.679487179487175,427.75,58.38461538461538C430.1666666666667,58.08974358974359,432.5833333333333,57.794871794871796,435,57.5C437.4166666666667,57.205128205128204,439.8333333333333,56.9102564102564,442.25,56.615384615384606C444.6666666666667,56.32051282051281,447.0833333333333,56.02564102564102,449.5,55.730769230769226C451.9166666666667,55.43589743589743,454.3333333333333,55.141025641025635,456.75,54.84615384615384C459.1666666666667,54.551282051282044,461.5833333333333,54.256410256410255,464,53.96153846153846C466.4166666666667,53.666666666666664,468.8333333333333,53.37179487179486,471.25,53.076923076923066C473.6666666666667,52.78205128205127,476.0833333333333,52.48717948717949,478.5,52.1923076923077C480.9166666666667,51.897435897435905,483.33333333333337,51.60256410256411,485.75000000000006,51.307692307692314C488.16666666666674,51.01282051282052,490.58333333333337,50.717948717948715,493.00000000000006,50.42307692307692C495.4166666666667,50.128205128205124,497.8333333333333,49.83333333333333,500.24999999999994,49.53846153846154C502.66666666666663,49.243589743589745,505.08333333333326,48.948717948717956,507.49999999999994,48.65384615384616C509.91666666666663,48.358974358974365,512.3333333333333,48.064102564102576,514.75,47.76923076923078C517.1666666666666,47.474358974358985,519.5833333333334,47.17948717948718,522,46.88461538461539C524.4166666666666,46.58974358974359,526.8333333333334,46.294871794871796,529.25,46C531.6666666666666,45.705128205128204,534.0833333333334,45.4102564102564,536.5,45.115384615384606C538.9166666666666,44.82051282051281,541.3333333333334,44.52564102564102,543.75,44.230769230769226C546.1666666666666,43.93589743589743,548.5833333333334,43.64102564102564,551,43.34615384615385C553.4166666666666,43.05128205128205,555.8333333333334,42.75641025641025,558.25,42.46153846153845C560.6666666666666,42.16666666666666,563.0833333333334,41.87179487179487,565.5,41.57692307692307C567.9166666666666,41.28205128205128,570.3333333333334,40.98717948717948,572.75,40.692307692307686C575.1666666666666,40.39743589743589,577.5833333333334,40.1025641025641,580,39.80769230769231C582.4166666666666,39.51282051282051,584.8333333333334,39.21794871794872,587.25,38.92307692307693C589.6666666666666,38.62820512820513,592.0833333333334,38.33333333333334,594.5,38.03846153846155C596.9166666666666,37.74358974358975,599.3333333333334,37.448717948717956,601.75,37.15384615384616C604.1666666666666,36.858974358974365,606.5833333333334,36.56410256410256,609,36.26923076923077C611.4166666666666,35.97435897435897,613.8333333333334,35.67948717948718,616.25,35.38461538461539C618.6666666666666,35.08974358974359,621.0833333333334,34.7948717948718,623.5,34.50000000000001C625.9166666666666,34.20512820512821,628.3333333333334,33.910256410256416,630.75,33.61538461538462C633.1666666666666,33.320512820512825,635.5833333333334,33.02564102564102,638,32.730769230769226C640.4166666666666,32.43589743589743,642.8333333333334,32.14102564102564,645.25,31.846153846153847C647.6666666666666,31.551282051282055,650.0833333333334,30.961538461538467,652.5,30.961538461538467C654.9166666666666,30.961538461538467,657.3333333333334,30.961538461538467,659.75,30.961538461538467C662.1666666666666,30.961538461538467,664.5833333333334,30.961538461538467,667,30.961538461538467C669.4166666666666,30.961538461538467,671.8333333333334,30.961538461538467,674.25,30.961538461538467C676.6666666666666,30.961538461538467,679.0833333333334,30.961538461538467,681.5,30.961538461538467C683.9166666666666,30.961538461538467,686.3333333333334,30.961538461538467,688.75,30.961538461538467C691.1666666666666,30.961538461538467,693.5833333333334,30.961538461538467,696,30.961538461538467C698.4166666666666,30.961538461538467,700.8333333333334,30.961538461538467,703.25,30.961538461538467C705.6666666666666,30.961538461538467,708.0833333333334,30.961538461538467,710.5,30.961538461538467C712.9166666666666,30.961538461538467,715.3333333333334,30.961538461538467,717.75,30.961538461538467C720.1666666666666,30.961538461538467,722.5833333333334,30.961538461538467,725,30.961538461538467C727.4166666666666,30.961538461538467,729.8333333333334,30.961538461538467,732.25,30.961538461538467C734.6666666666666,30.961538461538467,737.0833333333334,30.961538461538467,739.5,30.961538461538467C741.9166666666666,30.961538461538467,744.3333333333334,30.961538461538467,746.75,30.961538461538467C749.1666666666666,30.961538461538467,751.5833333333334,30.961538461538467,754,30.961538461538467C756.4166666666666,30.961538461538467,758.8333333333334,30.961538461538467,761.25,30.961538461538467C763.6666666666666,30.961538461538467,766.0833333333334,30.961538461538467,768.5,30.961538461538467C770.9166666666666,30.961538461538467,773.3333333333334,30.961538461538467,775.75,30.961538461538467C778.1666666666666,30.961538461538467,780.5833333333334,30.961538461538467,783,30.961538461538467C785.4166666666667,30.961538461538467,787.8333333333334,30.961538461538467,790.2500000000001,30.961538461538467C792.6666666666667,30.961538461538467,795.0833333333335,30.961538461538467,797.5000000000001,30.961538461538467C799.9166666666667,30.961538461538467,802.3333333333335,30.961538461538467,804.7500000000001,30.961538461538467C807.1666666666667,30.961538461538467,809.5833333333335,30.961538461538467,812.0000000000001,30.961538461538467C814.4166666666667,30.961538461538467,816.8333333333333,30.961538461538467,819.2499999999999,30.961538461538467C821.6666666666665,30.961538461538467,824.0833333333333,30.961538461538467,826.4999999999999,30.961538461538467C828.9166666666665,30.961538461538467,831.3333333333333,30.961538461538467,833.7499999999999,30.961538461538467C836.1666666666665,30.961538461538467,838.5833333333333,30.961538461538467,840.9999999999999,30.961538461538467C843.4166666666666,30.961538461538467,845.8333333333333,30.961538461538467,848.25,30.961538461538467C850.6666666666666,30.961538461538467,853.0833333333334,30.961538461538467,855.5,30.961538461538467C857.9166666666666,30.961538461538467,860.3333333333334,30.961538461538467,862.75,30.961538461538467C865.1666666666666,30.961538461538467,867.5833333333334,30.961538461538467,870,30.961538461538467C872.4166666666666,30.961538461538467,874.8333333333334,30.961538461538467,877.25,30.961538461538467C879.6666666666666,30.961538461538467,882.0833333333334,30.961538461538467,884.5,30.961538461538467C886.9166666666666,30.961538461538467,889.3333333333334,30.961538461538467,891.75,30.961538461538467C894.1666666666666,30.961538461538467,896.5833333333334,30.961538461538467,899,30.961538461538467C901.4166666666666,30.961538461538467,903.8333333333334,30.961538461538467,906.25,30.961538461538467C908.6666666666666,30.961538461538467,911.0833333333334,30.961538461538467,913.5,30.961538461538467C915.9166666666666,30.961538461538467,918.3333333333334,30.961538461538467,920.75,30.961538461538467C923.1666666666666,30.961538461538467,925.5833333333334,30.961538461538467,928,30.961538461538467C930.4166666666666,30.961538461538467,932.8333333333334,30.961538461538467,935.25,30.961538461538467C937.6666666666666,30.961538461538467,940.0833333333334,30.961538461538467,942.5,30.961538461538467C944.9166666666666,30.961538461538467,947.3333333333334,30.961538461538467,949.75,30.961538461538467C952.1666666666666,30.961538461538467,954.5833333333334,30.961538461538467,957,30.961538461538467C959.4166666666666,30.961538461538467,961.8333333333334,30.961538461538467,964.25,30.961538461538467C966.6666666666667,30.961538461538467,969.0833333333334,30.961538461538467,971.5000000000001,30.961538461538467C973.9166666666667,30.961538461538467,976.3333333333335,30.961538461538467,978.7500000000001,30.961538461538467C981.1666666666667,30.961538461538467,983.5833333333335,30.961538461538467,986.0000000000001,30.961538461538467C988.4166666666667,30.961538461538467,990.8333333333335,30.961538461538467,993.2500000000001,30.961538461538467C995.6666666666667,30.961538461538467,998.0833333333333,30.961538461538467,1000.4999999999999,30.961538461538467C1002.9166666666665,30.961538461538467,1005.3333333333333,30.961538461538467,1007.7499999999999,30.961538461538467C1010.1666666666665,30.961538461538467,1012.5833333333333,30.961538461538467,1014.9999999999999,30.961538461538467C1017.4166666666665,30.961538461538467,1019.8333333333333,30.961538461538467,1022.2499999999999,30.961538461538467C1024.6666666666665,30.961538461538467,1027.0833333333333,30.961538461538467,1029.5,30.961538461538467C1031.9166666666667,30.961538461538467,1034.3333333333333,30.961538461538467,1036.75,30.961538461538467C1039.1666666666667,30.961538461538467,1041.5833333333333,30.961538461538467,1044,30.961538461538467C1046.4166666666667,30.961538461538467,1048.8333333333333,30.961538461538467,1051.25,30.961538461538467C1053.6666666666667,30.961538461538467,1056.0833333333333,30.961538461538467,1058.5,30.961538461538467C1060.9166666666667,30.961538461538467,1063.3333333333333,30.961538461538467,1065.75,30.961538461538467C1068.1666666666667,30.961538461538467,1070.5833333333333,30.961538461538467,1073,30.961538461538467C1075.4166666666667,30.961538461538467,1077.8333333333333,30.961538461538467,1080.25,30.961538461538467C1082.6666666666667,30.961538461538467,1085.0833333333333,30.961538461538467,1087.5,30.961538461538467C1089.9166666666667,30.961538461538467,1092.3333333333333,30.961538461538467,1094.75,30.961538461538467C1097.1666666666667,30.961538461538467,1099.5833333333333,30.961538461538467,1102,30.961538461538467C1104.4166666666667,30.961538461538467,1106.8333333333333,30.961538461538467,1109.25,30.961538461538467C1111.6666666666667,30.961538461538467,1114.0833333333333,30.961538461538467,1116.5,30.961538461538467C1118.9166666666667,30.961538461538467,1121.3333333333333,30.961538461538467,1123.75,30.961538461538467C1126.1666666666667,30.961538461538467,1128.5833333333333,30.961538461538467,1131,30.961538461538467C1133.4166666666667,30.961538461538467,1135.8333333333333,30.961538461538467,1138.25,30.961538461538467C1140.6666666666667,30.961538461538467,1143.0833333333333,30.961538461538467,1145.5,30.961538461538467C1147.9166666666667,30.961538461538467,1150.3333333333333,30.961538461538467,1152.75,30.961538461538467C1155.1666666666667,30.961538461538467,1157.5833333333333,30.961538461538467,1160,30.961538461538467C1162.4166666666667,30.961538461538467,1164.8333333333333,30.961538461538467,1167.25,30.961538461538467C1169.6666666666667,30.961538461538467,1172.0833333333333,30.961538461538467,1174.5,30.961538461538467C1176.9166666666667,30.961538461538467,1179.3333333333333,30.961538461538467,1181.75,30.961538461538467C1184.1666666666667,30.961538461538467,1186.5833333333333,30.961538461538467,1189,30.961538461538467C1191.4166666666667,30.961538461538467,1193.8333333333333,30.961538461538467,1196.25,30.961538461538467C1198.6666666666667,30.961538461538467,1201.0833333333333,30.961538461538467,1203.5,30.961538461538467C1205.9166666666667,30.961538461538467,1208.3333333333333,30.961538461538467,1210.75,30.961538461538467C1213.1666666666667,30.961538461538467,1215.5833333333333,30.961538461538467,1218,30.961538461538467C1220.4166666666667,30.961538461538467,1222.8333333333333,30.961538461538467,1225.25,30.961538461538467C1227.6666666666667,30.961538461538467,1230.0833333333333,30.961538461538467,1232.5,30.961538461538467C1234.9166666666667,30.961538461538467,1237.3333333333333,30.961538461538467,1239.75,30.961538461538467C1242.1666666666667,30.961538461538467,1244.5833333333333,30.961538461538467,1247,30.961538461538467C1249.4166666666667,30.961538461538467,1251.8333333333333,30.961538461538467,1254.25,30.961538461538467C1256.6666666666667,30.961538461538467,1259.0833333333333,30.961538461538467,1261.5,30.961538461538467C1263.9166666666667,30.961538461538467,1266.3333333333333,30.961538461538467,1268.75,30.961538461538467C1271.1666666666667,30.961538461538467,1273.5833333333333,30.961538461538467,1276,30.961538461538467C1278.4166666666667,30.961538461538467,1280.8333333333333,30.961538461538467,1283.25,30.961538461538467C1285.6666666666667,30.961538461538467,1288.0833333333333,30.961538461538467,1290.5,30.961538461538467C1292.9166666666667,30.961538461538467,1295.3333333333333,30.961538461538467,1297.75,30.961538461538467C1300.1666666666667,30.961538461538467,1302.5833333333333,30.961538461538467,1305,30.961538461538467C1307.4166666666667,30.961538461538467,1309.8333333333333,30.961538461538467,1312.25,30.961538461538467C1314.6666666666667,30.961538461538467,1317.0833333333333,30.961538461538467,1319.5,30.961538461538467C1321.9166666666667,30.961538461538467,1324.3333333333333,30.961538461538467,1326.75,30.961538461538467C1329.1666666666667,30.961538461538467,1331.5833333333333,30.961538461538467,1334,30.961538461538467C1336.4166666666667,30.961538461538467,1338.8333333333333,30.961538461538467,1341.25,30.961538461538467C1343.6666666666667,30.961538461538467,1346.0833333333333,30.961538461538467,1348.5,30.961538461538467C1350.9166666666667,30.961538461538467,1353.3333333333333,30.961538461538467,1355.75,30.961538461538467C1358.1666666666667,30.961538461538467,1360.5833333333333,30.961538461538467,1363,30.961538461538467C1365.4166666666667,30.961538461538467,1367.8333333333333,30.961538461538467,1370.25,30.961538461538467C1372.6666666666667,30.961538461538467,1375.0833333333333,30.961538461538467,1377.5,30.961538461538467C1379.9166666666667,30.961538461538467,1382.3333333333333,30.961538461538467,1384.75,30.961538461538467C1387.1666666666667,30.961538461538467,1389.5833333333333,30.961538461538467,1392,30.961538461538467C1394.4166666666667,30.961538461538467,1396.8333333333333,30.961538461538467,1399.25,30.961538461538467C1401.6666666666667,30.961538461538467,1404.0833333333333,30.961538461538467,1406.5,30.961538461538467C1408.9166666666667,30.961538461538467,1411.3333333333333,30.961538461538467,1413.75,30.961538461538467C1416.1666666666667,30.961538461538467,1418.5833333333333,30.961538461538467,1421,30.961538461538467C1423.4166666666667,30.961538461538467,1425.8333333333333,30.961538461538467,1428.25,30.961538461538467C1430.6666666666667,30.961538461538467,1433.0833333333333,30.961538461538467,1435.5,30.961538461538467C1437.9166666666667,30.961538461538467,1440.3333333333333,30.961538461538467,1442.75,30.961538461538467C1445.1666666666667,30.961538461538467,1447.5833333333333,30.961538461538467,1450,30.961538461538467" fill="transparent" stroke-linecap="round" stroke="#B6509E" stroke-width="2"></path><path class="visx-linepath" d="M0,17.692307692307693C2.4166666666666665,17.692307692307693,4.833333333333334,17.692307692307693,7.25,17.692307692307693C9.666666666666666,17.692307692307693,12.083333333333334,17.692307692307693,14.5,17.692307692307693C16.916666666666668,17.692307692307693,19.333333333333332,17.692307692307693,21.75,17.692307692307693C24.166666666666668,17.692307692307693,26.583333333333332,17.692307692307693,29,17.692307692307693C31.416666666666668,17.692307692307693,33.833333333333336,17.692307692307693,36.25,17.692307692307693C38.666666666666664,17.692307692307693,41.083333333333336,17.692307692307693,43.5,17.692307692307693C45.91666666666667,17.692307692307693,48.333333333333336,17.692307692307693,50.75000000000001,17.692307692307693C53.16666666666667,17.692307692307693,55.583333333333336,17.692307692307693,58,17.692307692307693C60.416666666666664,17.692307692307693,62.833333333333336,17.692307692307693,65.25,17.692307692307693C67.66666666666667,17.692307692307693,70.08333333333333,17.692307692307693,72.5,17.692307692307693C74.91666666666667,17.692307692307693,77.33333333333333,17.692307692307693,79.75,17.692307692307693C82.16666666666667,17.692307692307693,84.58333333333333,17.692307692307693,87,17.692307692307693C89.41666666666667,17.692307692307693,91.83333333333333,17.692307692307693,94.25,17.692307692307693C96.66666666666667,17.692307692307693,99.08333333333334,17.692307692307693,101.50000000000001,17.692307692307693C103.91666666666667,17.692307692307693,106.33333333333334,17.692307692307693,108.75,17.692307692307693C111.16666666666667,17.692307692307693,113.58333333333333,17.692307692307693,116,17.692307692307693C118.41666666666667,17.692307692307693,120.83333333333334,17.692307692307693,123.25000000000001,17.692307692307693C125.66666666666667,17.692307692307693,128.08333333333334,17.692307692307693,130.5,17.692307692307693C132.91666666666666,17.692307692307693,135.33333333333334,17.692307692307693,137.75,17.692307692307693C140.16666666666666,17.692307692307693,142.58333333333334,17.692307692307693,145,17.692307692307693C147.41666666666666,17.692307692307693,149.83333333333334,17.692307692307693,152.25,17.692307692307693C154.66666666666666,17.692307692307693,157.08333333333334,17.692307692307693,159.5,17.692307692307693C161.91666666666666,17.692307692307693,164.33333333333334,17.692307692307693,166.75,17.692307692307693C169.16666666666666,17.692307692307693,171.58333333333334,17.692307692307693,174,17.692307692307693C176.41666666666666,17.692307692307693,178.83333333333334,17.692307692307693,181.25,17.692307692307693C183.66666666666666,17.692307692307693,186.08333333333334,17.692307692307693,188.5,17.692307692307693C190.91666666666666,17.692307692307693,193.33333333333334,17.692307692307693,195.75,17.692307692307693C198.16666666666669,17.692307692307693,200.58333333333334,17.692307692307693,203.00000000000003,17.692307692307693C205.41666666666669,17.692307692307693,207.83333333333331,17.692307692307693,210.24999999999997,17.692307692307693C212.66666666666666,17.692307692307693,215.08333333333331,17.692307692307693,217.5,17.692307692307693C219.91666666666666,17.692307692307693,222.33333333333334,17.692307692307693,224.75,17.692307692307693C227.16666666666666,17.692307692307693,229.58333333333334,17.692307692307693,232,17.692307692307693C234.41666666666666,17.692307692307693,236.83333333333334,17.692307692307693,239.25,17.692307692307693C241.66666666666669,17.692307692307693,244.08333333333334,17.692307692307693,246.50000000000003,17.692307692307693C248.91666666666669,17.692307692307693,251.33333333333331,17.692307692307693,253.74999999999997,17.692307692307693C256.16666666666663,17.692307692307693,258.5833333333333,17.692307692307693,261,17.692307692307693C263.4166666666667,17.692307692307693,265.8333333333333,17.692307692307693,268.25,17.692307692307693C270.6666666666667,17.692307692307693,273.0833333333333,17.692307692307693,275.5,17.692307692307693C277.9166666666667,17.692307692307693,280.3333333333333,17.692307692307693,282.75,17.692307692307693C285.1666666666667,17.692307692307693,287.5833333333333,17.692307692307693,290,17.692307692307693C292.4166666666667,17.692307692307693,294.8333333333333,17.692307692307693,297.25,17.692307692307693C299.6666666666667,17.692307692307693,302.0833333333333,17.692307692307693,304.5,17.692307692307693C306.9166666666667,17.692307692307693,309.3333333333333,17.692307692307693,311.75,17.692307692307693C314.1666666666667,17.692307692307693,316.5833333333333,17.692307692307693,319,17.692307692307693C321.4166666666667,17.692307692307693,323.8333333333333,17.692307692307693,326.25,17.692307692307693C328.6666666666667,17.692307692307693,331.0833333333333,17.692307692307693,333.5,17.692307692307693C335.9166666666667,17.692307692307693,338.3333333333333,17.692307692307693,340.75,17.692307692307693C343.1666666666667,17.692307692307693,345.5833333333333,17.692307692307693,348,17.692307692307693C350.4166666666667,17.692307692307693,352.8333333333333,17.692307692307693,355.25,17.692307692307693C357.6666666666667,17.692307692307693,360.0833333333333,17.692307692307693,362.5,17.692307692307693C364.9166666666667,17.692307692307693,367.3333333333333,17.692307692307693,369.75,17.692307692307693C372.1666666666667,17.692307692307693,374.5833333333333,17.692307692307693,377,17.692307692307693C379.4166666666667,17.692307692307693,381.8333333333333,17.692307692307693,384.25,17.692307692307693C386.6666666666667,17.692307692307693,389.0833333333333,17.692307692307693,391.5,17.692307692307693C393.9166666666667,17.692307692307693,396.33333333333337,17.692307692307693,398.75000000000006,17.692307692307693C401.16666666666674,17.692307692307693,403.58333333333337,17.692307692307693,406.00000000000006,17.692307692307693C408.4166666666667,17.692307692307693,410.8333333333333,17.692307692307693,413.24999999999994,17.692307692307693C415.66666666666663,17.692307692307693,418.08333333333326,17.692307692307693,420.49999999999994,17.692307692307693C422.91666666666663,17.692307692307693,425.3333333333333,17.692307692307693,427.75,17.692307692307693C430.1666666666667,17.692307692307693,432.5833333333333,17.692307692307693,435,17.692307692307693C437.4166666666667,17.692307692307693,439.8333333333333,17.692307692307693,442.25,17.692307692307693C444.6666666666667,17.692307692307693,447.0833333333333,17.692307692307693,449.5,17.692307692307693C451.9166666666667,17.692307692307693,454.3333333333333,17.692307692307693,456.75,17.692307692307693C459.1666666666667,17.692307692307693,461.5833333333333,17.692307692307693,464,17.692307692307693C466.4166666666667,17.692307692307693,468.8333333333333,17.692307692307693,471.25,17.692307692307693C473.6666666666667,17.692307692307693,476.0833333333333,17.692307692307693,478.5,17.692307692307693C480.9166666666667,17.692307692307693,483.33333333333337,17.692307692307693,485.75000000000006,17.692307692307693C488.16666666666674,17.692307692307693,490.58333333333337,17.692307692307693,493.00000000000006,17.692307692307693C495.4166666666667,17.692307692307693,497.8333333333333,17.692307692307693,500.24999999999994,17.692307692307693C502.66666666666663,17.692307692307693,505.08333333333326,17.692307692307693,507.49999999999994,17.692307692307693C509.91666666666663,17.692307692307693,512.3333333333333,17.692307692307693,514.75,17.692307692307693C517.1666666666666,17.692307692307693,519.5833333333334,17.692307692307693,522,17.692307692307693C524.4166666666666,17.692307692307693,526.8333333333334,17.692307692307693,529.25,17.692307692307693C531.6666666666666,17.692307692307693,534.0833333333334,17.692307692307693,536.5,17.692307692307693C538.9166666666666,17.692307692307693,541.3333333333334,17.692307692307693,543.75,17.692307692307693C546.1666666666666,17.692307692307693,548.5833333333334,17.692307692307693,551,17.692307692307693C553.4166666666666,17.692307692307693,555.8333333333334,17.692307692307693,558.25,17.692307692307693C560.6666666666666,17.692307692307693,563.0833333333334,17.692307692307693,565.5,17.692307692307693C567.9166666666666,17.692307692307693,570.3333333333334,17.692307692307693,572.75,17.692307692307693C575.1666666666666,17.692307692307693,577.5833333333334,17.692307692307693,580,17.692307692307693C582.4166666666666,17.692307692307693,584.8333333333334,17.692307692307693,587.25,17.692307692307693C589.6666666666666,17.692307692307693,592.0833333333334,17.692307692307693,594.5,17.692307692307693C596.9166666666666,17.692307692307693,599.3333333333334,17.692307692307693,601.75,17.692307692307693C604.1666666666666,17.692307692307693,606.5833333333334,17.692307692307693,609,17.692307692307693C611.4166666666666,17.692307692307693,613.8333333333334,17.692307692307693,616.25,17.692307692307693C618.6666666666666,17.692307692307693,621.0833333333334,17.692307692307693,623.5,17.692307692307693C625.9166666666666,17.692307692307693,628.3333333333334,17.692307692307693,630.75,17.692307692307693C633.1666666666666,17.692307692307693,635.5833333333334,17.692307692307693,638,17.692307692307693C640.4166666666666,17.692307692307693,642.8333333333334,17.692307692307693,645.25,17.692307692307693C647.6666666666666,17.692307692307693,650.0833333333334,17.692307692307693,652.5,17.692307692307693C654.9166666666666,17.692307692307693,657.3333333333334,17.692307692307693,659.75,17.692307692307693C662.1666666666666,17.692307692307693,664.5833333333334,17.692307692307693,667,17.692307692307693C669.4166666666666,17.692307692307693,671.8333333333334,17.692307692307693,674.25,17.692307692307693C676.6666666666666,17.692307692307693,679.0833333333334,17.692307692307693,681.5,17.692307692307693C683.9166666666666,17.692307692307693,686.3333333333334,17.692307692307693,688.75,17.692307692307693C691.1666666666666,17.692307692307693,693.5833333333334,17.692307692307693,696,17.692307692307693C698.4166666666666,17.692307692307693,700.8333333333334,17.692307692307693,703.25,17.692307692307693C705.6666666666666,17.692307692307693,708.0833333333334,17.692307692307693,710.5,17.692307692307693C712.9166666666666,17.692307692307693,715.3333333333334,17.692307692307693,717.75,17.692307692307693C720.1666666666666,17.692307692307693,722.5833333333334,17.692307692307693,725,17.692307692307693C727.4166666666666,17.692307692307693,729.8333333333334,17.692307692307693,732.25,17.692307692307693C734.6666666666666,17.692307692307693,737.0833333333334,17.692307692307693,739.5,17.692307692307693C741.9166666666666,17.692307692307693,744.3333333333334,17.692307692307693,746.75,17.692307692307693C749.1666666666666,17.692307692307693,751.5833333333334,17.692307692307693,754,17.692307692307693C756.4166666666666,17.692307692307693,758.8333333333334,17.692307692307693,761.25,17.692307692307693C763.6666666666666,17.692307692307693,766.0833333333334,17.692307692307693,768.5,17.692307692307693C770.9166666666666,17.692307692307693,773.3333333333334,17.692307692307693,775.75,17.692307692307693C778.1666666666666,17.692307692307693,780.5833333333334,17.692307692307693,783,17.692307692307693C785.4166666666667,17.692307692307693,787.8333333333334,17.692307692307693,790.2500000000001,17.692307692307693C792.6666666666667,17.692307692307693,795.0833333333335,17.692307692307693,797.5000000000001,17.692307692307693C799.9166666666667,17.692307692307693,802.3333333333335,17.692307692307693,804.7500000000001,17.692307692307693C807.1666666666667,17.692307692307693,809.5833333333335,17.692307692307693,812.0000000000001,17.692307692307693C814.4166666666667,17.692307692307693,816.8333333333333,17.692307692307693,819.2499999999999,17.692307692307693C821.6666666666665,17.692307692307693,824.0833333333333,17.692307692307693,826.4999999999999,17.692307692307693C828.9166666666665,17.692307692307693,831.3333333333333,17.692307692307693,833.7499999999999,17.692307692307693C836.1666666666665,17.692307692307693,838.5833333333333,17.692307692307693,840.9999999999999,17.692307692307693C843.4166666666666,17.692307692307693,845.8333333333333,17.692307692307693,848.25,17.692307692307693C850.6666666666666,17.692307692307693,853.0833333333334,17.692307692307693,855.5,17.692307692307693C857.9166666666666,17.692307692307693,860.3333333333334,17.692307692307693,862.75,17.692307692307693C865.1666666666666,17.692307692307693,867.5833333333334,17.692307692307693,870,17.692307692307693C872.4166666666666,17.692307692307693,874.8333333333334,17.692307692307693,877.25,17.692307692307693C879.6666666666666,17.692307692307693,882.0833333333334,17.692307692307693,884.5,17.692307692307693C886.9166666666666,17.692307692307693,889.3333333333334,17.692307692307693,891.75,17.692307692307693C894.1666666666666,17.692307692307693,896.5833333333334,17.692307692307693,899,17.692307692307693C901.4166666666666,17.692307692307693,903.8333333333334,17.692307692307693,906.25,17.692307692307693C908.6666666666666,17.692307692307693,911.0833333333334,17.692307692307693,913.5,17.692307692307693C915.9166666666666,17.692307692307693,918.3333333333334,17.692307692307693,920.75,17.692307692307693C923.1666666666666,17.692307692307693,925.5833333333334,17.692307692307693,928,17.692307692307693C930.4166666666666,17.692307692307693,932.8333333333334,17.692307692307693,935.25,17.692307692307693C937.6666666666666,17.692307692307693,940.0833333333334,17.692307692307693,942.5,17.692307692307693C944.9166666666666,17.692307692307693,947.3333333333334,17.692307692307693,949.75,17.692307692307693C952.1666666666666,17.692307692307693,954.5833333333334,17.692307692307693,957,17.692307692307693C959.4166666666666,17.692307692307693,961.8333333333334,17.692307692307693,964.25,17.692307692307693C966.6666666666667,17.692307692307693,969.0833333333334,17.692307692307693,971.5000000000001,17.692307692307693C973.9166666666667,17.692307692307693,976.3333333333335,17.692307692307693,978.7500000000001,17.692307692307693C981.1666666666667,17.692307692307693,983.5833333333335,17.692307692307693,986.0000000000001,17.692307692307693C988.4166666666667,17.692307692307693,990.8333333333335,17.692307692307693,993.2500000000001,17.692307692307693C995.6666666666667,17.692307692307693,998.0833333333333,17.692307692307693,1000.4999999999999,17.692307692307693C1002.9166666666665,17.692307692307693,1005.3333333333333,17.692307692307693,1007.7499999999999,17.692307692307693C1010.1666666666665,17.692307692307693,1012.5833333333333,17.692307692307693,1014.9999999999999,17.692307692307693C1017.4166666666665,17.692307692307693,1019.8333333333333,17.692307692307693,1022.2499999999999,17.692307692307693C1024.6666666666665,17.692307692307693,1027.0833333333333,17.692307692307693,1029.5,17.692307692307693C1031.9166666666667,17.692307692307693,1034.3333333333333,17.692307692307693,1036.75,17.692307692307693C1039.1666666666667,17.692307692307693,1041.5833333333333,17.692307692307693,1044,17.692307692307693C1046.4166666666667,17.692307692307693,1048.8333333333333,17.692307692307693,1051.25,17.692307692307693C1053.6666666666667,17.692307692307693,1056.0833333333333,17.692307692307693,1058.5,17.692307692307693C1060.9166666666667,17.692307692307693,1063.3333333333333,17.692307692307693,1065.75,17.692307692307693C1068.1666666666667,17.692307692307693,1070.5833333333333,17.692307692307693,1073,17.692307692307693C1075.4166666666667,17.692307692307693,1077.8333333333333,17.692307692307693,1080.25,17.692307692307693C1082.6666666666667,17.692307692307693,1085.0833333333333,17.692307692307693,1087.5,17.692307692307693C1089.9166666666667,17.692307692307693,1092.3333333333333,17.692307692307693,1094.75,17.692307692307693C1097.1666666666667,17.692307692307693,1099.5833333333333,17.692307692307693,1102,17.692307692307693C1104.4166666666667,17.692307692307693,1106.8333333333333,17.692307692307693,1109.25,17.692307692307693C1111.6666666666667,17.692307692307693,1114.0833333333333,17.692307692307693,1116.5,17.692307692307693C1118.9166666666667,17.692307692307693,1121.3333333333333,17.692307692307693,1123.75,17.692307692307693C1126.1666666666667,17.692307692307693,1128.5833333333333,17.692307692307693,1131,17.692307692307693C1133.4166666666667,17.692307692307693,1135.8333333333333,17.692307692307693,1138.25,17.692307692307693C1140.6666666666667,17.692307692307693,1143.0833333333333,17.692307692307693,1145.5,17.692307692307693C1147.9166666666667,17.692307692307693,1150.3333333333333,17.692307692307693,1152.75,17.692307692307693C1155.1666666666667,17.692307692307693,1157.5833333333333,17.692307692307693,1160,17.692307692307693C1162.4166666666667,17.692307692307693,1164.8333333333333,17.692307692307693,1167.25,17.692307692307693C1169.6666666666667,17.692307692307693,1172.0833333333333,17.692307692307693,1174.5,17.692307692307693C1176.9166666666667,17.692307692307693,1179.3333333333333,17.692307692307693,1181.75,17.692307692307693C1184.1666666666667,17.692307692307693,1186.5833333333333,17.692307692307693,1189,17.692307692307693C1191.4166666666667,17.692307692307693,1193.8333333333333,17.692307692307693,1196.25,17.692307692307693C1198.6666666666667,17.692307692307693,1201.0833333333333,17.692307692307693,1203.5,17.692307692307693C1205.9166666666667,17.692307692307693,1208.3333333333333,17.692307692307693,1210.75,17.692307692307693C1213.1666666666667,17.692307692307693,1215.5833333333333,17.692307692307693,1218,17.692307692307693C1220.4166666666667,17.692307692307693,1222.8333333333333,17.692307692307693,1225.25,17.692307692307693C1227.6666666666667,17.692307692307693,1230.0833333333333,17.692307692307693,1232.5,17.692307692307693C1234.9166666666667,17.692307692307693,1237.3333333333333,17.692307692307693,1239.75,17.692307692307693C1242.1666666666667,17.692307692307693,1244.5833333333333,17.692307692307693,1247,17.692307692307693C1249.4166666666667,17.692307692307693,1251.8333333333333,17.692307692307693,1254.25,17.692307692307693C1256.6666666666667,17.692307692307693,1259.0833333333333,17.692307692307693,1261.5,17.692307692307693C1263.9166666666667,17.692307692307693,1266.3333333333333,17.692307692307693,1268.75,17.692307692307693C1271.1666666666667,17.692307692307693,1273.5833333333333,17.692307692307693,1276,17.692307692307693C1278.4166666666667,17.692307692307693,1280.8333333333333,17.692307692307693,1283.25,17.692307692307693C1285.6666666666667,17.692307692307693,1288.0833333333333,17.692307692307693,1290.5,17.692307692307693C1292.9166666666667,17.692307692307693,1295.3333333333333,17.692307692307693,1297.75,17.692307692307693C1300.1666666666667,17.692307692307693,1302.5833333333333,17.692307692307693,1305,17.692307692307693C1307.4166666666667,17.692307692307693,1309.8333333333333,17.692307692307693,1312.25,17.692307692307693C1314.6666666666667,17.692307692307693,1317.0833333333333,17.692307692307693,1319.5,17.692307692307693C1321.9166666666667,17.692307692307693,1324.3333333333333,17.692307692307693,1326.75,17.692307692307693C1329.1666666666667,17.692307692307693,1331.5833333333333,17.692307692307693,1334,17.692307692307693C1336.4166666666667,17.692307692307693,1338.8333333333333,17.692307692307693,1341.25,17.692307692307693C1343.6666666666667,17.692307692307693,1346.0833333333333,17.692307692307693,1348.5,17.692307692307693C1350.9166666666667,17.692307692307693,1353.3333333333333,17.692307692307693,1355.75,17.692307692307693C1358.1666666666667,17.692307692307693,1360.5833333333333,17.692307692307693,1363,17.692307692307693C1365.4166666666667,17.692307692307693,1367.8333333333333,17.692307692307693,1370.25,17.692307692307693C1372.6666666666667,17.692307692307693,1375.0833333333333,17.692307692307693,1377.5,17.692307692307693C1379.9166666666667,17.692307692307693,1382.3333333333333,17.692307692307693,1384.75,17.692307692307693C1387.1666666666667,17.692307692307693,1389.5833333333333,17.692307692307693,1392,17.692307692307693C1394.4166666666667,17.692307692307693,1396.8333333333333,17.692307692307693,1399.25,17.692307692307693C1401.6666666666667,17.692307692307693,1404.0833333333333,17.692307692307693,1406.5,17.692307692307693C1408.9166666666667,17.692307692307693,1411.3333333333333,17.692307692307693,1413.75,17.692307692307693C1416.1666666666667,17.692307692307693,1418.5833333333333,17.692307692307693,1421,17.692307692307693C1423.4166666666667,17.692307692307693,1425.8333333333333,17.692307692307693,1428.25,17.692307692307693C1430.6666666666667,17.692307692307693,1433.0833333333333,17.692307692307693,1435.5,17.692307692307693C1437.9166666666667,17.692307692307693,1440.3333333333333,17.692307692307693,1442.75,17.692307692307693C1445.1666666666667,17.692307692307693,1447.5833333333333,17.692307692307693,1450,17.692307692307693" fill="transparent" stroke-linecap="round" stroke="#E7C6DF" stroke-width="2"></path><g class="visx-group visx-axis visx-axis-bottom" transform="translate(0, 115)"><g class="visx-group visx-axis-tick" transform="translate(0, 0)"><line class="visx-line" x1="0" y1="0" x2="0" y2="8" fill="transparent" shape-rendering="crispEdges" stroke="#000" stroke-width="0" stroke-linecap="square"></line><svg x="0" y="0" font-size="10" style="overflow:visible"><text transform="" x="0" y="18" fill="#000" font-size="10" text-anchor="middle"><tspan x="0" dy="0em">0%</tspan></text></svg></g><g class="visx-group visx-axis-tick" transform="translate(0, 0)"><line class="visx-line" x1="362.5" y1="0" x2="362.5" y2="8" fill="transparent" shape-rendering="crispEdges" stroke="#000" stroke-width="0" stroke-linecap="square"></line><svg x="0" y="0" font-size="10" style="overflow:visible"><text transform="" x="362.5" y="18" fill="#000" font-size="10" text-anchor="middle"><tspan x="362.5" dy="0em">25%</tspan></text></svg></g><g class="visx-group visx-axis-tick" transform="translate(0, 0)"><line class="visx-line" x1="725" y1="0" x2="725" y2="8" fill="transparent" shape-rendering="crispEdges" stroke="#000" stroke-width="0" stroke-linecap="square"></line><svg x="0" y="0" font-size="10" style="overflow:visible"><text transform="" x="725" y="18" fill="#000" font-size="10" text-anchor="middle"><tspan x="725" dy="0em">50%</tspan></text></svg></g><g class="visx-group visx-axis-tick" transform="translate(0, 0)"><line class="visx-line" x1="1087.5" y1="0" x2="1087.5" y2="8" fill="transparent" shape-rendering="crispEdges" stroke="#000" stroke-width="0" stroke-linecap="square"></line><svg x="0" y="0" font-size="10" style="overflow:visible"><text transform="" x="1087.5" y="18" fill="#000" font-size="10" text-anchor="middle"><tspan x="1087.5" dy="0em">75%</tspan></text></svg></g><g class="visx-group visx-axis-tick" transform="translate(0, 0)"><line class="visx-line" x1="1450" y1="0" x2="1450" y2="8" fill="transparent" shape-rendering="crispEdges" stroke="#000" stroke-width="0" stroke-linecap="square"></line><svg x="0" y="0" font-size="10" style="overflow:visible"><text transform="" x="1450" y="18" fill="#000" font-size="10" text-anchor="middle"><tspan x="1450" dy="0em">100%</tspan></text></svg></g><line class="visx-line visx-axis-line" x1="0.5" y1="0" x2="1450.5" y2="0" fill="transparent" shape-rendering="crispEdges" stroke="#222" stroke-width="0"></line></g><g class="visx-group visx-axis visx-axis-left" transform="translate(0, 0)"><g class="visx-group visx-axis-tick" transform="translate(0, 0)"><line class="visx-line" x1="0" y1="115" x2="-8" y2="115" fill="transparent" shape-rendering="crispEdges" stroke="#222" stroke-width="0" stroke-linecap="square"></line><svg x="-30" y="0" font-size="8" style="overflow:visible"><text transform="" x="-8" y="115" fill="#000" font-size="8" text-anchor="start"><tspan x="-8" dy="0em">0%</tspan></text></svg></g><g class="visx-group visx-axis-tick" transform="translate(0, 0)"><line class="visx-line" x1="0" y1="26.538461538461533" x2="-8" y2="26.538461538461533" fill="transparent" shape-rendering="crispEdges" stroke="#222" stroke-width="0" stroke-linecap="square"></line><svg x="-30" y="0" font-size="8" style="overflow:visible"><text transform="" x="-8" y="26.538461538461533" fill="#000" font-size="8" text-anchor="start"><tspan x="-8" dy="0em">5%</tspan></text></svg></g><line class="visx-line visx-axis-line" x1="0" y1="115.5" x2="0" y2="0.5" fill="transparent" shape-rendering="crispEdges" stroke="#222" stroke-width="0"></line></g><rect class="visx-bar" width="1450" height="115" fill="transparent"></rect><line class="visx-line" x1="652.5" y1="28" x2="652.5" y2="115" fill="transparent" shape-rendering="crispEdges" stroke="#0062D2" stroke-width="1" pointer-events="none" stroke-dasharray="5,2"></line><svg x="0" y="0" font-size="10px" style="overflow:visible"><text transform="" x="652.5" y="20" font-size="10px" fill="#fff" stroke="#fff" stroke-width="0.8em" text-anchor="middle"><tspan x="652.5" dy="0.355em">Optimal 45%</tspan></text></svg><svg x="0" y="0" font-size="10px" style="overflow:visible"><text transform="" x="652.5" y="20" font-size="10px" fill="#62677B" text-anchor="middle"><tspan x="652.5" dy="0.355em">Optimal 45%</tspan></text></svg></g></svg>